G75*
%MOIN*%
%OFA0B0*%
%FSLAX25Y25*%
%IPPOS*%
%LPD*%
%AMOC8*
5,1,8,0,0,1.08239X$1,22.5*
%
%ADD10C,0.00000*%
%ADD11R,0.06299X0.10630*%
%ADD12R,0.10630X0.06299*%
%ADD13R,0.05906X0.05118*%
%ADD14R,0.05118X0.05906*%
%ADD15C,0.04000*%
%ADD16R,0.02500X0.07000*%
%ADD17R,0.02500X0.06500*%
%ADD18R,0.38600X0.24400*%
%ADD19R,0.12000X0.11500*%
%ADD20R,0.07900X0.05900*%
%ADD21R,0.07900X0.15000*%
%ADD22C,0.05600*%
%ADD23R,0.03150X0.04724*%
%ADD24R,0.04724X0.04724*%
%ADD25R,0.06299X0.07098*%
%ADD26R,0.07098X0.06299*%
%ADD27C,0.05200*%
%ADD28C,0.06000*%
%ADD29OC8,0.06600*%
%ADD30R,0.05000X0.10000*%
%ADD31C,0.05937*%
%ADD32C,0.05937*%
%ADD33C,0.18898*%
%ADD34C,0.05000*%
%ADD35C,0.04000*%
%ADD36C,0.03765*%
%ADD37C,0.02400*%
%ADD38C,0.02000*%
%ADD39C,0.03200*%
%ADD40C,0.04159*%
%ADD41C,0.07500*%
%ADD42C,0.06500*%
%ADD43C,0.01600*%
%ADD44C,0.10000*%
D10*
X0018573Y0005000D02*
X0018573Y0215000D01*
X0272573Y0215000D01*
X0278573Y0209000D01*
X0278573Y0164000D01*
X0288573Y0154000D01*
X0288573Y0025000D01*
X0278573Y0015000D01*
X0278573Y0005000D01*
X0018573Y0005000D01*
X0018073Y0215961D01*
X0273774Y0215461D01*
X0278573Y0210000D01*
X0278573Y0165000D01*
X0288573Y0155000D01*
X0288573Y0025000D01*
X0279274Y0015701D01*
X0279274Y0004500D01*
X0018573Y0005000D01*
X0067274Y0015000D02*
X0067276Y0015158D01*
X0067282Y0015316D01*
X0067292Y0015474D01*
X0067306Y0015632D01*
X0067324Y0015789D01*
X0067345Y0015946D01*
X0067371Y0016102D01*
X0067401Y0016258D01*
X0067434Y0016413D01*
X0067472Y0016566D01*
X0067513Y0016719D01*
X0067558Y0016871D01*
X0067607Y0017022D01*
X0067660Y0017171D01*
X0067716Y0017319D01*
X0067776Y0017465D01*
X0067840Y0017610D01*
X0067908Y0017753D01*
X0067979Y0017895D01*
X0068053Y0018035D01*
X0068131Y0018172D01*
X0068213Y0018308D01*
X0068297Y0018442D01*
X0068386Y0018573D01*
X0068477Y0018702D01*
X0068572Y0018829D01*
X0068669Y0018954D01*
X0068770Y0019076D01*
X0068874Y0019195D01*
X0068981Y0019312D01*
X0069091Y0019426D01*
X0069204Y0019537D01*
X0069319Y0019646D01*
X0069437Y0019751D01*
X0069558Y0019853D01*
X0069681Y0019953D01*
X0069807Y0020049D01*
X0069935Y0020142D01*
X0070065Y0020232D01*
X0070198Y0020318D01*
X0070333Y0020402D01*
X0070469Y0020481D01*
X0070608Y0020558D01*
X0070749Y0020630D01*
X0070891Y0020700D01*
X0071035Y0020765D01*
X0071181Y0020827D01*
X0071328Y0020885D01*
X0071477Y0020940D01*
X0071627Y0020991D01*
X0071778Y0021038D01*
X0071930Y0021081D01*
X0072083Y0021120D01*
X0072238Y0021156D01*
X0072393Y0021187D01*
X0072549Y0021215D01*
X0072705Y0021239D01*
X0072862Y0021259D01*
X0073020Y0021275D01*
X0073177Y0021287D01*
X0073336Y0021295D01*
X0073494Y0021299D01*
X0073652Y0021299D01*
X0073810Y0021295D01*
X0073969Y0021287D01*
X0074126Y0021275D01*
X0074284Y0021259D01*
X0074441Y0021239D01*
X0074597Y0021215D01*
X0074753Y0021187D01*
X0074908Y0021156D01*
X0075063Y0021120D01*
X0075216Y0021081D01*
X0075368Y0021038D01*
X0075519Y0020991D01*
X0075669Y0020940D01*
X0075818Y0020885D01*
X0075965Y0020827D01*
X0076111Y0020765D01*
X0076255Y0020700D01*
X0076397Y0020630D01*
X0076538Y0020558D01*
X0076677Y0020481D01*
X0076813Y0020402D01*
X0076948Y0020318D01*
X0077081Y0020232D01*
X0077211Y0020142D01*
X0077339Y0020049D01*
X0077465Y0019953D01*
X0077588Y0019853D01*
X0077709Y0019751D01*
X0077827Y0019646D01*
X0077942Y0019537D01*
X0078055Y0019426D01*
X0078165Y0019312D01*
X0078272Y0019195D01*
X0078376Y0019076D01*
X0078477Y0018954D01*
X0078574Y0018829D01*
X0078669Y0018702D01*
X0078760Y0018573D01*
X0078849Y0018442D01*
X0078933Y0018308D01*
X0079015Y0018172D01*
X0079093Y0018035D01*
X0079167Y0017895D01*
X0079238Y0017753D01*
X0079306Y0017610D01*
X0079370Y0017465D01*
X0079430Y0017319D01*
X0079486Y0017171D01*
X0079539Y0017022D01*
X0079588Y0016871D01*
X0079633Y0016719D01*
X0079674Y0016566D01*
X0079712Y0016413D01*
X0079745Y0016258D01*
X0079775Y0016102D01*
X0079801Y0015946D01*
X0079822Y0015789D01*
X0079840Y0015632D01*
X0079854Y0015474D01*
X0079864Y0015316D01*
X0079870Y0015158D01*
X0079872Y0015000D01*
X0079870Y0014842D01*
X0079864Y0014684D01*
X0079854Y0014526D01*
X0079840Y0014368D01*
X0079822Y0014211D01*
X0079801Y0014054D01*
X0079775Y0013898D01*
X0079745Y0013742D01*
X0079712Y0013587D01*
X0079674Y0013434D01*
X0079633Y0013281D01*
X0079588Y0013129D01*
X0079539Y0012978D01*
X0079486Y0012829D01*
X0079430Y0012681D01*
X0079370Y0012535D01*
X0079306Y0012390D01*
X0079238Y0012247D01*
X0079167Y0012105D01*
X0079093Y0011965D01*
X0079015Y0011828D01*
X0078933Y0011692D01*
X0078849Y0011558D01*
X0078760Y0011427D01*
X0078669Y0011298D01*
X0078574Y0011171D01*
X0078477Y0011046D01*
X0078376Y0010924D01*
X0078272Y0010805D01*
X0078165Y0010688D01*
X0078055Y0010574D01*
X0077942Y0010463D01*
X0077827Y0010354D01*
X0077709Y0010249D01*
X0077588Y0010147D01*
X0077465Y0010047D01*
X0077339Y0009951D01*
X0077211Y0009858D01*
X0077081Y0009768D01*
X0076948Y0009682D01*
X0076813Y0009598D01*
X0076677Y0009519D01*
X0076538Y0009442D01*
X0076397Y0009370D01*
X0076255Y0009300D01*
X0076111Y0009235D01*
X0075965Y0009173D01*
X0075818Y0009115D01*
X0075669Y0009060D01*
X0075519Y0009009D01*
X0075368Y0008962D01*
X0075216Y0008919D01*
X0075063Y0008880D01*
X0074908Y0008844D01*
X0074753Y0008813D01*
X0074597Y0008785D01*
X0074441Y0008761D01*
X0074284Y0008741D01*
X0074126Y0008725D01*
X0073969Y0008713D01*
X0073810Y0008705D01*
X0073652Y0008701D01*
X0073494Y0008701D01*
X0073336Y0008705D01*
X0073177Y0008713D01*
X0073020Y0008725D01*
X0072862Y0008741D01*
X0072705Y0008761D01*
X0072549Y0008785D01*
X0072393Y0008813D01*
X0072238Y0008844D01*
X0072083Y0008880D01*
X0071930Y0008919D01*
X0071778Y0008962D01*
X0071627Y0009009D01*
X0071477Y0009060D01*
X0071328Y0009115D01*
X0071181Y0009173D01*
X0071035Y0009235D01*
X0070891Y0009300D01*
X0070749Y0009370D01*
X0070608Y0009442D01*
X0070469Y0009519D01*
X0070333Y0009598D01*
X0070198Y0009682D01*
X0070065Y0009768D01*
X0069935Y0009858D01*
X0069807Y0009951D01*
X0069681Y0010047D01*
X0069558Y0010147D01*
X0069437Y0010249D01*
X0069319Y0010354D01*
X0069204Y0010463D01*
X0069091Y0010574D01*
X0068981Y0010688D01*
X0068874Y0010805D01*
X0068770Y0010924D01*
X0068669Y0011046D01*
X0068572Y0011171D01*
X0068477Y0011298D01*
X0068386Y0011427D01*
X0068297Y0011558D01*
X0068213Y0011692D01*
X0068131Y0011828D01*
X0068053Y0011965D01*
X0067979Y0012105D01*
X0067908Y0012247D01*
X0067840Y0012390D01*
X0067776Y0012535D01*
X0067716Y0012681D01*
X0067660Y0012829D01*
X0067607Y0012978D01*
X0067558Y0013129D01*
X0067513Y0013281D01*
X0067472Y0013434D01*
X0067434Y0013587D01*
X0067401Y0013742D01*
X0067371Y0013898D01*
X0067345Y0014054D01*
X0067324Y0014211D01*
X0067306Y0014368D01*
X0067292Y0014526D01*
X0067282Y0014684D01*
X0067276Y0014842D01*
X0067274Y0015000D01*
X0272274Y0035000D02*
X0272276Y0035158D01*
X0272282Y0035316D01*
X0272292Y0035474D01*
X0272306Y0035632D01*
X0272324Y0035789D01*
X0272345Y0035946D01*
X0272371Y0036102D01*
X0272401Y0036258D01*
X0272434Y0036413D01*
X0272472Y0036566D01*
X0272513Y0036719D01*
X0272558Y0036871D01*
X0272607Y0037022D01*
X0272660Y0037171D01*
X0272716Y0037319D01*
X0272776Y0037465D01*
X0272840Y0037610D01*
X0272908Y0037753D01*
X0272979Y0037895D01*
X0273053Y0038035D01*
X0273131Y0038172D01*
X0273213Y0038308D01*
X0273297Y0038442D01*
X0273386Y0038573D01*
X0273477Y0038702D01*
X0273572Y0038829D01*
X0273669Y0038954D01*
X0273770Y0039076D01*
X0273874Y0039195D01*
X0273981Y0039312D01*
X0274091Y0039426D01*
X0274204Y0039537D01*
X0274319Y0039646D01*
X0274437Y0039751D01*
X0274558Y0039853D01*
X0274681Y0039953D01*
X0274807Y0040049D01*
X0274935Y0040142D01*
X0275065Y0040232D01*
X0275198Y0040318D01*
X0275333Y0040402D01*
X0275469Y0040481D01*
X0275608Y0040558D01*
X0275749Y0040630D01*
X0275891Y0040700D01*
X0276035Y0040765D01*
X0276181Y0040827D01*
X0276328Y0040885D01*
X0276477Y0040940D01*
X0276627Y0040991D01*
X0276778Y0041038D01*
X0276930Y0041081D01*
X0277083Y0041120D01*
X0277238Y0041156D01*
X0277393Y0041187D01*
X0277549Y0041215D01*
X0277705Y0041239D01*
X0277862Y0041259D01*
X0278020Y0041275D01*
X0278177Y0041287D01*
X0278336Y0041295D01*
X0278494Y0041299D01*
X0278652Y0041299D01*
X0278810Y0041295D01*
X0278969Y0041287D01*
X0279126Y0041275D01*
X0279284Y0041259D01*
X0279441Y0041239D01*
X0279597Y0041215D01*
X0279753Y0041187D01*
X0279908Y0041156D01*
X0280063Y0041120D01*
X0280216Y0041081D01*
X0280368Y0041038D01*
X0280519Y0040991D01*
X0280669Y0040940D01*
X0280818Y0040885D01*
X0280965Y0040827D01*
X0281111Y0040765D01*
X0281255Y0040700D01*
X0281397Y0040630D01*
X0281538Y0040558D01*
X0281677Y0040481D01*
X0281813Y0040402D01*
X0281948Y0040318D01*
X0282081Y0040232D01*
X0282211Y0040142D01*
X0282339Y0040049D01*
X0282465Y0039953D01*
X0282588Y0039853D01*
X0282709Y0039751D01*
X0282827Y0039646D01*
X0282942Y0039537D01*
X0283055Y0039426D01*
X0283165Y0039312D01*
X0283272Y0039195D01*
X0283376Y0039076D01*
X0283477Y0038954D01*
X0283574Y0038829D01*
X0283669Y0038702D01*
X0283760Y0038573D01*
X0283849Y0038442D01*
X0283933Y0038308D01*
X0284015Y0038172D01*
X0284093Y0038035D01*
X0284167Y0037895D01*
X0284238Y0037753D01*
X0284306Y0037610D01*
X0284370Y0037465D01*
X0284430Y0037319D01*
X0284486Y0037171D01*
X0284539Y0037022D01*
X0284588Y0036871D01*
X0284633Y0036719D01*
X0284674Y0036566D01*
X0284712Y0036413D01*
X0284745Y0036258D01*
X0284775Y0036102D01*
X0284801Y0035946D01*
X0284822Y0035789D01*
X0284840Y0035632D01*
X0284854Y0035474D01*
X0284864Y0035316D01*
X0284870Y0035158D01*
X0284872Y0035000D01*
X0284870Y0034842D01*
X0284864Y0034684D01*
X0284854Y0034526D01*
X0284840Y0034368D01*
X0284822Y0034211D01*
X0284801Y0034054D01*
X0284775Y0033898D01*
X0284745Y0033742D01*
X0284712Y0033587D01*
X0284674Y0033434D01*
X0284633Y0033281D01*
X0284588Y0033129D01*
X0284539Y0032978D01*
X0284486Y0032829D01*
X0284430Y0032681D01*
X0284370Y0032535D01*
X0284306Y0032390D01*
X0284238Y0032247D01*
X0284167Y0032105D01*
X0284093Y0031965D01*
X0284015Y0031828D01*
X0283933Y0031692D01*
X0283849Y0031558D01*
X0283760Y0031427D01*
X0283669Y0031298D01*
X0283574Y0031171D01*
X0283477Y0031046D01*
X0283376Y0030924D01*
X0283272Y0030805D01*
X0283165Y0030688D01*
X0283055Y0030574D01*
X0282942Y0030463D01*
X0282827Y0030354D01*
X0282709Y0030249D01*
X0282588Y0030147D01*
X0282465Y0030047D01*
X0282339Y0029951D01*
X0282211Y0029858D01*
X0282081Y0029768D01*
X0281948Y0029682D01*
X0281813Y0029598D01*
X0281677Y0029519D01*
X0281538Y0029442D01*
X0281397Y0029370D01*
X0281255Y0029300D01*
X0281111Y0029235D01*
X0280965Y0029173D01*
X0280818Y0029115D01*
X0280669Y0029060D01*
X0280519Y0029009D01*
X0280368Y0028962D01*
X0280216Y0028919D01*
X0280063Y0028880D01*
X0279908Y0028844D01*
X0279753Y0028813D01*
X0279597Y0028785D01*
X0279441Y0028761D01*
X0279284Y0028741D01*
X0279126Y0028725D01*
X0278969Y0028713D01*
X0278810Y0028705D01*
X0278652Y0028701D01*
X0278494Y0028701D01*
X0278336Y0028705D01*
X0278177Y0028713D01*
X0278020Y0028725D01*
X0277862Y0028741D01*
X0277705Y0028761D01*
X0277549Y0028785D01*
X0277393Y0028813D01*
X0277238Y0028844D01*
X0277083Y0028880D01*
X0276930Y0028919D01*
X0276778Y0028962D01*
X0276627Y0029009D01*
X0276477Y0029060D01*
X0276328Y0029115D01*
X0276181Y0029173D01*
X0276035Y0029235D01*
X0275891Y0029300D01*
X0275749Y0029370D01*
X0275608Y0029442D01*
X0275469Y0029519D01*
X0275333Y0029598D01*
X0275198Y0029682D01*
X0275065Y0029768D01*
X0274935Y0029858D01*
X0274807Y0029951D01*
X0274681Y0030047D01*
X0274558Y0030147D01*
X0274437Y0030249D01*
X0274319Y0030354D01*
X0274204Y0030463D01*
X0274091Y0030574D01*
X0273981Y0030688D01*
X0273874Y0030805D01*
X0273770Y0030924D01*
X0273669Y0031046D01*
X0273572Y0031171D01*
X0273477Y0031298D01*
X0273386Y0031427D01*
X0273297Y0031558D01*
X0273213Y0031692D01*
X0273131Y0031828D01*
X0273053Y0031965D01*
X0272979Y0032105D01*
X0272908Y0032247D01*
X0272840Y0032390D01*
X0272776Y0032535D01*
X0272716Y0032681D01*
X0272660Y0032829D01*
X0272607Y0032978D01*
X0272558Y0033129D01*
X0272513Y0033281D01*
X0272472Y0033434D01*
X0272434Y0033587D01*
X0272401Y0033742D01*
X0272371Y0033898D01*
X0272345Y0034054D01*
X0272324Y0034211D01*
X0272306Y0034368D01*
X0272292Y0034526D01*
X0272282Y0034684D01*
X0272276Y0034842D01*
X0272274Y0035000D01*
X0272274Y0145000D02*
X0272276Y0145158D01*
X0272282Y0145316D01*
X0272292Y0145474D01*
X0272306Y0145632D01*
X0272324Y0145789D01*
X0272345Y0145946D01*
X0272371Y0146102D01*
X0272401Y0146258D01*
X0272434Y0146413D01*
X0272472Y0146566D01*
X0272513Y0146719D01*
X0272558Y0146871D01*
X0272607Y0147022D01*
X0272660Y0147171D01*
X0272716Y0147319D01*
X0272776Y0147465D01*
X0272840Y0147610D01*
X0272908Y0147753D01*
X0272979Y0147895D01*
X0273053Y0148035D01*
X0273131Y0148172D01*
X0273213Y0148308D01*
X0273297Y0148442D01*
X0273386Y0148573D01*
X0273477Y0148702D01*
X0273572Y0148829D01*
X0273669Y0148954D01*
X0273770Y0149076D01*
X0273874Y0149195D01*
X0273981Y0149312D01*
X0274091Y0149426D01*
X0274204Y0149537D01*
X0274319Y0149646D01*
X0274437Y0149751D01*
X0274558Y0149853D01*
X0274681Y0149953D01*
X0274807Y0150049D01*
X0274935Y0150142D01*
X0275065Y0150232D01*
X0275198Y0150318D01*
X0275333Y0150402D01*
X0275469Y0150481D01*
X0275608Y0150558D01*
X0275749Y0150630D01*
X0275891Y0150700D01*
X0276035Y0150765D01*
X0276181Y0150827D01*
X0276328Y0150885D01*
X0276477Y0150940D01*
X0276627Y0150991D01*
X0276778Y0151038D01*
X0276930Y0151081D01*
X0277083Y0151120D01*
X0277238Y0151156D01*
X0277393Y0151187D01*
X0277549Y0151215D01*
X0277705Y0151239D01*
X0277862Y0151259D01*
X0278020Y0151275D01*
X0278177Y0151287D01*
X0278336Y0151295D01*
X0278494Y0151299D01*
X0278652Y0151299D01*
X0278810Y0151295D01*
X0278969Y0151287D01*
X0279126Y0151275D01*
X0279284Y0151259D01*
X0279441Y0151239D01*
X0279597Y0151215D01*
X0279753Y0151187D01*
X0279908Y0151156D01*
X0280063Y0151120D01*
X0280216Y0151081D01*
X0280368Y0151038D01*
X0280519Y0150991D01*
X0280669Y0150940D01*
X0280818Y0150885D01*
X0280965Y0150827D01*
X0281111Y0150765D01*
X0281255Y0150700D01*
X0281397Y0150630D01*
X0281538Y0150558D01*
X0281677Y0150481D01*
X0281813Y0150402D01*
X0281948Y0150318D01*
X0282081Y0150232D01*
X0282211Y0150142D01*
X0282339Y0150049D01*
X0282465Y0149953D01*
X0282588Y0149853D01*
X0282709Y0149751D01*
X0282827Y0149646D01*
X0282942Y0149537D01*
X0283055Y0149426D01*
X0283165Y0149312D01*
X0283272Y0149195D01*
X0283376Y0149076D01*
X0283477Y0148954D01*
X0283574Y0148829D01*
X0283669Y0148702D01*
X0283760Y0148573D01*
X0283849Y0148442D01*
X0283933Y0148308D01*
X0284015Y0148172D01*
X0284093Y0148035D01*
X0284167Y0147895D01*
X0284238Y0147753D01*
X0284306Y0147610D01*
X0284370Y0147465D01*
X0284430Y0147319D01*
X0284486Y0147171D01*
X0284539Y0147022D01*
X0284588Y0146871D01*
X0284633Y0146719D01*
X0284674Y0146566D01*
X0284712Y0146413D01*
X0284745Y0146258D01*
X0284775Y0146102D01*
X0284801Y0145946D01*
X0284822Y0145789D01*
X0284840Y0145632D01*
X0284854Y0145474D01*
X0284864Y0145316D01*
X0284870Y0145158D01*
X0284872Y0145000D01*
X0284870Y0144842D01*
X0284864Y0144684D01*
X0284854Y0144526D01*
X0284840Y0144368D01*
X0284822Y0144211D01*
X0284801Y0144054D01*
X0284775Y0143898D01*
X0284745Y0143742D01*
X0284712Y0143587D01*
X0284674Y0143434D01*
X0284633Y0143281D01*
X0284588Y0143129D01*
X0284539Y0142978D01*
X0284486Y0142829D01*
X0284430Y0142681D01*
X0284370Y0142535D01*
X0284306Y0142390D01*
X0284238Y0142247D01*
X0284167Y0142105D01*
X0284093Y0141965D01*
X0284015Y0141828D01*
X0283933Y0141692D01*
X0283849Y0141558D01*
X0283760Y0141427D01*
X0283669Y0141298D01*
X0283574Y0141171D01*
X0283477Y0141046D01*
X0283376Y0140924D01*
X0283272Y0140805D01*
X0283165Y0140688D01*
X0283055Y0140574D01*
X0282942Y0140463D01*
X0282827Y0140354D01*
X0282709Y0140249D01*
X0282588Y0140147D01*
X0282465Y0140047D01*
X0282339Y0139951D01*
X0282211Y0139858D01*
X0282081Y0139768D01*
X0281948Y0139682D01*
X0281813Y0139598D01*
X0281677Y0139519D01*
X0281538Y0139442D01*
X0281397Y0139370D01*
X0281255Y0139300D01*
X0281111Y0139235D01*
X0280965Y0139173D01*
X0280818Y0139115D01*
X0280669Y0139060D01*
X0280519Y0139009D01*
X0280368Y0138962D01*
X0280216Y0138919D01*
X0280063Y0138880D01*
X0279908Y0138844D01*
X0279753Y0138813D01*
X0279597Y0138785D01*
X0279441Y0138761D01*
X0279284Y0138741D01*
X0279126Y0138725D01*
X0278969Y0138713D01*
X0278810Y0138705D01*
X0278652Y0138701D01*
X0278494Y0138701D01*
X0278336Y0138705D01*
X0278177Y0138713D01*
X0278020Y0138725D01*
X0277862Y0138741D01*
X0277705Y0138761D01*
X0277549Y0138785D01*
X0277393Y0138813D01*
X0277238Y0138844D01*
X0277083Y0138880D01*
X0276930Y0138919D01*
X0276778Y0138962D01*
X0276627Y0139009D01*
X0276477Y0139060D01*
X0276328Y0139115D01*
X0276181Y0139173D01*
X0276035Y0139235D01*
X0275891Y0139300D01*
X0275749Y0139370D01*
X0275608Y0139442D01*
X0275469Y0139519D01*
X0275333Y0139598D01*
X0275198Y0139682D01*
X0275065Y0139768D01*
X0274935Y0139858D01*
X0274807Y0139951D01*
X0274681Y0140047D01*
X0274558Y0140147D01*
X0274437Y0140249D01*
X0274319Y0140354D01*
X0274204Y0140463D01*
X0274091Y0140574D01*
X0273981Y0140688D01*
X0273874Y0140805D01*
X0273770Y0140924D01*
X0273669Y0141046D01*
X0273572Y0141171D01*
X0273477Y0141298D01*
X0273386Y0141427D01*
X0273297Y0141558D01*
X0273213Y0141692D01*
X0273131Y0141828D01*
X0273053Y0141965D01*
X0272979Y0142105D01*
X0272908Y0142247D01*
X0272840Y0142390D01*
X0272776Y0142535D01*
X0272716Y0142681D01*
X0272660Y0142829D01*
X0272607Y0142978D01*
X0272558Y0143129D01*
X0272513Y0143281D01*
X0272472Y0143434D01*
X0272434Y0143587D01*
X0272401Y0143742D01*
X0272371Y0143898D01*
X0272345Y0144054D01*
X0272324Y0144211D01*
X0272306Y0144368D01*
X0272292Y0144526D01*
X0272282Y0144684D01*
X0272276Y0144842D01*
X0272274Y0145000D01*
X0072274Y0205000D02*
X0072276Y0205158D01*
X0072282Y0205316D01*
X0072292Y0205474D01*
X0072306Y0205632D01*
X0072324Y0205789D01*
X0072345Y0205946D01*
X0072371Y0206102D01*
X0072401Y0206258D01*
X0072434Y0206413D01*
X0072472Y0206566D01*
X0072513Y0206719D01*
X0072558Y0206871D01*
X0072607Y0207022D01*
X0072660Y0207171D01*
X0072716Y0207319D01*
X0072776Y0207465D01*
X0072840Y0207610D01*
X0072908Y0207753D01*
X0072979Y0207895D01*
X0073053Y0208035D01*
X0073131Y0208172D01*
X0073213Y0208308D01*
X0073297Y0208442D01*
X0073386Y0208573D01*
X0073477Y0208702D01*
X0073572Y0208829D01*
X0073669Y0208954D01*
X0073770Y0209076D01*
X0073874Y0209195D01*
X0073981Y0209312D01*
X0074091Y0209426D01*
X0074204Y0209537D01*
X0074319Y0209646D01*
X0074437Y0209751D01*
X0074558Y0209853D01*
X0074681Y0209953D01*
X0074807Y0210049D01*
X0074935Y0210142D01*
X0075065Y0210232D01*
X0075198Y0210318D01*
X0075333Y0210402D01*
X0075469Y0210481D01*
X0075608Y0210558D01*
X0075749Y0210630D01*
X0075891Y0210700D01*
X0076035Y0210765D01*
X0076181Y0210827D01*
X0076328Y0210885D01*
X0076477Y0210940D01*
X0076627Y0210991D01*
X0076778Y0211038D01*
X0076930Y0211081D01*
X0077083Y0211120D01*
X0077238Y0211156D01*
X0077393Y0211187D01*
X0077549Y0211215D01*
X0077705Y0211239D01*
X0077862Y0211259D01*
X0078020Y0211275D01*
X0078177Y0211287D01*
X0078336Y0211295D01*
X0078494Y0211299D01*
X0078652Y0211299D01*
X0078810Y0211295D01*
X0078969Y0211287D01*
X0079126Y0211275D01*
X0079284Y0211259D01*
X0079441Y0211239D01*
X0079597Y0211215D01*
X0079753Y0211187D01*
X0079908Y0211156D01*
X0080063Y0211120D01*
X0080216Y0211081D01*
X0080368Y0211038D01*
X0080519Y0210991D01*
X0080669Y0210940D01*
X0080818Y0210885D01*
X0080965Y0210827D01*
X0081111Y0210765D01*
X0081255Y0210700D01*
X0081397Y0210630D01*
X0081538Y0210558D01*
X0081677Y0210481D01*
X0081813Y0210402D01*
X0081948Y0210318D01*
X0082081Y0210232D01*
X0082211Y0210142D01*
X0082339Y0210049D01*
X0082465Y0209953D01*
X0082588Y0209853D01*
X0082709Y0209751D01*
X0082827Y0209646D01*
X0082942Y0209537D01*
X0083055Y0209426D01*
X0083165Y0209312D01*
X0083272Y0209195D01*
X0083376Y0209076D01*
X0083477Y0208954D01*
X0083574Y0208829D01*
X0083669Y0208702D01*
X0083760Y0208573D01*
X0083849Y0208442D01*
X0083933Y0208308D01*
X0084015Y0208172D01*
X0084093Y0208035D01*
X0084167Y0207895D01*
X0084238Y0207753D01*
X0084306Y0207610D01*
X0084370Y0207465D01*
X0084430Y0207319D01*
X0084486Y0207171D01*
X0084539Y0207022D01*
X0084588Y0206871D01*
X0084633Y0206719D01*
X0084674Y0206566D01*
X0084712Y0206413D01*
X0084745Y0206258D01*
X0084775Y0206102D01*
X0084801Y0205946D01*
X0084822Y0205789D01*
X0084840Y0205632D01*
X0084854Y0205474D01*
X0084864Y0205316D01*
X0084870Y0205158D01*
X0084872Y0205000D01*
X0084870Y0204842D01*
X0084864Y0204684D01*
X0084854Y0204526D01*
X0084840Y0204368D01*
X0084822Y0204211D01*
X0084801Y0204054D01*
X0084775Y0203898D01*
X0084745Y0203742D01*
X0084712Y0203587D01*
X0084674Y0203434D01*
X0084633Y0203281D01*
X0084588Y0203129D01*
X0084539Y0202978D01*
X0084486Y0202829D01*
X0084430Y0202681D01*
X0084370Y0202535D01*
X0084306Y0202390D01*
X0084238Y0202247D01*
X0084167Y0202105D01*
X0084093Y0201965D01*
X0084015Y0201828D01*
X0083933Y0201692D01*
X0083849Y0201558D01*
X0083760Y0201427D01*
X0083669Y0201298D01*
X0083574Y0201171D01*
X0083477Y0201046D01*
X0083376Y0200924D01*
X0083272Y0200805D01*
X0083165Y0200688D01*
X0083055Y0200574D01*
X0082942Y0200463D01*
X0082827Y0200354D01*
X0082709Y0200249D01*
X0082588Y0200147D01*
X0082465Y0200047D01*
X0082339Y0199951D01*
X0082211Y0199858D01*
X0082081Y0199768D01*
X0081948Y0199682D01*
X0081813Y0199598D01*
X0081677Y0199519D01*
X0081538Y0199442D01*
X0081397Y0199370D01*
X0081255Y0199300D01*
X0081111Y0199235D01*
X0080965Y0199173D01*
X0080818Y0199115D01*
X0080669Y0199060D01*
X0080519Y0199009D01*
X0080368Y0198962D01*
X0080216Y0198919D01*
X0080063Y0198880D01*
X0079908Y0198844D01*
X0079753Y0198813D01*
X0079597Y0198785D01*
X0079441Y0198761D01*
X0079284Y0198741D01*
X0079126Y0198725D01*
X0078969Y0198713D01*
X0078810Y0198705D01*
X0078652Y0198701D01*
X0078494Y0198701D01*
X0078336Y0198705D01*
X0078177Y0198713D01*
X0078020Y0198725D01*
X0077862Y0198741D01*
X0077705Y0198761D01*
X0077549Y0198785D01*
X0077393Y0198813D01*
X0077238Y0198844D01*
X0077083Y0198880D01*
X0076930Y0198919D01*
X0076778Y0198962D01*
X0076627Y0199009D01*
X0076477Y0199060D01*
X0076328Y0199115D01*
X0076181Y0199173D01*
X0076035Y0199235D01*
X0075891Y0199300D01*
X0075749Y0199370D01*
X0075608Y0199442D01*
X0075469Y0199519D01*
X0075333Y0199598D01*
X0075198Y0199682D01*
X0075065Y0199768D01*
X0074935Y0199858D01*
X0074807Y0199951D01*
X0074681Y0200047D01*
X0074558Y0200147D01*
X0074437Y0200249D01*
X0074319Y0200354D01*
X0074204Y0200463D01*
X0074091Y0200574D01*
X0073981Y0200688D01*
X0073874Y0200805D01*
X0073770Y0200924D01*
X0073669Y0201046D01*
X0073572Y0201171D01*
X0073477Y0201298D01*
X0073386Y0201427D01*
X0073297Y0201558D01*
X0073213Y0201692D01*
X0073131Y0201828D01*
X0073053Y0201965D01*
X0072979Y0202105D01*
X0072908Y0202247D01*
X0072840Y0202390D01*
X0072776Y0202535D01*
X0072716Y0202681D01*
X0072660Y0202829D01*
X0072607Y0202978D01*
X0072558Y0203129D01*
X0072513Y0203281D01*
X0072472Y0203434D01*
X0072434Y0203587D01*
X0072401Y0203742D01*
X0072371Y0203898D01*
X0072345Y0204054D01*
X0072324Y0204211D01*
X0072306Y0204368D01*
X0072292Y0204526D01*
X0072282Y0204684D01*
X0072276Y0204842D01*
X0072274Y0205000D01*
D11*
X0098061Y0045000D03*
X0109085Y0045000D03*
D12*
X0133573Y0035512D03*
X0133573Y0024488D03*
X0148573Y0024488D03*
X0148573Y0035512D03*
X0073573Y0040512D03*
X0073573Y0029488D03*
D13*
X0131573Y0077760D03*
X0131573Y0085240D03*
X0074073Y0115260D03*
X0074073Y0122740D03*
X0063073Y0108740D03*
X0063073Y0101260D03*
X0073573Y0146260D03*
X0073573Y0153740D03*
X0063573Y0161260D03*
X0063573Y0168740D03*
X0161073Y0033740D03*
X0161073Y0026260D03*
X0244573Y0026260D03*
X0244573Y0033740D03*
X0253573Y0033740D03*
X0253573Y0026260D03*
X0263573Y0026260D03*
X0263573Y0033740D03*
D14*
X0164813Y0075000D03*
X0157333Y0075000D03*
X0157333Y0083000D03*
X0164813Y0083000D03*
X0143919Y0154500D03*
X0137226Y0154500D03*
D15*
X0188573Y0160000D03*
X0078573Y0090000D03*
X0033573Y0192500D03*
D16*
X0096073Y0146700D03*
X0101073Y0146700D03*
X0106073Y0146700D03*
X0111073Y0146700D03*
X0121073Y0146700D03*
X0126073Y0146700D03*
X0131073Y0146700D03*
X0136073Y0146700D03*
X0141073Y0146700D03*
X0141073Y0093300D03*
X0136073Y0093300D03*
X0131073Y0093300D03*
X0126073Y0093300D03*
X0121073Y0093300D03*
X0116073Y0093300D03*
X0111073Y0093300D03*
X0106073Y0093300D03*
X0101073Y0093300D03*
X0096073Y0093300D03*
D17*
X0116073Y0146900D03*
D18*
X0118573Y0120000D03*
D19*
X0143873Y0120000D03*
X0093273Y0120000D03*
D20*
X0071173Y0068900D03*
X0071173Y0059900D03*
X0071173Y0050900D03*
D21*
X0095973Y0060000D03*
D22*
X0225773Y0055000D02*
X0231373Y0055000D01*
X0231373Y0065000D02*
X0225773Y0065000D01*
X0225773Y0075000D02*
X0231373Y0075000D01*
D23*
X0243573Y0071811D03*
X0253573Y0071811D03*
X0253573Y0048189D03*
X0243573Y0048189D03*
D24*
X0236073Y0046134D03*
X0236073Y0037866D03*
X0254939Y0041000D03*
X0263207Y0041000D03*
X0073573Y0100866D03*
X0073573Y0109134D03*
X0063573Y0115866D03*
X0063573Y0124134D03*
X0063573Y0145866D03*
X0063573Y0154134D03*
X0073573Y0160866D03*
X0073573Y0169134D03*
D25*
X0089974Y0084500D03*
X0101171Y0084500D03*
D26*
X0101073Y0156902D03*
X0101073Y0168098D03*
D27*
X0125973Y0170000D02*
X0131173Y0170000D01*
X0131173Y0180000D02*
X0125973Y0180000D01*
X0125973Y0190000D02*
X0131173Y0190000D01*
D28*
X0180573Y0144921D02*
X0186573Y0144921D01*
X0186573Y0135079D02*
X0180573Y0135079D01*
X0220573Y0135079D02*
X0226573Y0135079D01*
X0226573Y0144921D02*
X0220573Y0144921D01*
X0255573Y0140157D02*
X0261573Y0140157D01*
X0261573Y0150000D02*
X0255573Y0150000D01*
X0255573Y0159843D02*
X0261573Y0159843D01*
X0258730Y0113000D02*
X0258730Y0107000D01*
X0268573Y0107000D02*
X0268573Y0113000D01*
X0278415Y0113000D02*
X0278415Y0107000D01*
X0226573Y0104921D02*
X0220573Y0104921D01*
X0220573Y0095079D02*
X0226573Y0095079D01*
X0186573Y0095079D02*
X0180573Y0095079D01*
X0180573Y0104921D02*
X0186573Y0104921D01*
X0186573Y0064921D02*
X0180573Y0064921D01*
X0180573Y0055079D02*
X0186573Y0055079D01*
X0148415Y0058000D02*
X0148415Y0052000D01*
X0138573Y0052000D02*
X0138573Y0058000D01*
X0128730Y0058000D02*
X0128730Y0052000D01*
X0119373Y0033900D02*
X0113373Y0033900D01*
X0093773Y0033900D02*
X0087773Y0033900D01*
X0087773Y0016100D02*
X0093773Y0016100D01*
X0113373Y0016100D02*
X0119373Y0016100D01*
X0034073Y0102579D02*
X0028073Y0102579D01*
X0028073Y0112421D02*
X0034073Y0112421D01*
D29*
X0092573Y0205000D03*
X0102573Y0205000D03*
X0112573Y0205000D03*
X0122573Y0205000D03*
X0132573Y0205000D03*
X0142573Y0205000D03*
X0152573Y0205000D03*
X0162573Y0205000D03*
X0172573Y0205000D03*
X0182573Y0205000D03*
X0198573Y0205000D03*
X0208573Y0205000D03*
X0218573Y0205000D03*
X0228573Y0205000D03*
X0238573Y0205000D03*
X0248573Y0205000D03*
X0258573Y0205000D03*
X0268573Y0205000D03*
X0268573Y0015000D03*
X0258573Y0015000D03*
X0248573Y0015000D03*
X0238573Y0015000D03*
X0228573Y0015000D03*
X0218573Y0015000D03*
X0198573Y0015000D03*
X0188573Y0015000D03*
X0178573Y0015000D03*
X0168573Y0015000D03*
X0158573Y0015000D03*
X0148573Y0015000D03*
X0138573Y0015000D03*
X0128573Y0015000D03*
D30*
X0173573Y0030000D03*
X0183573Y0030000D03*
D31*
X0183573Y0175000D03*
X0193573Y0175000D03*
X0203573Y0175000D03*
X0213573Y0175000D03*
X0223573Y0175000D03*
X0223573Y0185000D03*
X0213573Y0185000D03*
X0203573Y0185000D03*
X0193573Y0185000D03*
X0183573Y0185000D03*
X0173573Y0185000D03*
X0163573Y0185000D03*
X0163573Y0175000D03*
X0173573Y0175000D03*
D32*
X0275604Y0085000D02*
X0281541Y0085000D01*
X0281541Y0075000D02*
X0275604Y0075000D01*
X0275604Y0060000D02*
X0281541Y0060000D01*
X0281541Y0050000D02*
X0275604Y0050000D01*
X0034041Y0070000D02*
X0028104Y0070000D01*
X0028104Y0080000D02*
X0034041Y0080000D01*
X0034041Y0137500D02*
X0028104Y0137500D01*
X0028104Y0147500D02*
X0034041Y0147500D01*
X0034041Y0157500D02*
X0028104Y0157500D01*
X0028104Y0167500D02*
X0034041Y0167500D01*
D33*
X0031919Y0040394D03*
X0043337Y0021890D03*
X0055148Y0040394D03*
D34*
X0065173Y0050900D02*
X0036073Y0080000D01*
X0031073Y0080000D01*
X0031073Y0082500D01*
X0031073Y0080000D01*
X0031073Y0070000D02*
X0033573Y0067500D01*
X0063573Y0070000D02*
X0064673Y0068900D01*
X0071173Y0068900D01*
X0081073Y0077500D02*
X0083523Y0075050D01*
X0083923Y0075050D01*
X0096898Y0075050D02*
X0096898Y0075000D01*
X0119573Y0085500D02*
X0121123Y0087550D01*
X0121123Y0090000D01*
X0071173Y0050900D02*
X0065173Y0050900D01*
X0071173Y0050900D02*
X0071173Y0042912D01*
X0073573Y0040512D01*
X0073573Y0029488D02*
X0068061Y0029488D01*
X0058573Y0020000D01*
X0043337Y0020000D01*
X0043337Y0021890D01*
X0031073Y0100000D02*
X0031073Y0102579D01*
X0031073Y0112421D02*
X0053573Y0134921D01*
X0053573Y0157500D01*
X0053573Y0112500D02*
X0031152Y0112500D01*
X0031073Y0112421D01*
D35*
X0096898Y0075050D02*
X0126948Y0045000D01*
X0173573Y0045000D01*
X0178573Y0040000D02*
X0183573Y0040000D01*
X0178573Y0040000D02*
X0173573Y0035000D01*
X0173573Y0030000D01*
X0168573Y0025000D01*
X0161073Y0025000D01*
X0161073Y0024488D02*
X0148573Y0024488D01*
X0148061Y0025000D01*
X0123573Y0025000D01*
X0113573Y0025000D01*
X0110873Y0027700D01*
X0110805Y0027700D01*
X0098061Y0040444D01*
X0098061Y0045000D02*
X0093573Y0045000D01*
X0078673Y0059900D01*
X0071173Y0059900D01*
X0109085Y0045000D02*
X0109085Y0041188D01*
X0114761Y0035512D01*
X0148573Y0035512D01*
X0161407Y0035512D01*
X0161073Y0033740D01*
X0183573Y0030000D02*
X0198573Y0015000D01*
X0218573Y0055000D02*
X0218573Y0070000D01*
X0223573Y0075000D01*
X0228573Y0075000D01*
X0228573Y0065000D02*
X0256082Y0065000D01*
X0276082Y0085000D01*
X0278573Y0085000D01*
X0268573Y0100688D02*
X0248798Y0080913D01*
X0248798Y0075225D01*
X0248573Y0075000D01*
X0248573Y0100248D01*
X0238573Y0112748D01*
X0238573Y0130000D01*
X0238573Y0138777D01*
X0249795Y0150000D01*
X0258573Y0150000D01*
X0223573Y0165000D02*
X0213573Y0175000D01*
X0203045Y0164472D01*
X0203045Y0160528D01*
X0268573Y0110000D02*
X0268573Y0100688D01*
X0273573Y0065000D02*
X0256082Y0065000D01*
X0273573Y0065000D02*
X0278573Y0060000D01*
X0148573Y0095000D02*
X0146873Y0093300D01*
X0141073Y0093300D01*
X0114761Y0035512D02*
X0116373Y0033900D01*
D36*
X0123573Y0025000D03*
X0173573Y0045000D03*
X0183573Y0040000D03*
X0218573Y0055000D03*
X0228573Y0045000D03*
X0248573Y0045000D03*
X0248573Y0075000D03*
X0241073Y0077500D03*
X0255073Y0080000D03*
X0213573Y0110000D03*
X0238573Y0112748D03*
X0238573Y0130000D03*
X0208573Y0135000D03*
X0203573Y0146000D03*
X0203573Y0155000D03*
X0203045Y0160528D03*
X0223573Y0165000D03*
X0158960Y0160387D03*
X0141073Y0161035D03*
X0126790Y0155000D03*
X0113573Y0160000D03*
X0108573Y0155000D03*
X0093573Y0170000D03*
X0068573Y0175000D03*
X0063573Y0180583D03*
X0063573Y0140000D03*
X0073573Y0140000D03*
X0063573Y0130000D03*
X0063573Y0095000D03*
X0058573Y0089917D03*
X0063573Y0070000D03*
X0088573Y0090000D03*
X0123573Y0080000D03*
X0138573Y0080000D03*
X0148573Y0095000D03*
X0143573Y0120000D03*
X0123573Y0135283D03*
X0146073Y0147500D03*
X0196073Y0091000D03*
X0203573Y0085000D03*
X0196073Y0079000D03*
D37*
X0196073Y0047500D01*
X0228573Y0015000D01*
X0238573Y0015000D02*
X0200356Y0053217D01*
X0200356Y0081274D01*
X0196073Y0086557D01*
X0196073Y0091000D01*
X0183573Y0104921D02*
X0183494Y0105000D01*
X0178573Y0105000D01*
X0173573Y0100000D01*
X0173573Y0091654D01*
X0164813Y0083000D01*
X0164813Y0075000D02*
X0173573Y0075000D01*
X0183573Y0065000D01*
X0178015Y0050000D02*
X0153573Y0050000D01*
X0148573Y0055000D01*
X0148415Y0055000D01*
X0138573Y0055000D02*
X0138573Y0071760D01*
X0131573Y0077760D01*
X0131573Y0085240D02*
X0131073Y0085740D01*
X0131073Y0091167D01*
X0131073Y0087500D01*
X0131073Y0091167D02*
X0131073Y0093300D01*
X0121073Y0093300D02*
X0121073Y0090000D01*
X0109573Y0075500D02*
X0108623Y0075050D01*
X0101171Y0084500D02*
X0101073Y0084598D01*
X0101073Y0093300D01*
X0096073Y0093300D02*
X0091873Y0093300D01*
X0088573Y0090000D01*
X0088573Y0085902D02*
X0089974Y0084500D01*
X0073573Y0100866D02*
X0072721Y0100014D01*
X0073573Y0109134D02*
X0074073Y0109634D01*
X0074073Y0115260D01*
X0063573Y0115866D02*
X0063573Y0109240D01*
X0063073Y0108740D01*
X0063573Y0124134D02*
X0063573Y0130000D01*
X0063573Y0140000D02*
X0063573Y0145866D01*
X0063573Y0154134D02*
X0063573Y0161260D01*
X0063573Y0168740D02*
X0063573Y0180583D01*
X0068573Y0175000D02*
X0073573Y0170000D01*
X0073573Y0169134D01*
X0073573Y0160866D02*
X0073573Y0153740D01*
X0073573Y0146260D02*
X0073573Y0140000D01*
X0093573Y0149200D02*
X0093573Y0170000D01*
X0095474Y0168098D01*
X0101073Y0168098D01*
X0101073Y0156902D02*
X0101073Y0146700D01*
X0096073Y0146700D02*
X0093573Y0149200D01*
X0093273Y0120000D02*
X0118573Y0120000D01*
X0139290Y0120000D01*
X0141073Y0146700D02*
X0141073Y0148236D01*
X0145337Y0148236D01*
X0146073Y0147500D01*
X0143919Y0149654D01*
X0143919Y0154500D01*
X0142185Y0152766D01*
X0142185Y0150553D01*
X0141073Y0149441D01*
X0141073Y0148236D01*
X0136073Y0146700D02*
X0136073Y0152500D01*
X0137226Y0153654D01*
X0137226Y0154500D01*
X0148573Y0185000D02*
X0163573Y0185000D01*
X0203573Y0155000D02*
X0205982Y0155000D01*
X0209582Y0158600D01*
X0227173Y0158600D01*
X0238573Y0170000D01*
X0238573Y0205000D01*
X0248573Y0205000D02*
X0248573Y0170000D01*
X0233573Y0155000D01*
X0213573Y0155000D01*
X0203573Y0146000D01*
X0223573Y0144921D02*
X0238494Y0144921D01*
X0253573Y0160000D01*
X0257085Y0160000D01*
X0258573Y0161488D01*
X0258573Y0205000D01*
X0268573Y0205000D02*
X0268573Y0155000D01*
X0266973Y0153400D01*
X0266973Y0137921D01*
X0258730Y0129678D01*
X0258730Y0110000D01*
X0241073Y0077500D02*
X0243573Y0075000D01*
X0243573Y0071811D01*
X0243573Y0048189D02*
X0243573Y0043740D01*
X0253573Y0033740D01*
X0253573Y0026260D02*
X0244573Y0026260D01*
X0244573Y0033740D02*
X0243573Y0035000D01*
X0240707Y0037866D01*
X0236073Y0037866D01*
X0234939Y0045000D02*
X0228573Y0045000D01*
X0234939Y0045000D02*
X0236073Y0046134D01*
X0248573Y0045000D02*
X0250384Y0045000D01*
X0253573Y0048189D01*
X0263207Y0041000D02*
X0263207Y0034106D01*
X0263573Y0033740D01*
X0253573Y0026260D02*
X0258573Y0021654D01*
X0258573Y0015000D01*
X0248573Y0015000D02*
X0246634Y0015000D01*
X0213573Y0048061D01*
X0213573Y0110000D01*
X0157333Y0075000D02*
X0153573Y0075000D01*
X0138573Y0060000D01*
X0138573Y0055000D01*
X0178015Y0050000D02*
X0178336Y0049679D01*
X0183894Y0049679D01*
X0218573Y0015000D01*
X0168573Y0015000D02*
X0161773Y0008200D01*
X0145373Y0008200D01*
X0138573Y0015000D01*
X0133573Y0024488D02*
X0124085Y0024488D01*
X0123573Y0025000D01*
X0098061Y0040444D02*
X0098061Y0045000D01*
X0031919Y0040394D02*
X0025226Y0047087D01*
X0257085Y0160000D02*
X0258573Y0160000D01*
D38*
X0213573Y0130000D02*
X0213573Y0110000D01*
X0213573Y0130000D02*
X0208573Y0135000D01*
X0203573Y0146000D02*
X0203573Y0085000D01*
X0163573Y0100000D02*
X0143573Y0080000D01*
X0138573Y0080000D01*
X0126073Y0082500D02*
X0126073Y0093300D01*
X0131073Y0093300D02*
X0131073Y0097500D01*
X0138573Y0105000D01*
X0148573Y0105000D01*
X0153573Y0110000D01*
X0153573Y0130000D01*
X0148573Y0135000D01*
X0123856Y0135000D01*
X0123573Y0135283D01*
X0121073Y0146700D02*
X0121073Y0162975D01*
X0115373Y0168675D01*
X0115373Y0191325D01*
X0122247Y0198200D01*
X0126773Y0198200D01*
X0132573Y0204000D01*
X0132573Y0205000D01*
X0132573Y0195000D02*
X0142573Y0205000D01*
X0152573Y0205000D02*
X0152573Y0204000D01*
X0138573Y0190000D01*
X0138573Y0170000D01*
X0158573Y0150000D01*
X0158573Y0105000D01*
X0153573Y0100000D01*
X0138098Y0100000D01*
X0136073Y0097975D01*
X0136073Y0093300D01*
X0126073Y0082500D02*
X0123573Y0080000D01*
X0163573Y0100000D02*
X0163573Y0150000D01*
X0143573Y0170000D01*
X0143573Y0186000D01*
X0162573Y0205000D01*
X0132573Y0195000D02*
X0123573Y0195000D01*
X0118573Y0190000D01*
X0118573Y0170000D01*
X0131073Y0157500D01*
X0131073Y0146700D01*
X0113573Y0160000D02*
X0113573Y0165949D01*
X0112173Y0167349D01*
X0112173Y0175000D01*
X0102573Y0184600D01*
X0102573Y0205000D01*
X0099373Y0198200D02*
X0099373Y0183275D01*
X0108573Y0174075D01*
X0108573Y0155000D01*
X0074073Y0122740D02*
X0071919Y0123346D01*
X0068573Y0120000D01*
X0068573Y0105000D01*
X0065226Y0101654D01*
X0063073Y0101260D01*
X0060226Y0101654D01*
X0058573Y0100000D01*
X0058573Y0089917D01*
X0099373Y0198200D02*
X0092573Y0205000D01*
X0253573Y0048189D02*
X0253573Y0040000D01*
X0254939Y0041000D01*
X0262707Y0034213D02*
X0263573Y0033740D01*
X0263573Y0026260D02*
X0268573Y0021654D01*
X0268573Y0015000D01*
D39*
X0253573Y0071811D02*
X0255073Y0073311D01*
X0255073Y0080000D01*
X0167373Y0098426D02*
X0167373Y0151574D01*
X0158960Y0159987D01*
X0158960Y0160387D01*
X0141073Y0161035D02*
X0140290Y0160253D01*
X0140200Y0160253D01*
X0137226Y0157279D01*
X0137226Y0154500D01*
X0137226Y0156779D01*
X0116073Y0146900D02*
X0116073Y0137500D01*
X0113573Y0135000D01*
X0068573Y0135000D01*
X0063573Y0140000D01*
X0063573Y0130000D02*
X0078573Y0130000D01*
X0084073Y0124500D01*
X0084073Y0112925D01*
X0092397Y0104600D01*
X0113973Y0104600D01*
X0116073Y0102500D01*
X0116073Y0093300D01*
X0111073Y0093300D02*
X0110123Y0094250D01*
X0110123Y0097960D01*
X0108069Y0100014D01*
X0072721Y0100014D01*
X0067707Y0095000D01*
X0063573Y0095000D01*
X0088573Y0090000D02*
X0088573Y0085902D01*
X0157333Y0088386D02*
X0157333Y0083000D01*
X0157333Y0075000D01*
X0157333Y0088386D02*
X0167373Y0098426D01*
X0111073Y0142500D02*
X0108573Y0140000D01*
X0093573Y0140000D01*
X0083573Y0150000D01*
X0083573Y0160000D01*
X0068573Y0175000D01*
X0111073Y0146700D02*
X0111073Y0142500D01*
X0161073Y0026260D02*
X0161073Y0024488D01*
X0161073Y0025000D01*
D40*
X0053573Y0112500D03*
X0053573Y0157500D03*
X0148573Y0185000D03*
X0153573Y0180000D03*
D41*
X0043573Y0105000D02*
X0043573Y0090000D01*
X0056073Y0077500D01*
X0081073Y0077500D01*
X0082173Y0076800D02*
X0083923Y0075050D01*
X0096898Y0075050D01*
X0108623Y0075050D01*
X0083973Y0075000D02*
X0083923Y0075050D01*
X0043573Y0105000D02*
X0036152Y0112421D01*
X0031073Y0112421D01*
D42*
X0109573Y0075500D02*
X0119573Y0085500D01*
D43*
X0126073Y0146700D02*
X0126073Y0155000D01*
X0126790Y0155000D01*
X0153573Y0180000D02*
X0168573Y0180000D01*
X0173573Y0175000D01*
X0173573Y0185000D02*
X0173573Y0204000D01*
X0172573Y0205000D01*
X0182573Y0205000D02*
X0183573Y0204000D01*
X0183573Y0185000D01*
X0193573Y0185000D02*
X0193573Y0200000D01*
X0198573Y0205000D01*
X0208573Y0205000D02*
X0198541Y0194969D01*
X0198541Y0182942D01*
X0193573Y0177973D01*
X0193573Y0175000D01*
X0203573Y0175000D02*
X0203573Y0177973D01*
X0208541Y0182942D01*
X0208541Y0186995D01*
X0211515Y0189969D01*
X0213541Y0189969D01*
X0228573Y0205000D01*
X0218573Y0205000D02*
X0218573Y0200986D01*
X0205741Y0188155D01*
X0205741Y0187169D01*
X0203573Y0185000D01*
D44*
X0055148Y0045925D02*
X0033573Y0067500D01*
X0031073Y0082500D02*
X0031073Y0100000D01*
X0055148Y0045925D02*
X0055148Y0040394D01*
X0055148Y0043425D01*
M02*
