G75*
%MOIN*%
%OFA0B0*%
%FSLAX25Y25*%
%IPPOS*%
%LPD*%
%AMOC8*
5,1,8,0,0,1.08239X$1,22.5*
%
%ADD10C,0.00300*%
%ADD11C,0.00800*%
%ADD12C,0.01000*%
%ADD13C,0.02000*%
D10*
X0052373Y0200150D02*
X0052373Y0200767D01*
X0049905Y0203236D01*
X0049905Y0203853D01*
X0052373Y0203853D01*
X0052373Y0206150D02*
X0049905Y0206150D01*
X0051139Y0206150D02*
X0051139Y0209853D01*
X0052373Y0208619D01*
X0053588Y0209853D02*
X0056057Y0209853D01*
X0057271Y0209853D02*
X0057271Y0206767D01*
X0057888Y0206150D01*
X0059123Y0206150D01*
X0059740Y0206767D01*
X0059740Y0209853D01*
X0060954Y0209236D02*
X0061571Y0209853D01*
X0062806Y0209853D01*
X0063423Y0209236D01*
X0063423Y0206767D01*
X0062806Y0206150D01*
X0061571Y0206150D01*
X0060954Y0206767D01*
X0061571Y0203853D02*
X0060954Y0203236D01*
X0060954Y0202619D01*
X0061571Y0202002D01*
X0062806Y0202002D01*
X0063423Y0202619D01*
X0063423Y0203236D01*
X0062806Y0203853D01*
X0061571Y0203853D01*
X0061571Y0202002D02*
X0060954Y0201384D01*
X0060954Y0200767D01*
X0061571Y0200150D01*
X0062806Y0200150D01*
X0063423Y0200767D01*
X0063423Y0201384D01*
X0062806Y0202002D01*
X0059740Y0202002D02*
X0057271Y0202002D01*
X0056057Y0202619D02*
X0054822Y0203853D01*
X0054822Y0200150D01*
X0053588Y0200150D02*
X0056057Y0200150D01*
X0054822Y0206150D02*
X0054822Y0209853D01*
X0048690Y0208002D02*
X0046221Y0208002D01*
X0045007Y0207384D02*
X0043773Y0206150D01*
X0042538Y0207384D01*
X0042538Y0209853D01*
X0041324Y0208619D02*
X0040090Y0209853D01*
X0040090Y0206150D01*
X0041324Y0206150D02*
X0038855Y0206150D01*
X0037641Y0206150D02*
X0037024Y0206150D01*
X0037024Y0206767D01*
X0037641Y0206767D01*
X0037641Y0206150D01*
X0035799Y0206767D02*
X0033330Y0209236D01*
X0033330Y0206767D01*
X0033948Y0206150D01*
X0035182Y0206150D01*
X0035799Y0206767D01*
X0035799Y0209236D01*
X0035182Y0209853D01*
X0033948Y0209853D01*
X0033330Y0209236D01*
X0045007Y0209853D02*
X0045007Y0207384D01*
D11*
X0189907Y0080563D02*
X0194238Y0080563D01*
X0194238Y0088437D02*
X0189907Y0088437D01*
X0196907Y0137063D02*
X0201238Y0137063D01*
X0201238Y0144937D02*
X0196907Y0144937D01*
D12*
X0240699Y0053169D02*
X0240699Y0036831D01*
X0256447Y0036831D01*
X0256447Y0053169D01*
X0240699Y0053169D01*
D13*
X0253573Y0039000D03*
M02*
