G75*
%MOIN*%
%OFA0B0*%
%FSLAX25Y25*%
%IPPOS*%
%LPD*%
%AMOC8*
5,1,8,0,0,1.08239X$1,22.5*
%
%ADD10C,0.00000*%
%ADD11R,0.06299X0.10630*%
%ADD12R,0.10630X0.06299*%
%ADD13R,0.03937X0.04331*%
%ADD14R,0.04134X0.04252*%
%ADD15C,0.04000*%
%ADD16R,0.02500X0.07000*%
%ADD17R,0.02500X0.06500*%
%ADD18R,0.38600X0.24400*%
%ADD19R,0.12000X0.11500*%
%ADD20R,0.07900X0.05900*%
%ADD21R,0.07900X0.15000*%
%ADD22C,0.05600*%
%ADD23R,0.03150X0.04724*%
%ADD24R,0.04724X0.04724*%
%ADD25R,0.06299X0.07098*%
%ADD26R,0.04331X0.03937*%
%ADD27R,0.07098X0.06299*%
%ADD28C,0.05200*%
%ADD29C,0.06000*%
%ADD30OC8,0.06600*%
%ADD31R,0.05000X0.10000*%
%ADD32C,0.05937*%
%ADD33C,0.05937*%
%ADD34C,0.18898*%
%ADD35C,0.05000*%
%ADD36C,0.04000*%
%ADD37C,0.03765*%
%ADD38C,0.02400*%
%ADD39C,0.02000*%
%ADD40C,0.03200*%
%ADD41C,0.01600*%
%ADD42C,0.04159*%
%ADD43C,0.07500*%
D10*
X0018573Y0005000D02*
X0018573Y0215000D01*
X0272573Y0215000D01*
X0278573Y0209000D01*
X0278573Y0164000D01*
X0288573Y0154000D01*
X0288573Y0025000D01*
X0278573Y0015000D01*
X0278573Y0005000D01*
X0018573Y0005000D01*
X0018073Y0215961D01*
X0288774Y0215461D01*
X0289274Y0004500D01*
X0018573Y0005000D01*
D11*
X0098061Y0045000D03*
X0109085Y0045000D03*
D12*
X0133573Y0035512D03*
X0133573Y0024488D03*
X0148573Y0024488D03*
X0148573Y0035512D03*
X0073573Y0040512D03*
X0073573Y0029488D03*
D13*
X0031919Y0065000D03*
X0025226Y0065000D03*
X0158726Y0075000D03*
X0165419Y0075000D03*
X0165419Y0083500D03*
X0158726Y0083500D03*
X0163573Y0033346D03*
X0163573Y0026654D03*
X0276726Y0130000D03*
X0283419Y0130000D03*
D14*
X0143518Y0154000D03*
X0136628Y0154000D03*
D15*
X0188573Y0160000D03*
X0078573Y0090000D03*
X0033573Y0165000D03*
D16*
X0096073Y0146700D03*
X0101073Y0146700D03*
X0106073Y0146700D03*
X0111073Y0146700D03*
X0121073Y0146700D03*
X0126073Y0146700D03*
X0131073Y0146700D03*
X0136073Y0146700D03*
X0141073Y0146700D03*
X0141073Y0093300D03*
X0136073Y0093300D03*
X0131073Y0093300D03*
X0126073Y0093300D03*
X0121073Y0093300D03*
X0116073Y0093300D03*
X0111073Y0093300D03*
X0106073Y0093300D03*
X0101073Y0093300D03*
X0096073Y0093300D03*
D17*
X0116073Y0146900D03*
D18*
X0118573Y0120000D03*
D19*
X0143873Y0120000D03*
X0093273Y0120000D03*
D20*
X0071173Y0068900D03*
X0071173Y0059900D03*
X0071173Y0050900D03*
D21*
X0095973Y0060000D03*
D22*
X0225773Y0055000D02*
X0231373Y0055000D01*
X0231373Y0065000D02*
X0225773Y0065000D01*
X0225773Y0075000D02*
X0231373Y0075000D01*
D23*
X0243573Y0071811D03*
X0253573Y0071811D03*
X0253573Y0048189D03*
X0243573Y0048189D03*
D24*
X0236073Y0046134D03*
X0236073Y0037866D03*
X0254439Y0040000D03*
X0262707Y0040000D03*
X0073573Y0100866D03*
X0073573Y0109134D03*
X0063573Y0115866D03*
X0063573Y0124134D03*
X0063573Y0145866D03*
X0063573Y0154134D03*
X0073573Y0160866D03*
X0073573Y0169134D03*
X0047707Y0065000D03*
X0039439Y0065000D03*
D25*
X0089974Y0084500D03*
X0101171Y0084500D03*
D26*
X0131073Y0085846D03*
X0131073Y0079154D03*
X0073573Y0116654D03*
X0073573Y0123346D03*
X0063573Y0108346D03*
X0063573Y0101654D03*
X0073573Y0146654D03*
X0073573Y0153346D03*
X0063573Y0161654D03*
X0063573Y0168346D03*
X0243573Y0033346D03*
X0243573Y0026654D03*
X0253573Y0026654D03*
X0253573Y0033346D03*
X0263573Y0033346D03*
X0263573Y0026654D03*
D27*
X0101073Y0156902D03*
X0101073Y0168098D03*
D28*
X0125973Y0170000D02*
X0131173Y0170000D01*
X0131173Y0180000D02*
X0125973Y0180000D01*
X0125973Y0190000D02*
X0131173Y0190000D01*
D29*
X0180573Y0144921D02*
X0186573Y0144921D01*
X0186573Y0135079D02*
X0180573Y0135079D01*
X0220573Y0135079D02*
X0226573Y0135079D01*
X0226573Y0144921D02*
X0220573Y0144921D01*
X0255573Y0140157D02*
X0261573Y0140157D01*
X0261573Y0150000D02*
X0255573Y0150000D01*
X0255573Y0159843D02*
X0261573Y0159843D01*
X0258730Y0113000D02*
X0258730Y0107000D01*
X0268573Y0107000D02*
X0268573Y0113000D01*
X0278415Y0113000D02*
X0278415Y0107000D01*
X0226573Y0104921D02*
X0220573Y0104921D01*
X0220573Y0095079D02*
X0226573Y0095079D01*
X0186573Y0095079D02*
X0180573Y0095079D01*
X0180573Y0104921D02*
X0186573Y0104921D01*
X0186573Y0064921D02*
X0180573Y0064921D01*
X0180573Y0055079D02*
X0186573Y0055079D01*
X0148415Y0058000D02*
X0148415Y0052000D01*
X0138573Y0052000D02*
X0138573Y0058000D01*
X0128730Y0058000D02*
X0128730Y0052000D01*
X0119373Y0033900D02*
X0113373Y0033900D01*
X0093773Y0033900D02*
X0087773Y0033900D01*
X0087773Y0016100D02*
X0093773Y0016100D01*
X0113373Y0016100D02*
X0119373Y0016100D01*
X0031573Y0085079D02*
X0025573Y0085079D01*
X0025573Y0094921D02*
X0031573Y0094921D01*
D30*
X0128573Y0015000D03*
X0138573Y0015000D03*
X0148573Y0015000D03*
X0158573Y0015000D03*
X0168573Y0015000D03*
X0178573Y0015000D03*
X0188573Y0015000D03*
X0198573Y0015000D03*
X0218573Y0015000D03*
X0228573Y0015000D03*
X0238573Y0015000D03*
X0248573Y0015000D03*
X0258573Y0015000D03*
X0268573Y0015000D03*
X0268573Y0205000D03*
X0258573Y0205000D03*
X0248573Y0205000D03*
X0238573Y0205000D03*
X0228573Y0205000D03*
X0218573Y0205000D03*
X0208573Y0205000D03*
X0198573Y0205000D03*
X0182573Y0205000D03*
X0172573Y0205000D03*
X0162573Y0205000D03*
X0152573Y0205000D03*
X0142573Y0205000D03*
X0132573Y0205000D03*
X0122573Y0205000D03*
X0112573Y0205000D03*
X0102573Y0205000D03*
X0092573Y0205000D03*
D31*
X0173573Y0030000D03*
X0183573Y0030000D03*
D32*
X0183573Y0175000D03*
X0193573Y0175000D03*
X0203573Y0175000D03*
X0213573Y0175000D03*
X0223573Y0175000D03*
X0223573Y0185000D03*
X0213573Y0185000D03*
X0203573Y0185000D03*
X0193573Y0185000D03*
X0183573Y0185000D03*
X0173573Y0185000D03*
X0163573Y0185000D03*
X0163573Y0175000D03*
X0173573Y0175000D03*
D33*
X0275604Y0085000D02*
X0281541Y0085000D01*
X0281541Y0075000D02*
X0275604Y0075000D01*
X0275604Y0060000D02*
X0281541Y0060000D01*
X0281541Y0050000D02*
X0275604Y0050000D01*
X0036541Y0120000D02*
X0030604Y0120000D01*
X0030604Y0130000D02*
X0036541Y0130000D01*
X0036541Y0140000D02*
X0030604Y0140000D01*
X0030604Y0150000D02*
X0036541Y0150000D01*
D34*
X0031919Y0040394D03*
X0043337Y0021890D03*
X0055148Y0040394D03*
D35*
X0055266Y0040512D01*
X0057353Y0040512D01*
X0067741Y0050900D01*
X0071173Y0050900D01*
X0073573Y0040512D02*
X0057353Y0040512D01*
X0068061Y0029488D02*
X0058573Y0020000D01*
X0043337Y0020000D01*
X0043337Y0021890D01*
X0068061Y0029488D02*
X0073573Y0029488D01*
X0096898Y0075000D02*
X0108573Y0075000D01*
X0121123Y0087550D01*
X0121123Y0090000D01*
X0096898Y0075050D02*
X0096898Y0075000D01*
X0053573Y0110000D02*
X0053573Y0112500D01*
X0053573Y0157500D01*
X0053573Y0110000D02*
X0038573Y0095000D01*
D36*
X0033494Y0085079D02*
X0033573Y0085000D01*
X0063573Y0065000D02*
X0067473Y0068900D01*
X0071173Y0068900D01*
X0071173Y0059900D02*
X0078673Y0059900D01*
X0093573Y0045000D01*
X0098061Y0045000D01*
X0098061Y0040444D02*
X0110805Y0027700D01*
X0110873Y0027700D01*
X0113573Y0025000D01*
X0123573Y0025000D01*
X0148061Y0025000D01*
X0148573Y0024488D01*
X0163844Y0024488D01*
X0168061Y0024488D01*
X0173573Y0030000D01*
X0173573Y0035000D01*
X0178573Y0040000D01*
X0183573Y0040000D01*
X0173573Y0045000D02*
X0126948Y0045000D01*
X0096898Y0075050D01*
X0109085Y0045000D02*
X0109085Y0041188D01*
X0114761Y0035512D01*
X0148573Y0035512D01*
X0161407Y0035512D01*
X0163573Y0033346D01*
X0183573Y0030000D02*
X0198573Y0015000D01*
X0218573Y0055000D02*
X0218573Y0070000D01*
X0223573Y0075000D01*
X0228573Y0075000D01*
X0228573Y0065000D02*
X0256082Y0065000D01*
X0276082Y0085000D01*
X0278573Y0085000D01*
X0268573Y0100688D02*
X0248798Y0080913D01*
X0248798Y0075225D01*
X0248573Y0075000D01*
X0248573Y0100248D01*
X0238573Y0110248D01*
X0238573Y0130000D01*
X0238573Y0138777D01*
X0249795Y0150000D01*
X0258573Y0150000D01*
X0223573Y0165000D02*
X0213573Y0175000D01*
X0203045Y0164472D01*
X0203045Y0160528D01*
X0268573Y0110000D02*
X0268573Y0100688D01*
X0273573Y0065000D02*
X0256082Y0065000D01*
X0273573Y0065000D02*
X0278573Y0060000D01*
X0148573Y0095000D02*
X0146873Y0093300D01*
X0141073Y0093300D01*
X0114761Y0035512D02*
X0116373Y0033900D01*
D37*
X0123573Y0025000D03*
X0173573Y0045000D03*
X0183573Y0040000D03*
X0218573Y0055000D03*
X0228573Y0045000D03*
X0248573Y0045000D03*
X0248573Y0075000D03*
X0241073Y0077500D03*
X0255073Y0080000D03*
X0238573Y0110248D03*
X0213573Y0110000D03*
X0196073Y0093500D03*
X0203573Y0085000D03*
X0196073Y0076500D03*
X0148573Y0095000D03*
X0138573Y0080000D03*
X0123573Y0080000D03*
X0088573Y0090000D03*
X0063573Y0095000D03*
X0058573Y0089917D03*
X0063573Y0065000D03*
X0143573Y0120000D03*
X0123573Y0135283D03*
X0148573Y0150000D03*
X0143186Y0159613D03*
X0126790Y0155000D03*
X0113573Y0160000D03*
X0108573Y0155000D03*
X0093573Y0170000D03*
X0068573Y0175000D03*
X0063573Y0180583D03*
X0063573Y0140000D03*
X0073573Y0140000D03*
X0063573Y0130000D03*
X0158960Y0160387D03*
X0203045Y0160528D03*
X0203573Y0155000D03*
X0203573Y0145000D03*
X0208573Y0135000D03*
X0238573Y0130000D03*
X0223573Y0165000D03*
D38*
X0227173Y0158600D02*
X0238573Y0170000D01*
X0238573Y0205000D01*
X0248573Y0205000D02*
X0248573Y0170000D01*
X0233573Y0155000D01*
X0213573Y0155000D01*
X0203573Y0145000D01*
X0203573Y0155000D02*
X0208482Y0155000D01*
X0212082Y0158600D01*
X0227173Y0158600D01*
X0223573Y0144921D02*
X0238494Y0144921D01*
X0253573Y0160000D01*
X0257085Y0160000D01*
X0258573Y0161488D01*
X0258573Y0205000D01*
X0268573Y0205000D02*
X0268573Y0155000D01*
X0266973Y0153400D01*
X0266973Y0137921D01*
X0258730Y0129678D01*
X0258730Y0110000D01*
X0241073Y0077500D02*
X0243573Y0075000D01*
X0243573Y0071811D01*
X0253573Y0048189D02*
X0250384Y0045000D01*
X0248573Y0045000D01*
X0240707Y0037866D02*
X0243573Y0035000D01*
X0243573Y0033346D01*
X0240707Y0037866D02*
X0236073Y0037866D01*
X0234939Y0045000D02*
X0228573Y0045000D01*
X0234939Y0045000D02*
X0236073Y0046134D01*
X0213573Y0048061D02*
X0246634Y0015000D01*
X0248573Y0015000D01*
X0238573Y0015000D02*
X0200356Y0053217D01*
X0200356Y0078274D01*
X0196073Y0082557D01*
X0196073Y0093500D01*
X0183573Y0104921D02*
X0183494Y0105000D01*
X0178573Y0105000D01*
X0173573Y0100000D01*
X0173573Y0091654D01*
X0165419Y0083500D01*
X0165419Y0075000D02*
X0173573Y0075000D01*
X0183573Y0065000D01*
X0178015Y0050000D02*
X0153573Y0050000D01*
X0148573Y0055000D01*
X0148415Y0055000D01*
X0138573Y0055000D02*
X0138573Y0060000D01*
X0131073Y0067500D01*
X0131073Y0079154D01*
X0131073Y0085846D02*
X0131073Y0093300D01*
X0121073Y0093300D02*
X0121073Y0090000D01*
X0101073Y0093300D02*
X0101073Y0084598D01*
X0101171Y0084500D01*
X0089974Y0084500D02*
X0088573Y0085902D01*
X0088573Y0090000D02*
X0091873Y0093300D01*
X0096073Y0093300D01*
X0073573Y0100866D02*
X0072721Y0100014D01*
X0063573Y0108346D02*
X0063573Y0115866D01*
X0073573Y0116654D02*
X0073573Y0109134D01*
X0063573Y0124134D02*
X0063573Y0130000D01*
X0063573Y0140000D02*
X0063573Y0145866D01*
X0063573Y0154134D02*
X0063573Y0161654D01*
X0063573Y0168346D02*
X0063573Y0180583D01*
X0068573Y0175000D02*
X0073573Y0170000D01*
X0073573Y0169134D01*
X0073573Y0160866D02*
X0073573Y0153346D01*
X0073573Y0146654D02*
X0073573Y0140000D01*
X0093573Y0149200D02*
X0093573Y0170000D01*
X0095474Y0168098D01*
X0101073Y0168098D01*
X0101073Y0156902D02*
X0101073Y0146700D01*
X0096073Y0146700D02*
X0093573Y0149200D01*
X0093273Y0120000D02*
X0139290Y0120000D01*
X0118573Y0120000D01*
X0136073Y0146700D02*
X0136628Y0147255D01*
X0136628Y0154000D01*
X0143518Y0154000D02*
X0143518Y0149145D01*
X0141073Y0146700D01*
X0144373Y0150000D01*
X0148573Y0150000D01*
X0148573Y0185000D02*
X0163573Y0185000D01*
X0257085Y0160000D02*
X0258573Y0160000D01*
X0213573Y0110000D02*
X0213573Y0048061D01*
X0196073Y0047500D02*
X0196073Y0076500D01*
X0178015Y0050000D02*
X0178336Y0049679D01*
X0183894Y0049679D01*
X0218573Y0015000D01*
X0228573Y0015000D02*
X0196073Y0047500D01*
X0163844Y0026383D02*
X0163844Y0024488D01*
X0163844Y0026383D02*
X0163573Y0026654D01*
X0168573Y0015000D02*
X0161773Y0008200D01*
X0145373Y0008200D01*
X0138573Y0015000D01*
X0133573Y0024488D02*
X0124085Y0024488D01*
X0123573Y0025000D01*
X0098061Y0040444D02*
X0098061Y0045000D01*
X0138573Y0060000D02*
X0153573Y0075000D01*
X0158726Y0075000D01*
X0243573Y0026654D02*
X0253573Y0026654D01*
X0258573Y0021654D01*
X0258573Y0015000D01*
X0051073Y0067500D02*
X0047707Y0065000D01*
X0025226Y0065000D02*
X0025226Y0047087D01*
X0031919Y0040394D01*
D39*
X0031919Y0065000D02*
X0039439Y0065000D01*
X0058573Y0089917D02*
X0058573Y0100000D01*
X0060226Y0101654D01*
X0063573Y0101654D01*
X0065226Y0101654D01*
X0068573Y0105000D01*
X0068573Y0120000D01*
X0071919Y0123346D01*
X0073573Y0123346D01*
X0108573Y0155000D02*
X0108573Y0174075D01*
X0099373Y0183275D01*
X0099373Y0198200D01*
X0092573Y0205000D01*
X0102573Y0205000D02*
X0102573Y0184600D01*
X0112173Y0175000D01*
X0112173Y0167349D01*
X0113573Y0165949D01*
X0113573Y0160000D01*
X0121073Y0162975D02*
X0115373Y0168675D01*
X0115373Y0191325D01*
X0122247Y0198200D01*
X0126773Y0198200D01*
X0132573Y0204000D01*
X0132573Y0205000D01*
X0132573Y0195000D02*
X0142573Y0205000D01*
X0152573Y0205000D02*
X0152573Y0204000D01*
X0138573Y0190000D01*
X0138573Y0170000D01*
X0158573Y0150000D01*
X0158573Y0105000D01*
X0153573Y0100000D01*
X0138098Y0100000D01*
X0136073Y0097975D01*
X0136073Y0093300D01*
X0131073Y0093300D02*
X0131073Y0097500D01*
X0138573Y0105000D01*
X0148573Y0105000D01*
X0153573Y0110000D01*
X0153573Y0130000D01*
X0148573Y0135000D01*
X0123856Y0135000D01*
X0123573Y0135283D01*
X0121073Y0146700D02*
X0121073Y0162975D01*
X0118573Y0170000D02*
X0131073Y0157500D01*
X0131073Y0146700D01*
X0143573Y0170000D02*
X0163573Y0150000D01*
X0163573Y0100000D01*
X0143573Y0080000D01*
X0138573Y0080000D01*
X0126073Y0082500D02*
X0126073Y0093300D01*
X0126073Y0082500D02*
X0123573Y0080000D01*
X0203573Y0085000D02*
X0203573Y0145000D01*
X0208573Y0135000D02*
X0213573Y0130000D01*
X0213573Y0110000D01*
X0243573Y0048189D02*
X0243573Y0043030D01*
X0251166Y0035438D01*
X0251481Y0035438D01*
X0253573Y0033346D01*
X0253573Y0040000D02*
X0254439Y0040000D01*
X0253573Y0040000D02*
X0253573Y0048189D01*
X0262707Y0040000D02*
X0262707Y0034213D01*
X0263573Y0033346D01*
X0263573Y0026654D02*
X0268573Y0021654D01*
X0268573Y0015000D01*
X0143573Y0170000D02*
X0143573Y0186000D01*
X0162573Y0205000D01*
X0132573Y0195000D02*
X0123573Y0195000D01*
X0118573Y0190000D01*
X0118573Y0170000D01*
D40*
X0138651Y0157286D02*
X0138651Y0156023D01*
X0136628Y0154000D01*
X0138651Y0157286D02*
X0140978Y0159613D01*
X0143186Y0159613D01*
X0158960Y0159987D02*
X0158960Y0160387D01*
X0158960Y0159987D02*
X0167373Y0151574D01*
X0167373Y0098426D01*
X0158726Y0089780D01*
X0158726Y0083500D01*
X0158726Y0075000D01*
X0116073Y0093300D02*
X0116073Y0102500D01*
X0113973Y0104600D01*
X0092397Y0104600D01*
X0084073Y0112925D01*
X0084073Y0124500D01*
X0078573Y0130000D01*
X0063573Y0130000D01*
X0068573Y0135000D02*
X0063573Y0140000D01*
X0068573Y0135000D02*
X0113573Y0135000D01*
X0116073Y0137500D01*
X0116073Y0146900D01*
X0111073Y0146700D02*
X0111073Y0142500D01*
X0108573Y0140000D01*
X0093573Y0140000D01*
X0083573Y0150000D01*
X0083573Y0160000D01*
X0068573Y0175000D01*
X0072721Y0100014D02*
X0108069Y0100014D01*
X0110123Y0097960D01*
X0110123Y0094250D01*
X0111073Y0093300D01*
X0088573Y0090000D02*
X0088573Y0085902D01*
X0072721Y0100014D02*
X0067707Y0095000D01*
X0063573Y0095000D01*
X0253573Y0071811D02*
X0255073Y0073311D01*
X0255073Y0080000D01*
D41*
X0268573Y0110000D02*
X0268573Y0115000D01*
X0273573Y0120000D01*
X0278573Y0120000D01*
X0283419Y0124846D01*
X0283419Y0130000D01*
X0276726Y0130000D02*
X0274894Y0130000D01*
X0266973Y0137921D01*
X0208541Y0182942D02*
X0208541Y0186995D01*
X0211515Y0189969D01*
X0213541Y0189969D01*
X0228573Y0205000D01*
X0218573Y0205000D02*
X0218573Y0200986D01*
X0205741Y0188155D01*
X0205741Y0187169D01*
X0203573Y0185000D01*
X0198541Y0182942D02*
X0198541Y0194969D01*
X0208573Y0205000D01*
X0198573Y0205000D02*
X0193573Y0200000D01*
X0193573Y0185000D01*
X0198541Y0182942D02*
X0193573Y0177973D01*
X0193573Y0175000D01*
X0203573Y0175000D02*
X0203573Y0177973D01*
X0208541Y0182942D01*
X0183573Y0185000D02*
X0183573Y0204000D01*
X0182573Y0205000D01*
X0173573Y0204000D02*
X0173573Y0185000D01*
X0168573Y0180000D02*
X0173573Y0175000D01*
X0168573Y0180000D02*
X0153573Y0180000D01*
X0135356Y0155272D02*
X0136628Y0154000D01*
X0126790Y0155000D02*
X0126073Y0155000D01*
X0126073Y0146700D01*
X0173573Y0204000D02*
X0172573Y0205000D01*
D42*
X0148573Y0185000D03*
X0153573Y0180000D03*
X0053573Y0157500D03*
X0053573Y0112500D03*
D43*
X0038573Y0095000D02*
X0028652Y0095000D01*
X0028573Y0094921D01*
X0038573Y0095000D02*
X0056773Y0076800D01*
X0082173Y0076800D01*
X0083923Y0075050D01*
X0096898Y0075050D01*
X0083973Y0075000D02*
X0083923Y0075050D01*
X0055148Y0063425D02*
X0051073Y0067500D01*
X0033573Y0085000D01*
X0033494Y0085079D02*
X0028573Y0085079D01*
X0055148Y0063425D02*
X0055148Y0040394D01*
M02*
