G75*
%MOIN*%
%OFA0B0*%
%FSLAX25Y25*%
%IPPOS*%
%LPD*%
%AMOC8*
5,1,8,0,0,1.08239X$1,22.5*
%
%ADD10R,0.04331X0.03937*%
%ADD11R,0.07874X0.07874*%
%ADD12R,0.03500X0.03100*%
%ADD13C,0.05600*%
%ADD14R,0.03150X0.04724*%
%ADD15R,0.03937X0.04331*%
%ADD16R,0.06299X0.05118*%
%ADD17C,0.05200*%
%ADD18C,0.06000*%
%ADD19OC8,0.06600*%
%ADD20C,0.05937*%
%ADD21C,0.05937*%
%ADD22C,0.18898*%
%ADD23C,0.03765*%
%ADD24C,0.02400*%
%ADD25C,0.03200*%
%ADD26C,0.04000*%
%ADD27C,0.01600*%
%ADD28C,0.02000*%
%ADD29C,0.04159*%
%ADD30C,0.05000*%
%ADD31C,0.10000*%
D10*
X0130226Y0040000D03*
X0136919Y0040000D03*
X0196073Y0065154D03*
X0196073Y0071846D03*
X0196073Y0098154D03*
X0196073Y0104846D03*
X0237073Y0138154D03*
X0237073Y0144846D03*
X0213919Y0168000D03*
X0207226Y0168000D03*
X0268573Y0191654D03*
X0268573Y0198346D03*
X0268726Y0120500D03*
X0275419Y0120500D03*
X0263573Y0033346D03*
X0263573Y0026654D03*
D11*
X0096211Y0105000D03*
X0080935Y0105000D03*
X0071211Y0105000D03*
X0055935Y0105000D03*
X0055935Y0120000D03*
X0071211Y0120000D03*
X0080935Y0120000D03*
X0096211Y0120000D03*
X0096211Y0150000D03*
X0096211Y0165000D03*
X0080935Y0165000D03*
X0071211Y0165000D03*
X0055935Y0165000D03*
X0055935Y0150000D03*
X0071211Y0150000D03*
X0080935Y0150000D03*
X0046211Y0060000D03*
X0030935Y0060000D03*
D12*
X0188073Y0084600D03*
X0196073Y0080800D03*
X0196073Y0088400D03*
X0194573Y0136100D03*
X0202573Y0139900D03*
X0194573Y0143700D03*
D13*
X0225773Y0075000D02*
X0231373Y0075000D01*
X0231373Y0065000D02*
X0225773Y0065000D01*
X0225773Y0055000D02*
X0231373Y0055000D01*
D14*
X0243573Y0056811D03*
X0253573Y0056811D03*
X0253573Y0033189D03*
X0243573Y0033189D03*
D15*
X0260226Y0050000D03*
X0266919Y0050000D03*
X0266919Y0060000D03*
X0260226Y0060000D03*
X0261919Y0075000D03*
X0255226Y0075000D03*
X0255226Y0085000D03*
X0261919Y0085000D03*
X0242419Y0105000D03*
X0235726Y0105000D03*
X0223419Y0113500D03*
X0216726Y0113500D03*
X0195419Y0152500D03*
X0188726Y0152500D03*
X0188726Y0160500D03*
X0195419Y0160500D03*
X0138919Y0154000D03*
X0132226Y0154000D03*
D16*
X0211073Y0152240D03*
X0211073Y0144760D03*
D17*
X0131173Y0170000D02*
X0125973Y0170000D01*
X0125973Y0180000D02*
X0131173Y0180000D01*
X0131173Y0190000D02*
X0125973Y0190000D01*
D18*
X0180573Y0144921D02*
X0186573Y0144921D01*
X0186573Y0135079D02*
X0180573Y0135079D01*
X0220573Y0135079D02*
X0226573Y0135079D01*
X0226573Y0144921D02*
X0220573Y0144921D01*
X0255573Y0140157D02*
X0261573Y0140157D01*
X0261573Y0150000D02*
X0255573Y0150000D01*
X0255573Y0159843D02*
X0261573Y0159843D01*
X0258730Y0113000D02*
X0258730Y0107000D01*
X0268573Y0107000D02*
X0268573Y0113000D01*
X0278415Y0113000D02*
X0278415Y0107000D01*
X0226573Y0104921D02*
X0220573Y0104921D01*
X0220573Y0095079D02*
X0226573Y0095079D01*
X0186573Y0095079D02*
X0180573Y0095079D01*
X0180573Y0104921D02*
X0186573Y0104921D01*
X0186573Y0064921D02*
X0180573Y0064921D01*
X0180573Y0055079D02*
X0186573Y0055079D01*
X0148415Y0058000D02*
X0148415Y0052000D01*
X0138573Y0052000D02*
X0138573Y0058000D01*
X0128730Y0058000D02*
X0128730Y0052000D01*
X0119373Y0033900D02*
X0113373Y0033900D01*
X0093773Y0033900D02*
X0087773Y0033900D01*
X0087773Y0016100D02*
X0093773Y0016100D01*
X0113373Y0016100D02*
X0119373Y0016100D01*
X0031573Y0085079D02*
X0025573Y0085079D01*
X0025573Y0094921D02*
X0031573Y0094921D01*
D19*
X0128573Y0015000D03*
X0138573Y0015000D03*
X0148573Y0015000D03*
X0158573Y0015000D03*
X0168573Y0015000D03*
X0178573Y0015000D03*
X0188573Y0015000D03*
X0198573Y0015000D03*
X0218573Y0015000D03*
X0228573Y0015000D03*
X0238573Y0015000D03*
X0248573Y0015000D03*
X0258573Y0015000D03*
X0268573Y0015000D03*
X0268573Y0205000D03*
X0258573Y0205000D03*
X0248573Y0205000D03*
X0238573Y0205000D03*
X0228573Y0205000D03*
X0218573Y0205000D03*
X0208573Y0205000D03*
X0198573Y0205000D03*
X0182573Y0205000D03*
X0172573Y0205000D03*
X0162573Y0205000D03*
X0152573Y0205000D03*
X0142573Y0205000D03*
X0132573Y0205000D03*
X0122573Y0205000D03*
X0112573Y0205000D03*
X0102573Y0205000D03*
X0092573Y0205000D03*
D20*
X0163573Y0185000D03*
X0173573Y0185000D03*
X0183573Y0185000D03*
X0193573Y0185000D03*
X0203573Y0185000D03*
X0213573Y0185000D03*
X0223573Y0185000D03*
X0223573Y0175000D03*
X0213573Y0175000D03*
X0203573Y0175000D03*
X0193573Y0175000D03*
X0183573Y0175000D03*
X0173573Y0175000D03*
X0163573Y0175000D03*
D21*
X0275604Y0085000D02*
X0281541Y0085000D01*
X0281541Y0075000D02*
X0275604Y0075000D01*
X0275604Y0060000D02*
X0281541Y0060000D01*
X0281541Y0050000D02*
X0275604Y0050000D01*
X0036541Y0120000D02*
X0030604Y0120000D01*
X0030604Y0130000D02*
X0036541Y0130000D01*
X0036541Y0140000D02*
X0030604Y0140000D01*
X0030604Y0150000D02*
X0036541Y0150000D01*
D22*
X0031919Y0040394D03*
X0043337Y0021890D03*
X0055148Y0040394D03*
D23*
X0063573Y0065000D03*
X0058573Y0089917D03*
X0063573Y0095000D03*
X0088573Y0090000D03*
X0123573Y0080000D03*
X0138573Y0080000D03*
X0148573Y0095000D03*
X0143573Y0120000D03*
X0123573Y0135283D03*
X0148573Y0150000D03*
X0143186Y0159613D03*
X0126790Y0155000D03*
X0113573Y0160000D03*
X0108573Y0155000D03*
X0093573Y0170000D03*
X0068573Y0175000D03*
X0063573Y0180583D03*
X0063573Y0140000D03*
X0073573Y0140000D03*
X0063573Y0130000D03*
X0158960Y0160387D03*
X0203045Y0160528D03*
X0203573Y0155000D03*
X0203573Y0145000D03*
X0208573Y0135000D03*
X0238573Y0130000D03*
X0238573Y0110248D03*
X0213573Y0110000D03*
X0196073Y0093500D03*
X0203573Y0085000D03*
X0196073Y0076500D03*
X0218573Y0055000D03*
X0228573Y0045000D03*
X0248573Y0045000D03*
X0248573Y0075000D03*
X0241073Y0077500D03*
X0255073Y0080000D03*
X0183573Y0040000D03*
X0173573Y0045000D03*
X0123573Y0025000D03*
X0223573Y0165000D03*
D24*
X0021773Y0034271D02*
X0021773Y0008200D01*
X0119716Y0008200D01*
X0117616Y0010300D01*
X0112219Y0010300D01*
X0110087Y0011183D01*
X0109170Y0012100D01*
X0097975Y0012100D01*
X0097058Y0011183D01*
X0094927Y0010300D01*
X0086619Y0010300D01*
X0084487Y0011183D01*
X0082856Y0012815D01*
X0081973Y0014946D01*
X0081973Y0017254D01*
X0082856Y0019385D01*
X0084487Y0021017D01*
X0086619Y0021900D01*
X0094927Y0021900D01*
X0097058Y0021017D01*
X0097975Y0020100D01*
X0109170Y0020100D01*
X0110087Y0021017D01*
X0112219Y0021900D01*
X0120051Y0021900D01*
X0119603Y0022347D01*
X0118890Y0024069D01*
X0118890Y0025931D01*
X0119603Y0027653D01*
X0120573Y0028623D01*
X0119798Y0028500D01*
X0116373Y0028500D01*
X0116373Y0033900D01*
X0124773Y0033900D01*
X0124773Y0034325D01*
X0124640Y0035165D01*
X0124377Y0035973D01*
X0123991Y0036730D01*
X0123492Y0037418D01*
X0122891Y0038019D01*
X0122203Y0038518D01*
X0121446Y0038904D01*
X0120637Y0039167D01*
X0119798Y0039300D01*
X0116373Y0039300D01*
X0116373Y0033900D01*
X0116373Y0033900D01*
X0124773Y0033900D01*
X0124773Y0033475D01*
X0124640Y0032635D01*
X0124377Y0031827D01*
X0123997Y0031081D01*
X0128547Y0035631D01*
X0127825Y0035631D01*
X0127361Y0035724D01*
X0126924Y0035905D01*
X0126531Y0036167D01*
X0126197Y0036502D01*
X0125934Y0036895D01*
X0125753Y0037331D01*
X0125661Y0037795D01*
X0125661Y0040000D01*
X0130226Y0040000D01*
X0125661Y0040000D01*
X0125661Y0042205D01*
X0125753Y0042669D01*
X0125934Y0043105D01*
X0126197Y0043498D01*
X0126531Y0043833D01*
X0126924Y0044095D01*
X0127361Y0044276D01*
X0127825Y0044368D01*
X0130226Y0044368D01*
X0130226Y0040000D01*
X0130226Y0040000D01*
X0130226Y0040000D01*
X0130226Y0044368D01*
X0132628Y0044368D01*
X0132919Y0044311D01*
X0132919Y0048579D01*
X0132849Y0048482D01*
X0132248Y0047881D01*
X0131561Y0047382D01*
X0130803Y0046996D01*
X0129995Y0046733D01*
X0129155Y0046600D01*
X0128730Y0046600D01*
X0128730Y0055000D01*
X0128730Y0055000D01*
X0123330Y0055000D01*
X0123330Y0058425D01*
X0123463Y0059265D01*
X0123726Y0060073D01*
X0124112Y0060830D01*
X0124611Y0061518D01*
X0125212Y0062119D01*
X0125900Y0062618D01*
X0126657Y0063004D01*
X0127466Y0063267D01*
X0128305Y0063400D01*
X0128730Y0063400D01*
X0128730Y0055000D01*
X0123330Y0055000D01*
X0123330Y0051575D01*
X0123463Y0050735D01*
X0123726Y0049927D01*
X0124112Y0049170D01*
X0124611Y0048482D01*
X0125212Y0047881D01*
X0125900Y0047382D01*
X0126657Y0046996D01*
X0127466Y0046733D01*
X0128305Y0046600D01*
X0128730Y0046600D01*
X0128730Y0055000D01*
X0128730Y0055000D01*
X0128730Y0055000D01*
X0130226Y0053504D01*
X0128730Y0052970D02*
X0128730Y0052970D01*
X0128730Y0055000D02*
X0128730Y0063400D01*
X0129155Y0063400D01*
X0129995Y0063267D01*
X0130803Y0063004D01*
X0131561Y0062618D01*
X0132248Y0062119D01*
X0132849Y0061518D01*
X0133349Y0060830D01*
X0133414Y0060702D01*
X0133656Y0061285D01*
X0135287Y0062917D01*
X0137419Y0063800D01*
X0139727Y0063800D01*
X0141858Y0062917D01*
X0143490Y0061285D01*
X0143494Y0061275D01*
X0143498Y0061285D01*
X0145130Y0062917D01*
X0147262Y0063800D01*
X0149569Y0063800D01*
X0151701Y0062917D01*
X0153332Y0061285D01*
X0154215Y0059154D01*
X0154215Y0050846D01*
X0153332Y0048715D01*
X0151701Y0047083D01*
X0149569Y0046200D01*
X0147262Y0046200D01*
X0145130Y0047083D01*
X0143498Y0048715D01*
X0143494Y0048725D01*
X0143490Y0048715D01*
X0141858Y0047083D01*
X0140919Y0046694D01*
X0140919Y0044094D01*
X0141458Y0043555D01*
X0141885Y0042525D01*
X0141885Y0037475D01*
X0141458Y0036445D01*
X0140671Y0035658D01*
X0139642Y0035231D01*
X0139461Y0035231D01*
X0139185Y0034955D01*
X0139185Y0034955D01*
X0128225Y0023996D01*
X0127543Y0022347D01*
X0126295Y0021100D01*
X0131100Y0021100D01*
X0133573Y0018627D01*
X0136046Y0021100D01*
X0141100Y0021100D01*
X0143573Y0018627D01*
X0146046Y0021100D01*
X0151100Y0021100D01*
X0153573Y0018627D01*
X0156046Y0021100D01*
X0161100Y0021100D01*
X0163573Y0018627D01*
X0166046Y0021100D01*
X0171100Y0021100D01*
X0173856Y0018344D01*
X0176212Y0020700D01*
X0178573Y0020700D01*
X0178573Y0015000D01*
X0184273Y0015000D01*
X0188573Y0015000D01*
X0188573Y0015000D01*
X0188573Y0020700D01*
X0190934Y0020700D01*
X0193290Y0018344D01*
X0196046Y0021100D01*
X0201100Y0021100D01*
X0204673Y0017527D01*
X0204673Y0012473D01*
X0201100Y0008900D01*
X0196046Y0008900D01*
X0193290Y0011656D01*
X0190934Y0009300D01*
X0188573Y0009300D01*
X0188573Y0015000D01*
X0188573Y0015000D01*
X0188573Y0020700D01*
X0186212Y0020700D01*
X0183573Y0018061D01*
X0180934Y0020700D01*
X0178573Y0020700D01*
X0178573Y0015000D01*
X0178573Y0015000D01*
X0188573Y0015000D01*
X0188573Y0009300D01*
X0186212Y0009300D01*
X0183573Y0011939D01*
X0180934Y0009300D01*
X0178573Y0009300D01*
X0178573Y0015000D01*
X0178573Y0015000D01*
X0178573Y0015000D01*
X0178573Y0009300D01*
X0176212Y0009300D01*
X0173856Y0011656D01*
X0171100Y0008900D01*
X0166046Y0008900D01*
X0163573Y0011373D01*
X0161100Y0008900D01*
X0156046Y0008900D01*
X0153573Y0011373D01*
X0151100Y0008900D01*
X0148130Y0008900D01*
X0147430Y0008200D01*
X0275373Y0008200D01*
X0275373Y0015637D01*
X0275860Y0016813D01*
X0285373Y0026325D01*
X0285373Y0045674D01*
X0284809Y0045110D01*
X0282689Y0044231D01*
X0274457Y0044231D01*
X0273326Y0044700D01*
X0265865Y0044700D01*
X0265057Y0045035D01*
X0264394Y0045035D01*
X0263573Y0045375D01*
X0262752Y0045035D01*
X0257701Y0045035D01*
X0256672Y0045461D01*
X0256133Y0046000D01*
X0247777Y0046000D01*
X0246307Y0046609D01*
X0241307Y0051609D01*
X0241144Y0051772D01*
X0240412Y0052075D01*
X0239624Y0052863D01*
X0239198Y0053892D01*
X0239198Y0057552D01*
X0236973Y0055327D01*
X0236973Y0053886D01*
X0236120Y0051828D01*
X0234545Y0050253D01*
X0232487Y0049400D01*
X0229761Y0049400D01*
X0217642Y0037281D01*
X0217642Y0037281D01*
X0216292Y0035931D01*
X0214528Y0035200D01*
X0182618Y0035200D01*
X0180854Y0035931D01*
X0179504Y0037281D01*
X0178773Y0039045D01*
X0178773Y0040200D01*
X0172618Y0040200D01*
X0170854Y0040931D01*
X0169504Y0042281D01*
X0168773Y0044045D01*
X0168773Y0045955D01*
X0169504Y0047719D01*
X0170854Y0049069D01*
X0172618Y0049800D01*
X0179382Y0049800D01*
X0179308Y0049812D01*
X0178500Y0050074D01*
X0177743Y0050460D01*
X0177055Y0050960D01*
X0176454Y0051561D01*
X0175954Y0052249D01*
X0175568Y0053006D01*
X0175306Y0053814D01*
X0175173Y0054654D01*
X0175173Y0055079D01*
X0183573Y0055079D01*
X0191973Y0055079D01*
X0191973Y0055504D01*
X0191840Y0056343D01*
X0191577Y0057152D01*
X0191191Y0057909D01*
X0190692Y0058597D01*
X0190091Y0059198D01*
X0189403Y0059697D01*
X0189275Y0059763D01*
X0189858Y0060004D01*
X0190775Y0060921D01*
X0192211Y0060921D01*
X0192321Y0060811D01*
X0193351Y0060385D01*
X0198795Y0060385D01*
X0199824Y0060811D01*
X0200612Y0061599D01*
X0201038Y0062628D01*
X0201038Y0067679D01*
X0200698Y0068500D01*
X0201038Y0069321D01*
X0201038Y0074372D01*
X0200649Y0075311D01*
X0200755Y0075569D01*
X0200755Y0077431D01*
X0200428Y0078222D01*
X0200623Y0078693D01*
X0200623Y0080800D01*
X0201476Y0080800D01*
X0202641Y0080317D01*
X0204504Y0080317D01*
X0206225Y0081030D01*
X0207543Y0082347D01*
X0208255Y0084069D01*
X0208255Y0085931D01*
X0207543Y0087653D01*
X0206225Y0088970D01*
X0204504Y0089683D01*
X0202641Y0089683D01*
X0200920Y0088970D01*
X0200623Y0088672D01*
X0200623Y0090507D01*
X0200262Y0091378D01*
X0200755Y0092569D01*
X0200755Y0094431D01*
X0200649Y0094689D01*
X0201038Y0095628D01*
X0201038Y0100679D01*
X0200698Y0101500D01*
X0201038Y0102321D01*
X0201038Y0107372D01*
X0200612Y0108401D01*
X0199824Y0109189D01*
X0198795Y0109615D01*
X0193351Y0109615D01*
X0192321Y0109189D01*
X0192133Y0109000D01*
X0190697Y0109000D01*
X0189858Y0109838D01*
X0187727Y0110721D01*
X0179419Y0110721D01*
X0177287Y0109838D01*
X0175656Y0108207D01*
X0174773Y0106075D01*
X0174773Y0103768D01*
X0175656Y0101636D01*
X0177287Y0100004D01*
X0177871Y0099763D01*
X0177743Y0099697D01*
X0177055Y0099198D01*
X0176454Y0098597D01*
X0175954Y0097909D01*
X0175568Y0097152D01*
X0175306Y0096343D01*
X0175173Y0095504D01*
X0175173Y0095079D01*
X0183573Y0095079D01*
X0183573Y0095079D01*
X0183573Y0089679D01*
X0186998Y0089679D01*
X0187837Y0089812D01*
X0188646Y0090074D01*
X0189403Y0090460D01*
X0190091Y0090960D01*
X0190692Y0091561D01*
X0191191Y0092249D01*
X0191390Y0092639D01*
X0191390Y0092569D01*
X0191883Y0091378D01*
X0191523Y0090507D01*
X0191523Y0088410D01*
X0191409Y0088524D01*
X0190380Y0088950D01*
X0185766Y0088950D01*
X0184737Y0088524D01*
X0183949Y0087736D01*
X0183523Y0086707D01*
X0183523Y0082493D01*
X0183949Y0081464D01*
X0184737Y0080676D01*
X0185766Y0080250D01*
X0190380Y0080250D01*
X0191409Y0080676D01*
X0191523Y0080790D01*
X0191523Y0078693D01*
X0191718Y0078222D01*
X0191390Y0077431D01*
X0191390Y0075569D01*
X0191497Y0075311D01*
X0191107Y0074372D01*
X0191107Y0069321D01*
X0191273Y0068921D01*
X0190775Y0068921D01*
X0189858Y0069838D01*
X0187727Y0070721D01*
X0179419Y0070721D01*
X0177287Y0069838D01*
X0175656Y0068207D01*
X0174773Y0066075D01*
X0174773Y0063768D01*
X0175656Y0061636D01*
X0177287Y0060004D01*
X0177871Y0059763D01*
X0177743Y0059697D01*
X0177055Y0059198D01*
X0176454Y0058597D01*
X0175954Y0057909D01*
X0175568Y0057152D01*
X0175306Y0056343D01*
X0175173Y0055504D01*
X0175173Y0055079D01*
X0183573Y0055079D01*
X0183573Y0055079D01*
X0191973Y0055079D01*
X0191973Y0054654D01*
X0191840Y0053814D01*
X0191577Y0053006D01*
X0191191Y0052249D01*
X0190692Y0051561D01*
X0190091Y0050960D01*
X0189403Y0050460D01*
X0188646Y0050074D01*
X0188417Y0050000D01*
X0206785Y0050000D01*
X0215854Y0059069D01*
X0217618Y0059800D01*
X0219528Y0059800D01*
X0221292Y0059069D01*
X0221607Y0058754D01*
X0222601Y0059747D01*
X0223210Y0060000D01*
X0222601Y0060253D01*
X0221025Y0061828D01*
X0220173Y0063886D01*
X0220173Y0066114D01*
X0221025Y0068172D01*
X0222601Y0069747D01*
X0223210Y0070000D01*
X0222601Y0070253D01*
X0221025Y0071828D01*
X0220173Y0073886D01*
X0220173Y0076114D01*
X0221025Y0078172D01*
X0222601Y0079747D01*
X0224659Y0080600D01*
X0232487Y0080600D01*
X0234545Y0079747D01*
X0236120Y0078172D01*
X0236973Y0076114D01*
X0236973Y0073886D01*
X0236120Y0071828D01*
X0234545Y0070253D01*
X0233935Y0070000D01*
X0234545Y0069747D01*
X0235539Y0068754D01*
X0245854Y0079069D01*
X0247618Y0079800D01*
X0249528Y0079800D01*
X0250390Y0079443D01*
X0250390Y0080931D01*
X0250703Y0081686D01*
X0250458Y0082278D01*
X0250458Y0087722D01*
X0250884Y0088751D01*
X0251672Y0089539D01*
X0252701Y0089965D01*
X0257752Y0089965D01*
X0258573Y0089625D01*
X0259394Y0089965D01*
X0264445Y0089965D01*
X0264844Y0089800D01*
X0272246Y0089800D01*
X0272337Y0089890D01*
X0274457Y0090768D01*
X0282689Y0090768D01*
X0284809Y0089890D01*
X0285373Y0089326D01*
X0285373Y0152675D01*
X0276760Y0161287D01*
X0275860Y0162187D01*
X0275373Y0163363D01*
X0275373Y0207675D01*
X0271247Y0211800D01*
X0021773Y0211800D01*
X0021773Y0099324D01*
X0022287Y0099838D01*
X0024419Y0100721D01*
X0032727Y0100721D01*
X0034858Y0099838D01*
X0036490Y0098207D01*
X0037373Y0096075D01*
X0037373Y0093768D01*
X0036490Y0091636D01*
X0034858Y0090004D01*
X0034848Y0090000D01*
X0034858Y0089996D01*
X0036490Y0088364D01*
X0037373Y0086232D01*
X0037373Y0083925D01*
X0036490Y0081793D01*
X0034858Y0080162D01*
X0032727Y0079279D01*
X0024419Y0079279D01*
X0022287Y0080162D01*
X0021773Y0080676D01*
X0021773Y0046517D01*
X0022241Y0047261D01*
X0023070Y0048302D01*
X0024011Y0049243D01*
X0025052Y0050072D01*
X0026179Y0050780D01*
X0027378Y0051358D01*
X0028634Y0051797D01*
X0029931Y0052094D01*
X0030719Y0052182D01*
X0030719Y0041594D01*
X0033119Y0041594D01*
X0033119Y0052182D01*
X0033907Y0052094D01*
X0035205Y0051797D01*
X0036461Y0051358D01*
X0037660Y0050780D01*
X0038787Y0050072D01*
X0039827Y0049243D01*
X0040768Y0048302D01*
X0041598Y0047261D01*
X0042306Y0046134D01*
X0042883Y0044935D01*
X0043323Y0043679D01*
X0043334Y0043631D01*
X0043734Y0045122D01*
X0045346Y0047915D01*
X0046306Y0048874D01*
X0041917Y0053263D01*
X0041717Y0053263D01*
X0040688Y0053689D01*
X0039900Y0054477D01*
X0039474Y0055506D01*
X0039474Y0055882D01*
X0038411Y0058448D01*
X0038411Y0061552D01*
X0039474Y0064118D01*
X0039474Y0064494D01*
X0039900Y0065523D01*
X0040688Y0066311D01*
X0041717Y0066737D01*
X0042093Y0066737D01*
X0044659Y0067800D01*
X0047762Y0067800D01*
X0050328Y0066737D01*
X0050705Y0066737D01*
X0051734Y0066311D01*
X0052521Y0065523D01*
X0052948Y0064494D01*
X0052948Y0064294D01*
X0059566Y0057676D01*
X0061760Y0055481D01*
X0062948Y0052615D01*
X0062948Y0049916D01*
X0064949Y0047915D01*
X0066562Y0045122D01*
X0067396Y0042006D01*
X0067396Y0038781D01*
X0066562Y0035666D01*
X0064949Y0032873D01*
X0062669Y0030592D01*
X0059876Y0028980D01*
X0056760Y0028145D01*
X0053535Y0028145D01*
X0053373Y0028188D01*
X0053723Y0027630D01*
X0054301Y0026431D01*
X0054740Y0025175D01*
X0055036Y0023878D01*
X0055125Y0023090D01*
X0044537Y0023090D01*
X0044537Y0020690D01*
X0055125Y0020690D01*
X0055036Y0019902D01*
X0054740Y0018604D01*
X0054301Y0017348D01*
X0053723Y0016149D01*
X0053015Y0015022D01*
X0052186Y0013982D01*
X0051244Y0013041D01*
X0050204Y0012211D01*
X0049077Y0011503D01*
X0047878Y0010926D01*
X0046622Y0010486D01*
X0045324Y0010190D01*
X0044537Y0010101D01*
X0044537Y0020690D01*
X0042137Y0020690D01*
X0042137Y0010101D01*
X0041349Y0010190D01*
X0040051Y0010486D01*
X0038795Y0010926D01*
X0037596Y0011503D01*
X0036469Y0012211D01*
X0035429Y0013041D01*
X0034488Y0013982D01*
X0033658Y0015022D01*
X0032950Y0016149D01*
X0032372Y0017348D01*
X0031933Y0018604D01*
X0031637Y0019902D01*
X0031548Y0020690D01*
X0042137Y0020690D01*
X0042137Y0023090D01*
X0042137Y0033678D01*
X0041660Y0033625D01*
X0042306Y0034653D01*
X0042883Y0035852D01*
X0043323Y0037108D01*
X0043334Y0037157D01*
X0043734Y0035666D01*
X0044905Y0033637D01*
X0044537Y0033678D01*
X0044537Y0023090D01*
X0042137Y0023090D01*
X0031548Y0023090D01*
X0031637Y0023878D01*
X0031933Y0025175D01*
X0032372Y0026431D01*
X0032950Y0027630D01*
X0033596Y0028659D01*
X0033119Y0028605D01*
X0033119Y0039194D01*
X0030719Y0039194D01*
X0030719Y0028605D01*
X0029931Y0028694D01*
X0028634Y0028990D01*
X0027378Y0029430D01*
X0026179Y0030007D01*
X0025052Y0030715D01*
X0024011Y0031545D01*
X0023070Y0032486D01*
X0022241Y0033526D01*
X0021773Y0034271D01*
X0021773Y0033782D02*
X0022080Y0033782D01*
X0021773Y0031384D02*
X0024214Y0031384D01*
X0021773Y0028985D02*
X0028655Y0028985D01*
X0030719Y0028985D02*
X0033119Y0028985D01*
X0033119Y0031384D02*
X0030719Y0031384D01*
X0030719Y0033782D02*
X0033119Y0033782D01*
X0033119Y0036181D02*
X0030719Y0036181D01*
X0030719Y0038579D02*
X0033119Y0038579D01*
X0033119Y0043376D02*
X0030719Y0043376D01*
X0030719Y0045775D02*
X0033119Y0045775D01*
X0033119Y0048173D02*
X0030719Y0048173D01*
X0030719Y0050572D02*
X0033119Y0050572D01*
X0031704Y0053663D02*
X0035108Y0053663D01*
X0035572Y0053755D01*
X0036009Y0053936D01*
X0036402Y0054199D01*
X0036736Y0054533D01*
X0036999Y0054926D01*
X0037180Y0055363D01*
X0037272Y0055827D01*
X0037272Y0059231D01*
X0031704Y0059231D01*
X0031704Y0060769D01*
X0030167Y0060769D01*
X0030167Y0066337D01*
X0026762Y0066337D01*
X0026298Y0066245D01*
X0025861Y0066064D01*
X0025468Y0065801D01*
X0025134Y0065467D01*
X0024871Y0065074D01*
X0024690Y0064637D01*
X0024598Y0064173D01*
X0024598Y0060769D01*
X0030166Y0060769D01*
X0030166Y0059231D01*
X0024598Y0059231D01*
X0024598Y0055827D01*
X0024690Y0055363D01*
X0024871Y0054926D01*
X0025134Y0054533D01*
X0025468Y0054199D01*
X0025861Y0053936D01*
X0026298Y0053755D01*
X0026762Y0053663D01*
X0030167Y0053663D01*
X0030167Y0059231D01*
X0031704Y0059231D01*
X0031704Y0053663D01*
X0031704Y0055369D02*
X0030167Y0055369D01*
X0030167Y0057767D02*
X0031704Y0057767D01*
X0031704Y0060166D02*
X0038411Y0060166D01*
X0037272Y0060769D02*
X0037272Y0064173D01*
X0037180Y0064637D01*
X0036999Y0065074D01*
X0036736Y0065467D01*
X0036402Y0065801D01*
X0036009Y0066064D01*
X0035572Y0066245D01*
X0035108Y0066337D01*
X0031704Y0066337D01*
X0031704Y0060769D01*
X0037272Y0060769D01*
X0037272Y0062564D02*
X0038830Y0062564D01*
X0039668Y0064963D02*
X0037045Y0064963D01*
X0031704Y0064963D02*
X0030167Y0064963D01*
X0030167Y0062564D02*
X0031704Y0062564D01*
X0030166Y0060166D02*
X0021773Y0060166D01*
X0021773Y0062564D02*
X0024598Y0062564D01*
X0024825Y0064963D02*
X0021773Y0064963D01*
X0021773Y0067361D02*
X0043600Y0067361D01*
X0048821Y0067361D02*
X0175306Y0067361D01*
X0177209Y0069760D02*
X0021773Y0069760D01*
X0021773Y0072158D02*
X0191107Y0072158D01*
X0191107Y0069760D02*
X0189937Y0069760D01*
X0191184Y0074557D02*
X0021773Y0074557D01*
X0021773Y0076955D02*
X0119995Y0076955D01*
X0119603Y0077347D02*
X0120920Y0076030D01*
X0122641Y0075317D01*
X0124504Y0075317D01*
X0126225Y0076030D01*
X0126395Y0076200D01*
X0135751Y0076200D01*
X0135920Y0076030D01*
X0137641Y0075317D01*
X0139504Y0075317D01*
X0141225Y0076030D01*
X0142543Y0077347D01*
X0143255Y0079069D01*
X0143255Y0080931D01*
X0142543Y0082653D01*
X0141225Y0083970D01*
X0139504Y0084683D01*
X0137641Y0084683D01*
X0135920Y0083970D01*
X0135751Y0083800D01*
X0126395Y0083800D01*
X0126225Y0083970D01*
X0124504Y0084683D01*
X0122641Y0084683D01*
X0120920Y0083970D01*
X0119603Y0082653D01*
X0118890Y0080931D01*
X0118890Y0079069D01*
X0119603Y0077347D01*
X0118890Y0079354D02*
X0032908Y0079354D01*
X0036449Y0081752D02*
X0119230Y0081752D01*
X0121358Y0084151D02*
X0037373Y0084151D01*
X0037242Y0086549D02*
X0183523Y0086549D01*
X0183523Y0084151D02*
X0140788Y0084151D01*
X0142915Y0081752D02*
X0183830Y0081752D01*
X0191523Y0079354D02*
X0143255Y0079354D01*
X0142150Y0076955D02*
X0191390Y0076955D01*
X0196073Y0076500D02*
X0196073Y0071846D01*
X0196073Y0076500D02*
X0196073Y0080800D01*
X0200623Y0079354D02*
X0222207Y0079354D01*
X0220521Y0076955D02*
X0200755Y0076955D01*
X0200962Y0074557D02*
X0220173Y0074557D01*
X0220888Y0072158D02*
X0201038Y0072158D01*
X0201038Y0069760D02*
X0222631Y0069760D01*
X0220690Y0067361D02*
X0201038Y0067361D01*
X0201038Y0064963D02*
X0220173Y0064963D01*
X0220720Y0062564D02*
X0201012Y0062564D01*
X0196073Y0065154D02*
X0195841Y0064921D01*
X0183573Y0064921D01*
X0190020Y0060166D02*
X0222810Y0060166D01*
X0214552Y0057767D02*
X0191264Y0057767D01*
X0191973Y0055369D02*
X0212153Y0055369D01*
X0209755Y0052970D02*
X0191559Y0052970D01*
X0189556Y0050572D02*
X0207356Y0050572D01*
X0221339Y0040978D02*
X0285373Y0040978D01*
X0285373Y0043376D02*
X0223737Y0043376D01*
X0226136Y0045775D02*
X0256358Y0045775D01*
X0260226Y0050000D02*
X0248573Y0050000D01*
X0243573Y0055000D01*
X0243573Y0056811D01*
X0247948Y0056282D02*
X0247948Y0059730D01*
X0247521Y0060759D01*
X0246734Y0061547D01*
X0245705Y0061973D01*
X0242334Y0061973D01*
X0251247Y0070886D01*
X0251672Y0070461D01*
X0252701Y0070035D01*
X0257752Y0070035D01*
X0258573Y0070375D01*
X0259394Y0070035D01*
X0264445Y0070035D01*
X0264844Y0070200D01*
X0272246Y0070200D01*
X0272337Y0070110D01*
X0274457Y0069231D01*
X0282689Y0069231D01*
X0284809Y0070110D01*
X0285373Y0070674D01*
X0285373Y0064326D01*
X0284809Y0064890D01*
X0282689Y0065768D01*
X0274457Y0065768D01*
X0273326Y0065300D01*
X0265865Y0065300D01*
X0265057Y0064965D01*
X0264394Y0064965D01*
X0263573Y0064625D01*
X0262752Y0064965D01*
X0257701Y0064965D01*
X0256672Y0064539D01*
X0255884Y0063751D01*
X0255458Y0062722D01*
X0255458Y0061559D01*
X0255384Y0061573D01*
X0253573Y0061573D01*
X0253573Y0056811D01*
X0253573Y0056811D01*
X0253573Y0061573D01*
X0251762Y0061573D01*
X0251298Y0061481D01*
X0250861Y0061300D01*
X0250468Y0061037D01*
X0250134Y0060703D01*
X0249871Y0060310D01*
X0249690Y0059873D01*
X0249598Y0059410D01*
X0249598Y0056811D01*
X0249598Y0054632D01*
X0247948Y0056282D01*
X0248861Y0055369D02*
X0249598Y0055369D01*
X0249598Y0056811D02*
X0253573Y0056811D01*
X0253573Y0056811D01*
X0249598Y0056811D01*
X0249598Y0057767D02*
X0247948Y0057767D01*
X0247767Y0060166D02*
X0249811Y0060166D01*
X0253573Y0060166D02*
X0253573Y0060166D01*
X0253573Y0057767D02*
X0253573Y0057767D01*
X0255458Y0062564D02*
X0242925Y0062564D01*
X0245324Y0064963D02*
X0257695Y0064963D01*
X0262758Y0064963D02*
X0264388Y0064963D01*
X0260226Y0060000D02*
X0260226Y0050000D01*
X0244743Y0048173D02*
X0228534Y0048173D01*
X0234864Y0050572D02*
X0242344Y0050572D01*
X0239580Y0052970D02*
X0236593Y0052970D01*
X0237015Y0055369D02*
X0239198Y0055369D01*
X0247722Y0067361D02*
X0285373Y0067361D01*
X0285373Y0069760D02*
X0283964Y0069760D01*
X0284634Y0064963D02*
X0285373Y0064963D01*
X0273181Y0069760D02*
X0250121Y0069760D01*
X0255226Y0075000D02*
X0255226Y0079946D01*
X0250675Y0081752D02*
X0206948Y0081752D01*
X0208255Y0084151D02*
X0250458Y0084151D01*
X0250458Y0086549D02*
X0208000Y0086549D01*
X0206247Y0088948D02*
X0251081Y0088948D01*
X0246541Y0079354D02*
X0234939Y0079354D01*
X0236624Y0076955D02*
X0243740Y0076955D01*
X0241341Y0074557D02*
X0236973Y0074557D01*
X0236257Y0072158D02*
X0238943Y0072158D01*
X0236544Y0069760D02*
X0234515Y0069760D01*
X0227837Y0089812D02*
X0228646Y0090074D01*
X0229403Y0090460D01*
X0230091Y0090960D01*
X0230692Y0091561D01*
X0231191Y0092249D01*
X0231577Y0093006D01*
X0231840Y0093814D01*
X0231973Y0094654D01*
X0231973Y0095079D01*
X0231973Y0095504D01*
X0231840Y0096343D01*
X0231577Y0097152D01*
X0231191Y0097909D01*
X0230692Y0098597D01*
X0230091Y0099198D01*
X0229403Y0099697D01*
X0229275Y0099763D01*
X0229858Y0100004D01*
X0230054Y0100200D01*
X0232802Y0100200D01*
X0233201Y0100035D01*
X0238252Y0100035D01*
X0239073Y0100375D01*
X0239894Y0100035D01*
X0244945Y0100035D01*
X0245974Y0100461D01*
X0246762Y0101249D01*
X0247188Y0102278D01*
X0247188Y0107722D01*
X0246762Y0108751D01*
X0245974Y0109539D01*
X0244945Y0109965D01*
X0243739Y0109965D01*
X0243255Y0110626D01*
X0243255Y0111179D01*
X0242543Y0112901D01*
X0241225Y0114218D01*
X0239504Y0114931D01*
X0237641Y0114931D01*
X0235920Y0114218D01*
X0234603Y0112901D01*
X0233890Y0111179D01*
X0233890Y0109965D01*
X0233201Y0109965D01*
X0232802Y0109800D01*
X0229897Y0109800D01*
X0229858Y0109838D01*
X0228373Y0110454D01*
X0228373Y0114301D01*
X0228188Y0114748D01*
X0228188Y0116222D01*
X0227762Y0117251D01*
X0226974Y0118039D01*
X0225945Y0118465D01*
X0220894Y0118465D01*
X0220073Y0118125D01*
X0219252Y0118465D01*
X0214201Y0118465D01*
X0213172Y0118039D01*
X0212384Y0117251D01*
X0211958Y0116222D01*
X0211958Y0114400D01*
X0210920Y0113970D01*
X0209603Y0112653D01*
X0208890Y0110931D01*
X0208890Y0109069D01*
X0209603Y0107347D01*
X0210920Y0106030D01*
X0212641Y0105317D01*
X0214504Y0105317D01*
X0214773Y0105429D01*
X0214773Y0103768D01*
X0215656Y0101636D01*
X0217287Y0100004D01*
X0217871Y0099763D01*
X0217743Y0099697D01*
X0217055Y0099198D01*
X0216454Y0098597D01*
X0215954Y0097909D01*
X0215568Y0097152D01*
X0215306Y0096343D01*
X0215173Y0095504D01*
X0215173Y0095079D01*
X0223573Y0095079D01*
X0231973Y0095079D01*
X0223573Y0095079D01*
X0223573Y0095079D01*
X0223573Y0095079D01*
X0223573Y0089679D01*
X0226998Y0089679D01*
X0227837Y0089812D01*
X0230477Y0091346D02*
X0285373Y0091346D01*
X0285373Y0093745D02*
X0231817Y0093745D01*
X0231872Y0096143D02*
X0285373Y0096143D01*
X0285373Y0098542D02*
X0230731Y0098542D01*
X0223573Y0095079D02*
X0223573Y0095079D01*
X0215173Y0095079D01*
X0215173Y0094654D01*
X0215306Y0093814D01*
X0215568Y0093006D01*
X0215954Y0092249D01*
X0216454Y0091561D01*
X0217055Y0090960D01*
X0217743Y0090460D01*
X0218500Y0090074D01*
X0219308Y0089812D01*
X0220148Y0089679D01*
X0223573Y0089679D01*
X0223573Y0095079D01*
X0223573Y0093745D02*
X0223573Y0093745D01*
X0223573Y0091346D02*
X0223573Y0091346D01*
X0216668Y0091346D02*
X0200275Y0091346D01*
X0200755Y0093745D02*
X0215328Y0093745D01*
X0215274Y0096143D02*
X0201038Y0096143D01*
X0201038Y0098542D02*
X0216414Y0098542D01*
X0216351Y0100940D02*
X0200930Y0100940D01*
X0201038Y0103339D02*
X0214950Y0103339D01*
X0211627Y0105737D02*
X0201038Y0105737D01*
X0200722Y0108136D02*
X0209276Y0108136D01*
X0208890Y0110534D02*
X0188177Y0110534D01*
X0183573Y0105000D02*
X0183573Y0104921D01*
X0183573Y0105000D02*
X0195919Y0105000D01*
X0196073Y0104846D01*
X0196073Y0098154D02*
X0196073Y0093500D01*
X0196073Y0088400D01*
X0200623Y0088948D02*
X0200898Y0088948D01*
X0191871Y0091346D02*
X0190477Y0091346D01*
X0190385Y0088948D02*
X0191523Y0088948D01*
X0185761Y0088948D02*
X0035906Y0088948D01*
X0036200Y0091346D02*
X0049694Y0091346D01*
X0050109Y0090931D02*
X0051874Y0090200D01*
X0064528Y0090200D01*
X0066292Y0090931D01*
X0067642Y0092281D01*
X0073006Y0097645D01*
X0074213Y0098145D01*
X0074331Y0098263D01*
X0075705Y0098263D01*
X0076073Y0098416D01*
X0076441Y0098263D01*
X0085429Y0098263D01*
X0086458Y0098689D01*
X0087246Y0099477D01*
X0087672Y0100506D01*
X0087672Y0109494D01*
X0087246Y0110523D01*
X0086458Y0111311D01*
X0085429Y0111737D01*
X0076441Y0111737D01*
X0076073Y0111584D01*
X0075705Y0111737D01*
X0066717Y0111737D01*
X0065688Y0111311D01*
X0064900Y0110523D01*
X0064474Y0109494D01*
X0064474Y0102689D01*
X0062672Y0100887D01*
X0062672Y0109494D01*
X0062246Y0110523D01*
X0061458Y0111311D01*
X0060429Y0111737D01*
X0058873Y0111737D01*
X0058873Y0113263D01*
X0060429Y0113263D01*
X0061458Y0113689D01*
X0062246Y0114477D01*
X0062672Y0115506D01*
X0062672Y0124113D01*
X0064474Y0122311D01*
X0064474Y0115506D01*
X0064900Y0114477D01*
X0065688Y0113689D01*
X0066717Y0113263D01*
X0075705Y0113263D01*
X0076073Y0113416D01*
X0076441Y0113263D01*
X0085429Y0113263D01*
X0086458Y0113689D01*
X0087246Y0114477D01*
X0087672Y0115506D01*
X0087672Y0124494D01*
X0087246Y0125523D01*
X0086458Y0126311D01*
X0085429Y0126737D01*
X0076441Y0126737D01*
X0076073Y0126584D01*
X0075705Y0126737D01*
X0073624Y0126737D01*
X0067642Y0132719D01*
X0066292Y0134069D01*
X0064528Y0134800D01*
X0039899Y0134800D01*
X0039809Y0134890D01*
X0039544Y0135000D01*
X0039809Y0135110D01*
X0039899Y0135200D01*
X0064528Y0135200D01*
X0066292Y0135931D01*
X0073624Y0143263D01*
X0075705Y0143263D01*
X0076073Y0143416D01*
X0076441Y0143263D01*
X0085429Y0143263D01*
X0086458Y0143689D01*
X0087246Y0144477D01*
X0087672Y0145506D01*
X0087672Y0154494D01*
X0087246Y0155523D01*
X0086458Y0156311D01*
X0085429Y0156737D01*
X0076441Y0156737D01*
X0076073Y0156584D01*
X0075705Y0156737D01*
X0066717Y0156737D01*
X0065688Y0156311D01*
X0064900Y0155523D01*
X0064474Y0154494D01*
X0064474Y0147689D01*
X0062672Y0145887D01*
X0062672Y0154494D01*
X0062246Y0155523D01*
X0061458Y0156311D01*
X0060429Y0156737D01*
X0058873Y0156737D01*
X0058873Y0158263D01*
X0060429Y0158263D01*
X0061458Y0158689D01*
X0062246Y0159477D01*
X0062672Y0160506D01*
X0062672Y0169494D01*
X0062380Y0170200D01*
X0064766Y0170200D01*
X0064474Y0169494D01*
X0064474Y0160506D01*
X0064900Y0159477D01*
X0065688Y0158689D01*
X0066717Y0158263D01*
X0075705Y0158263D01*
X0076073Y0158416D01*
X0076441Y0158263D01*
X0085429Y0158263D01*
X0086458Y0158689D01*
X0087246Y0159477D01*
X0087672Y0160506D01*
X0087672Y0169494D01*
X0087246Y0170523D01*
X0086458Y0171311D01*
X0085429Y0171737D01*
X0076441Y0171737D01*
X0076073Y0171584D01*
X0076011Y0171610D01*
X0076011Y0173317D01*
X0075280Y0175081D01*
X0072642Y0177719D01*
X0071292Y0179069D01*
X0069528Y0179800D01*
X0047618Y0179800D01*
X0045854Y0179069D01*
X0031778Y0164993D01*
X0030571Y0164493D01*
X0029080Y0163002D01*
X0028273Y0161054D01*
X0028273Y0155278D01*
X0027337Y0154890D01*
X0025714Y0153268D01*
X0024836Y0151147D01*
X0024836Y0148853D01*
X0025714Y0146732D01*
X0027337Y0145110D01*
X0027602Y0145000D01*
X0027337Y0144890D01*
X0025714Y0143268D01*
X0024836Y0141147D01*
X0024836Y0138853D01*
X0025714Y0136732D01*
X0027337Y0135110D01*
X0027602Y0135000D01*
X0027337Y0134890D01*
X0025714Y0133268D01*
X0024836Y0131147D01*
X0024836Y0128853D01*
X0025714Y0126732D01*
X0027337Y0125110D01*
X0027602Y0125000D01*
X0027337Y0124890D01*
X0025714Y0123268D01*
X0024836Y0121147D01*
X0024836Y0118853D01*
X0025714Y0116732D01*
X0027337Y0115110D01*
X0028773Y0114515D01*
X0028773Y0114045D01*
X0029504Y0112281D01*
X0030854Y0110931D01*
X0043702Y0098082D01*
X0044229Y0096811D01*
X0050109Y0090931D01*
X0047295Y0093745D02*
X0037363Y0093745D01*
X0037344Y0096143D02*
X0044897Y0096143D01*
X0043243Y0098542D02*
X0036155Y0098542D01*
X0040844Y0100940D02*
X0021773Y0100940D01*
X0021773Y0103339D02*
X0038446Y0103339D01*
X0036047Y0105737D02*
X0021773Y0105737D01*
X0021773Y0108136D02*
X0033649Y0108136D01*
X0031250Y0110534D02*
X0021773Y0110534D01*
X0021773Y0112933D02*
X0029234Y0112933D01*
X0027115Y0115332D02*
X0021773Y0115332D01*
X0021773Y0117730D02*
X0025301Y0117730D01*
X0024836Y0120129D02*
X0021773Y0120129D01*
X0021773Y0122527D02*
X0025407Y0122527D01*
X0027422Y0124926D02*
X0021773Y0124926D01*
X0021773Y0127324D02*
X0025469Y0127324D01*
X0024836Y0129723D02*
X0021773Y0129723D01*
X0021773Y0132121D02*
X0025239Y0132121D01*
X0026966Y0134520D02*
X0021773Y0134520D01*
X0021773Y0136918D02*
X0025637Y0136918D01*
X0024836Y0139317D02*
X0021773Y0139317D01*
X0021773Y0141715D02*
X0025071Y0141715D01*
X0026560Y0144114D02*
X0021773Y0144114D01*
X0021773Y0146512D02*
X0025934Y0146512D01*
X0024836Y0148911D02*
X0021773Y0148911D01*
X0021773Y0151309D02*
X0024903Y0151309D01*
X0026154Y0153708D02*
X0021773Y0153708D01*
X0021773Y0156106D02*
X0028273Y0156106D01*
X0028273Y0158505D02*
X0021773Y0158505D01*
X0021773Y0160903D02*
X0028273Y0160903D01*
X0029379Y0163302D02*
X0021773Y0163302D01*
X0021773Y0165700D02*
X0032485Y0165700D01*
X0034883Y0168099D02*
X0021773Y0168099D01*
X0021773Y0170497D02*
X0037282Y0170497D01*
X0039680Y0172896D02*
X0021773Y0172896D01*
X0021773Y0175294D02*
X0042079Y0175294D01*
X0044477Y0177693D02*
X0021773Y0177693D01*
X0021773Y0180091D02*
X0120573Y0180091D01*
X0120573Y0181074D02*
X0120573Y0178926D01*
X0121395Y0176941D01*
X0122914Y0175422D01*
X0124482Y0174773D01*
X0124053Y0174634D01*
X0123352Y0174276D01*
X0122716Y0173814D01*
X0122159Y0173257D01*
X0121696Y0172621D01*
X0121339Y0171919D01*
X0121096Y0171171D01*
X0120973Y0170394D01*
X0120973Y0170000D01*
X0128573Y0170000D01*
X0136173Y0170000D01*
X0136173Y0170394D01*
X0136050Y0171171D01*
X0135807Y0171919D01*
X0135449Y0172621D01*
X0134987Y0173257D01*
X0134430Y0173814D01*
X0133793Y0174276D01*
X0133092Y0174634D01*
X0132664Y0174773D01*
X0134232Y0175422D01*
X0135210Y0176400D01*
X0150272Y0176400D01*
X0150809Y0175863D01*
X0152602Y0175120D01*
X0154543Y0175120D01*
X0156337Y0175863D01*
X0157709Y0177236D01*
X0158452Y0179029D01*
X0158452Y0180971D01*
X0157709Y0182764D01*
X0156337Y0184137D01*
X0154543Y0184880D01*
X0153452Y0184880D01*
X0153452Y0185971D01*
X0152709Y0187764D01*
X0151337Y0189137D01*
X0149543Y0189880D01*
X0149350Y0189880D01*
X0145839Y0193391D01*
X0144368Y0194000D01*
X0134810Y0194000D01*
X0134232Y0194578D01*
X0132247Y0195400D01*
X0124899Y0195400D01*
X0122914Y0194578D01*
X0121395Y0193059D01*
X0120573Y0191074D01*
X0120573Y0188926D01*
X0121395Y0186941D01*
X0122914Y0185422D01*
X0123933Y0185000D01*
X0122914Y0184578D01*
X0121395Y0183059D01*
X0120573Y0181074D01*
X0121159Y0182490D02*
X0021773Y0182490D01*
X0021773Y0184888D02*
X0123663Y0184888D01*
X0121252Y0187287D02*
X0021773Y0187287D01*
X0021773Y0189685D02*
X0120573Y0189685D01*
X0120991Y0192084D02*
X0021773Y0192084D01*
X0021773Y0194482D02*
X0122818Y0194482D01*
X0122573Y0199300D02*
X0124934Y0199300D01*
X0127290Y0201656D01*
X0130046Y0198900D01*
X0135100Y0198900D01*
X0137573Y0201373D01*
X0140046Y0198900D01*
X0145100Y0198900D01*
X0147573Y0201373D01*
X0150046Y0198900D01*
X0155100Y0198900D01*
X0157573Y0201373D01*
X0160046Y0198900D01*
X0165100Y0198900D01*
X0167573Y0201373D01*
X0170046Y0198900D01*
X0175100Y0198900D01*
X0177573Y0201373D01*
X0180046Y0198900D01*
X0185100Y0198900D01*
X0188673Y0202473D01*
X0188673Y0207527D01*
X0185100Y0211100D01*
X0180046Y0211100D01*
X0177573Y0208627D01*
X0175100Y0211100D01*
X0170046Y0211100D01*
X0167573Y0208627D01*
X0165100Y0211100D01*
X0160046Y0211100D01*
X0157573Y0208627D01*
X0155100Y0211100D01*
X0150046Y0211100D01*
X0147573Y0208627D01*
X0145100Y0211100D01*
X0140046Y0211100D01*
X0137573Y0208627D01*
X0135100Y0211100D01*
X0130046Y0211100D01*
X0127290Y0208344D01*
X0124934Y0210700D01*
X0122573Y0210700D01*
X0122573Y0205000D01*
X0122573Y0205000D01*
X0122573Y0199300D01*
X0122573Y0205000D01*
X0122573Y0205000D01*
X0122573Y0210700D01*
X0120212Y0210700D01*
X0117856Y0208344D01*
X0115100Y0211100D01*
X0110046Y0211100D01*
X0107573Y0208627D01*
X0105100Y0211100D01*
X0100046Y0211100D01*
X0097573Y0208627D01*
X0095100Y0211100D01*
X0090046Y0211100D01*
X0086473Y0207527D01*
X0086473Y0202473D01*
X0090046Y0198900D01*
X0095100Y0198900D01*
X0097573Y0201373D01*
X0100046Y0198900D01*
X0105100Y0198900D01*
X0107573Y0201373D01*
X0110046Y0198900D01*
X0115100Y0198900D01*
X0117856Y0201656D01*
X0120212Y0199300D01*
X0122573Y0199300D01*
X0122573Y0201678D02*
X0122573Y0201678D01*
X0122573Y0204076D02*
X0122573Y0204076D01*
X0122573Y0206475D02*
X0122573Y0206475D01*
X0122573Y0208873D02*
X0122573Y0208873D01*
X0118385Y0208873D02*
X0117326Y0208873D01*
X0126760Y0208873D02*
X0127820Y0208873D01*
X0137326Y0208873D02*
X0137820Y0208873D01*
X0147326Y0208873D02*
X0147820Y0208873D01*
X0157326Y0208873D02*
X0157820Y0208873D01*
X0167326Y0208873D02*
X0167820Y0208873D01*
X0177326Y0208873D02*
X0177820Y0208873D01*
X0187326Y0208873D02*
X0193820Y0208873D01*
X0192473Y0207527D02*
X0192473Y0202473D01*
X0196046Y0198900D01*
X0201100Y0198900D01*
X0203573Y0201373D01*
X0206046Y0198900D01*
X0211100Y0198900D01*
X0213573Y0201373D01*
X0216046Y0198900D01*
X0221100Y0198900D01*
X0223573Y0201373D01*
X0226046Y0198900D01*
X0231100Y0198900D01*
X0233573Y0201373D01*
X0236046Y0198900D01*
X0241100Y0198900D01*
X0243573Y0201373D01*
X0246046Y0198900D01*
X0251100Y0198900D01*
X0253573Y0201373D01*
X0256046Y0198900D01*
X0261100Y0198900D01*
X0263573Y0201373D01*
X0263744Y0201202D01*
X0263607Y0200872D01*
X0263607Y0195821D01*
X0264034Y0194792D01*
X0264218Y0194608D01*
X0264100Y0194322D01*
X0264007Y0193858D01*
X0264007Y0191654D01*
X0268573Y0191654D01*
X0273138Y0191654D01*
X0273138Y0193858D01*
X0273046Y0194322D01*
X0272928Y0194608D01*
X0273112Y0194792D01*
X0273538Y0195821D01*
X0273538Y0200872D01*
X0273401Y0201202D01*
X0274673Y0202473D01*
X0274673Y0207527D01*
X0271100Y0211100D01*
X0266046Y0211100D01*
X0263573Y0208627D01*
X0261100Y0211100D01*
X0256046Y0211100D01*
X0253573Y0208627D01*
X0251100Y0211100D01*
X0246046Y0211100D01*
X0243573Y0208627D01*
X0241100Y0211100D01*
X0236046Y0211100D01*
X0233573Y0208627D01*
X0231100Y0211100D01*
X0226046Y0211100D01*
X0223573Y0208627D01*
X0221100Y0211100D01*
X0216046Y0211100D01*
X0213573Y0208627D01*
X0211100Y0211100D01*
X0206046Y0211100D01*
X0203573Y0208627D01*
X0201100Y0211100D01*
X0196046Y0211100D01*
X0192473Y0207527D01*
X0192473Y0206475D02*
X0188673Y0206475D01*
X0188673Y0204076D02*
X0192473Y0204076D01*
X0193268Y0201678D02*
X0187877Y0201678D01*
X0185479Y0199279D02*
X0195667Y0199279D01*
X0201479Y0199279D02*
X0205667Y0199279D01*
X0211479Y0199279D02*
X0215667Y0199279D01*
X0221479Y0199279D02*
X0225667Y0199279D01*
X0231479Y0199279D02*
X0235667Y0199279D01*
X0241479Y0199279D02*
X0245667Y0199279D01*
X0251479Y0199279D02*
X0255667Y0199279D01*
X0261479Y0199279D02*
X0263607Y0199279D01*
X0263607Y0196881D02*
X0021773Y0196881D01*
X0021773Y0199279D02*
X0089667Y0199279D01*
X0087268Y0201678D02*
X0021773Y0201678D01*
X0021773Y0204076D02*
X0086473Y0204076D01*
X0086473Y0206475D02*
X0021773Y0206475D01*
X0021773Y0208873D02*
X0087820Y0208873D01*
X0097326Y0208873D02*
X0097820Y0208873D01*
X0107326Y0208873D02*
X0107820Y0208873D01*
X0109667Y0199279D02*
X0105479Y0199279D01*
X0099667Y0199279D02*
X0095479Y0199279D01*
X0115479Y0199279D02*
X0129667Y0199279D01*
X0135479Y0199279D02*
X0139667Y0199279D01*
X0145479Y0199279D02*
X0149667Y0199279D01*
X0155479Y0199279D02*
X0159667Y0199279D01*
X0165479Y0199279D02*
X0169667Y0199279D01*
X0175479Y0199279D02*
X0179667Y0199279D01*
X0182425Y0190768D02*
X0180305Y0189890D01*
X0178683Y0188268D01*
X0178573Y0188003D01*
X0178463Y0188268D01*
X0176840Y0189890D01*
X0174720Y0190768D01*
X0172425Y0190768D01*
X0170305Y0189890D01*
X0168683Y0188268D01*
X0168573Y0188003D01*
X0168463Y0188268D01*
X0166840Y0189890D01*
X0164720Y0190768D01*
X0162425Y0190768D01*
X0160305Y0189890D01*
X0158683Y0188268D01*
X0157804Y0186147D01*
X0157804Y0183853D01*
X0158683Y0181732D01*
X0160305Y0180110D01*
X0161117Y0179774D01*
X0160759Y0179592D01*
X0160075Y0179095D01*
X0159478Y0178497D01*
X0158981Y0177814D01*
X0158598Y0177061D01*
X0158337Y0176257D01*
X0158204Y0175423D01*
X0158204Y0175000D01*
X0158204Y0174577D01*
X0158337Y0173743D01*
X0158598Y0172939D01*
X0158981Y0172186D01*
X0159478Y0171503D01*
X0160075Y0170905D01*
X0160759Y0170408D01*
X0161512Y0170025D01*
X0162316Y0169764D01*
X0163150Y0169631D01*
X0163573Y0169631D01*
X0163995Y0169631D01*
X0164830Y0169764D01*
X0165634Y0170025D01*
X0166387Y0170408D01*
X0167070Y0170905D01*
X0167668Y0171503D01*
X0168164Y0172186D01*
X0168346Y0172544D01*
X0168683Y0171732D01*
X0170305Y0170110D01*
X0172425Y0169231D01*
X0174720Y0169231D01*
X0176840Y0170110D01*
X0178463Y0171732D01*
X0178799Y0172544D01*
X0178981Y0172186D01*
X0179478Y0171503D01*
X0180075Y0170905D01*
X0180759Y0170408D01*
X0181512Y0170025D01*
X0182316Y0169764D01*
X0183150Y0169631D01*
X0183573Y0169631D01*
X0183995Y0169631D01*
X0184830Y0169764D01*
X0185634Y0170025D01*
X0186387Y0170408D01*
X0187070Y0170905D01*
X0187668Y0171503D01*
X0188164Y0172186D01*
X0188346Y0172544D01*
X0188683Y0171732D01*
X0190305Y0170110D01*
X0192425Y0169231D01*
X0194720Y0169231D01*
X0196840Y0170110D01*
X0198463Y0171732D01*
X0198573Y0171997D01*
X0198683Y0171732D01*
X0200305Y0170110D01*
X0202425Y0169231D01*
X0202661Y0169231D01*
X0202661Y0168000D01*
X0207226Y0168000D01*
X0202661Y0168000D01*
X0202661Y0165795D01*
X0202753Y0165331D01*
X0202803Y0165211D01*
X0202113Y0165211D01*
X0200465Y0164528D01*
X0199485Y0164528D01*
X0198974Y0165039D01*
X0197945Y0165465D01*
X0192894Y0165465D01*
X0192073Y0165125D01*
X0191252Y0165465D01*
X0186201Y0165465D01*
X0185172Y0165039D01*
X0184384Y0164251D01*
X0183958Y0163222D01*
X0183958Y0157778D01*
X0184384Y0156749D01*
X0184633Y0156500D01*
X0184384Y0156251D01*
X0183958Y0155222D01*
X0183958Y0154520D01*
X0180854Y0151416D01*
X0180159Y0150721D01*
X0179419Y0150721D01*
X0177287Y0149838D01*
X0175656Y0148207D01*
X0174773Y0146075D01*
X0174773Y0143768D01*
X0175656Y0141636D01*
X0177287Y0140004D01*
X0177871Y0139763D01*
X0177743Y0139697D01*
X0177055Y0139198D01*
X0176454Y0138597D01*
X0175954Y0137909D01*
X0175568Y0137152D01*
X0175306Y0136343D01*
X0175173Y0135504D01*
X0175173Y0135079D01*
X0183573Y0135079D01*
X0183573Y0135079D01*
X0183573Y0129679D01*
X0186998Y0129679D01*
X0187837Y0129812D01*
X0188646Y0130074D01*
X0189403Y0130460D01*
X0190091Y0130960D01*
X0190692Y0131561D01*
X0191180Y0132233D01*
X0191237Y0132176D01*
X0192266Y0131750D01*
X0193589Y0131750D01*
X0194917Y0131200D01*
X0205751Y0131200D01*
X0205920Y0131030D01*
X0207641Y0130317D01*
X0209504Y0130317D01*
X0211225Y0131030D01*
X0212543Y0132347D01*
X0213255Y0134069D01*
X0213255Y0135931D01*
X0212543Y0137653D01*
X0211225Y0138970D01*
X0210185Y0139401D01*
X0214779Y0139401D01*
X0215809Y0139827D01*
X0216596Y0140615D01*
X0216620Y0140672D01*
X0217287Y0140004D01*
X0217871Y0139763D01*
X0217743Y0139697D01*
X0217055Y0139198D01*
X0216454Y0138597D01*
X0215954Y0137909D01*
X0215568Y0137152D01*
X0215306Y0136343D01*
X0215173Y0135504D01*
X0215173Y0135079D01*
X0223573Y0135079D01*
X0231973Y0135079D01*
X0231973Y0135504D01*
X0231840Y0136343D01*
X0231577Y0137152D01*
X0231191Y0137909D01*
X0230692Y0138597D01*
X0230091Y0139198D01*
X0229403Y0139697D01*
X0229275Y0139763D01*
X0229858Y0140004D01*
X0230700Y0140846D01*
X0232177Y0140846D01*
X0232107Y0140679D01*
X0232107Y0135628D01*
X0232534Y0134599D01*
X0233073Y0134060D01*
X0233073Y0130704D01*
X0233682Y0129234D01*
X0233920Y0128996D01*
X0234603Y0127347D01*
X0235920Y0126030D01*
X0237641Y0125317D01*
X0239504Y0125317D01*
X0241225Y0126030D01*
X0242543Y0127347D01*
X0243255Y0129069D01*
X0243255Y0130931D01*
X0242543Y0132653D01*
X0241225Y0133970D01*
X0241073Y0134033D01*
X0241073Y0134060D01*
X0241612Y0134599D01*
X0242038Y0135628D01*
X0242038Y0140679D01*
X0241698Y0141500D01*
X0242038Y0142321D01*
X0242038Y0145200D01*
X0252170Y0145200D01*
X0252287Y0145083D01*
X0252871Y0144841D01*
X0252743Y0144776D01*
X0252055Y0144276D01*
X0251454Y0143675D01*
X0250954Y0142988D01*
X0250568Y0142230D01*
X0250306Y0141422D01*
X0250173Y0140582D01*
X0250173Y0140158D01*
X0258573Y0140158D01*
X0266973Y0140158D01*
X0266973Y0140582D01*
X0266840Y0141422D01*
X0266577Y0142230D01*
X0266191Y0142988D01*
X0265692Y0143675D01*
X0265091Y0144276D01*
X0264403Y0144776D01*
X0264275Y0144841D01*
X0264858Y0145083D01*
X0266490Y0146715D01*
X0267373Y0148846D01*
X0267373Y0151154D01*
X0266490Y0153285D01*
X0264858Y0154917D01*
X0264848Y0154921D01*
X0264858Y0154926D01*
X0266490Y0156557D01*
X0267373Y0158689D01*
X0267373Y0160996D01*
X0266490Y0163128D01*
X0264858Y0164760D01*
X0262727Y0165643D01*
X0254419Y0165643D01*
X0252287Y0164760D01*
X0250656Y0163128D01*
X0249773Y0160996D01*
X0249773Y0158689D01*
X0250656Y0156557D01*
X0252287Y0154926D01*
X0252298Y0154921D01*
X0252287Y0154917D01*
X0252170Y0154800D01*
X0241555Y0154800D01*
X0241518Y0154815D01*
X0240546Y0154815D01*
X0226292Y0169069D01*
X0225310Y0169476D01*
X0226840Y0170110D01*
X0228463Y0171732D01*
X0229341Y0173853D01*
X0229341Y0176147D01*
X0228463Y0178268D01*
X0226840Y0179890D01*
X0226576Y0180000D01*
X0226840Y0180110D01*
X0228463Y0181732D01*
X0229341Y0183853D01*
X0229341Y0186147D01*
X0228463Y0188268D01*
X0226840Y0189890D01*
X0224720Y0190768D01*
X0222425Y0190768D01*
X0220305Y0189890D01*
X0218683Y0188268D01*
X0218346Y0187456D01*
X0218164Y0187814D01*
X0217668Y0188497D01*
X0217070Y0189095D01*
X0216387Y0189592D01*
X0215634Y0189975D01*
X0214830Y0190236D01*
X0213995Y0190368D01*
X0213573Y0190368D01*
X0213573Y0185000D01*
X0213573Y0185000D01*
X0213573Y0190368D01*
X0213150Y0190368D01*
X0212316Y0190236D01*
X0211512Y0189975D01*
X0210759Y0189592D01*
X0210075Y0189095D01*
X0209478Y0188497D01*
X0208981Y0187814D01*
X0208799Y0187456D01*
X0208463Y0188268D01*
X0206840Y0189890D01*
X0204720Y0190768D01*
X0202425Y0190768D01*
X0200305Y0189890D01*
X0198683Y0188268D01*
X0198573Y0188003D01*
X0198463Y0188268D01*
X0196840Y0189890D01*
X0194720Y0190768D01*
X0192425Y0190768D01*
X0190305Y0189890D01*
X0188683Y0188268D01*
X0188573Y0188003D01*
X0188463Y0188268D01*
X0186840Y0189890D01*
X0184720Y0190768D01*
X0182425Y0190768D01*
X0180100Y0189685D02*
X0177045Y0189685D01*
X0170100Y0189685D02*
X0167045Y0189685D01*
X0160100Y0189685D02*
X0150012Y0189685D01*
X0147146Y0192084D02*
X0264007Y0192084D01*
X0264007Y0191653D02*
X0264007Y0189449D01*
X0264100Y0188985D01*
X0264281Y0188548D01*
X0264543Y0188155D01*
X0264878Y0187821D01*
X0265271Y0187558D01*
X0265707Y0187377D01*
X0266171Y0187285D01*
X0268573Y0187285D01*
X0270975Y0187285D01*
X0271438Y0187377D01*
X0271875Y0187558D01*
X0272268Y0187821D01*
X0272602Y0188155D01*
X0272865Y0188548D01*
X0273046Y0188985D01*
X0273138Y0189449D01*
X0273138Y0191653D01*
X0268573Y0191653D01*
X0268573Y0187285D01*
X0268573Y0191653D01*
X0268573Y0191653D01*
X0268573Y0191654D01*
X0268573Y0191653D01*
X0264007Y0191653D01*
X0264007Y0189685D02*
X0227045Y0189685D01*
X0228869Y0187287D02*
X0266162Y0187287D01*
X0268573Y0187287D02*
X0268573Y0187287D01*
X0268573Y0189685D02*
X0268573Y0189685D01*
X0270984Y0187287D02*
X0275373Y0187287D01*
X0275373Y0189685D02*
X0273138Y0189685D01*
X0273138Y0192084D02*
X0275373Y0192084D01*
X0275373Y0194482D02*
X0272980Y0194482D01*
X0273538Y0196881D02*
X0275373Y0196881D01*
X0275373Y0199279D02*
X0273538Y0199279D01*
X0273877Y0201678D02*
X0275373Y0201678D01*
X0275373Y0204076D02*
X0274673Y0204076D01*
X0274673Y0206475D02*
X0275373Y0206475D01*
X0274174Y0208873D02*
X0273326Y0208873D01*
X0271775Y0211272D02*
X0021773Y0211272D01*
X0072668Y0177693D02*
X0121084Y0177693D01*
X0123222Y0175294D02*
X0075067Y0175294D01*
X0076011Y0172896D02*
X0121896Y0172896D01*
X0120989Y0170497D02*
X0101981Y0170497D01*
X0102012Y0170467D02*
X0101678Y0170801D01*
X0101284Y0171064D01*
X0100848Y0171245D01*
X0100384Y0171337D01*
X0096979Y0171337D01*
X0096979Y0165769D01*
X0095442Y0165769D01*
X0095442Y0171337D01*
X0092037Y0171337D01*
X0091574Y0171245D01*
X0091137Y0171064D01*
X0090744Y0170801D01*
X0090409Y0170467D01*
X0090147Y0170074D01*
X0089966Y0169637D01*
X0089874Y0169173D01*
X0089874Y0165769D01*
X0095442Y0165769D01*
X0095442Y0164231D01*
X0096979Y0164231D01*
X0096979Y0158663D01*
X0100384Y0158663D01*
X0100848Y0158755D01*
X0101284Y0158936D01*
X0101678Y0159199D01*
X0102012Y0159533D01*
X0102274Y0159926D01*
X0102455Y0160363D01*
X0102548Y0160827D01*
X0102548Y0164231D01*
X0096979Y0164231D01*
X0096979Y0165769D01*
X0102548Y0165769D01*
X0102548Y0169173D01*
X0102455Y0169637D01*
X0102274Y0170074D01*
X0102012Y0170467D01*
X0102548Y0168099D02*
X0121333Y0168099D01*
X0121339Y0168081D02*
X0121696Y0167379D01*
X0122159Y0166743D01*
X0122716Y0166186D01*
X0123352Y0165724D01*
X0124053Y0165366D01*
X0124802Y0165123D01*
X0125579Y0165000D01*
X0128573Y0165000D01*
X0131566Y0165000D01*
X0132344Y0165123D01*
X0133092Y0165366D01*
X0133793Y0165724D01*
X0134430Y0166186D01*
X0134987Y0166743D01*
X0135449Y0167379D01*
X0135807Y0168081D01*
X0136050Y0168829D01*
X0136173Y0169606D01*
X0136173Y0170000D01*
X0128573Y0170000D01*
X0128573Y0170000D01*
X0128573Y0165000D01*
X0128573Y0170000D01*
X0128573Y0170000D01*
X0120973Y0170000D01*
X0120973Y0169606D01*
X0121096Y0168829D01*
X0121339Y0168081D01*
X0123398Y0165700D02*
X0096979Y0165700D01*
X0096211Y0165000D02*
X0093573Y0167638D01*
X0093573Y0170000D01*
X0095442Y0170497D02*
X0096979Y0170497D01*
X0096979Y0168099D02*
X0095442Y0168099D01*
X0095442Y0165700D02*
X0087672Y0165700D01*
X0087672Y0163302D02*
X0089874Y0163302D01*
X0089874Y0164231D02*
X0089874Y0160827D01*
X0089966Y0160363D01*
X0090147Y0159926D01*
X0090409Y0159533D01*
X0090744Y0159199D01*
X0091137Y0158936D01*
X0091574Y0158755D01*
X0092037Y0158663D01*
X0095442Y0158663D01*
X0095442Y0164231D01*
X0089874Y0164231D01*
X0089874Y0160903D02*
X0087672Y0160903D01*
X0086013Y0158505D02*
X0105455Y0158505D01*
X0105920Y0158970D02*
X0104603Y0157653D01*
X0103890Y0155931D01*
X0103890Y0154069D01*
X0104603Y0152347D01*
X0105920Y0151030D01*
X0107641Y0150317D01*
X0107881Y0150317D01*
X0119773Y0138426D01*
X0119773Y0138105D01*
X0119603Y0137935D01*
X0118890Y0136214D01*
X0118890Y0134351D01*
X0119603Y0132630D01*
X0120920Y0131313D01*
X0122641Y0130600D01*
X0124504Y0130600D01*
X0126225Y0131313D01*
X0127543Y0132630D01*
X0128255Y0134351D01*
X0128255Y0136214D01*
X0127543Y0137935D01*
X0127373Y0138105D01*
X0127373Y0140756D01*
X0126794Y0142153D01*
X0125725Y0143221D01*
X0113629Y0155317D01*
X0114504Y0155317D01*
X0116225Y0156030D01*
X0116395Y0156200D01*
X0120216Y0156200D01*
X0122107Y0154309D01*
X0122107Y0154069D01*
X0122820Y0152347D01*
X0124138Y0151030D01*
X0125859Y0150317D01*
X0127722Y0150317D01*
X0127836Y0150365D01*
X0127884Y0150249D01*
X0128672Y0149461D01*
X0129701Y0149035D01*
X0134752Y0149035D01*
X0135573Y0149375D01*
X0136394Y0149035D01*
X0141445Y0149035D01*
X0142474Y0149461D01*
X0143262Y0150249D01*
X0143688Y0151278D01*
X0143688Y0154741D01*
X0143877Y0154930D01*
X0144117Y0154930D01*
X0144800Y0155213D01*
X0159835Y0155213D01*
X0161452Y0155883D01*
X0162690Y0157121D01*
X0163360Y0158738D01*
X0163360Y0158773D01*
X0163642Y0159455D01*
X0163642Y0161318D01*
X0162930Y0163039D01*
X0161612Y0164357D01*
X0159891Y0165070D01*
X0158028Y0165070D01*
X0156307Y0164357D01*
X0155964Y0164013D01*
X0144800Y0164013D01*
X0144117Y0164296D01*
X0142254Y0164296D01*
X0140533Y0163583D01*
X0139216Y0162266D01*
X0138503Y0160545D01*
X0138503Y0160304D01*
X0137164Y0158965D01*
X0136394Y0158965D01*
X0135573Y0158625D01*
X0134752Y0158965D01*
X0129701Y0158965D01*
X0129521Y0158891D01*
X0129443Y0158970D01*
X0127722Y0159683D01*
X0127481Y0159683D01*
X0125012Y0162153D01*
X0123943Y0163221D01*
X0122546Y0163800D01*
X0116395Y0163800D01*
X0116225Y0163970D01*
X0114504Y0164683D01*
X0112641Y0164683D01*
X0110920Y0163970D01*
X0109603Y0162653D01*
X0108890Y0160931D01*
X0108890Y0159683D01*
X0107641Y0159683D01*
X0105920Y0158970D01*
X0108890Y0160903D02*
X0102548Y0160903D01*
X0102548Y0163302D02*
X0110252Y0163302D01*
X0116301Y0156106D02*
X0120310Y0156106D01*
X0122257Y0153708D02*
X0115239Y0153708D01*
X0117638Y0151309D02*
X0123859Y0151309D01*
X0120036Y0148911D02*
X0176360Y0148911D01*
X0174954Y0146512D02*
X0122435Y0146512D01*
X0124833Y0144114D02*
X0174773Y0144114D01*
X0175623Y0141715D02*
X0126975Y0141715D01*
X0127373Y0139317D02*
X0177219Y0139317D01*
X0175493Y0136918D02*
X0127964Y0136918D01*
X0128255Y0134520D02*
X0175194Y0134520D01*
X0175173Y0134654D02*
X0175306Y0133814D01*
X0175568Y0133006D01*
X0175954Y0132249D01*
X0176454Y0131561D01*
X0177055Y0130960D01*
X0177743Y0130460D01*
X0178500Y0130074D01*
X0179308Y0129812D01*
X0180148Y0129679D01*
X0183573Y0129679D01*
X0183573Y0135079D01*
X0183573Y0135079D01*
X0175173Y0135079D01*
X0175173Y0134654D01*
X0176047Y0132121D02*
X0127034Y0132121D01*
X0120112Y0132121D02*
X0068240Y0132121D01*
X0070638Y0129723D02*
X0179871Y0129723D01*
X0183573Y0129723D02*
X0183573Y0129723D01*
X0183573Y0132121D02*
X0183573Y0132121D01*
X0183573Y0134520D02*
X0183573Y0134520D01*
X0187275Y0129723D02*
X0219871Y0129723D01*
X0220148Y0129679D02*
X0223573Y0129679D01*
X0226998Y0129679D01*
X0227837Y0129812D01*
X0228646Y0130074D01*
X0229403Y0130460D01*
X0230091Y0130960D01*
X0230692Y0131561D01*
X0231191Y0132249D01*
X0231577Y0133006D01*
X0231840Y0133814D01*
X0231973Y0134654D01*
X0231973Y0135079D01*
X0223573Y0135079D01*
X0223573Y0135079D01*
X0223573Y0135079D01*
X0223573Y0129679D01*
X0223573Y0135079D01*
X0223573Y0135079D01*
X0215173Y0135079D01*
X0215173Y0134654D01*
X0215306Y0133814D01*
X0215568Y0133006D01*
X0215954Y0132249D01*
X0216454Y0131561D01*
X0217055Y0130960D01*
X0217743Y0130460D01*
X0218500Y0130074D01*
X0219308Y0129812D01*
X0220148Y0129679D01*
X0223573Y0129723D02*
X0223573Y0129723D01*
X0223573Y0132121D02*
X0223573Y0132121D01*
X0223573Y0134520D02*
X0223573Y0134520D01*
X0227275Y0129723D02*
X0233479Y0129723D01*
X0233073Y0132121D02*
X0231099Y0132121D01*
X0231952Y0134520D02*
X0232613Y0134520D01*
X0232107Y0136918D02*
X0231653Y0136918D01*
X0232107Y0139317D02*
X0229927Y0139317D01*
X0223648Y0144846D02*
X0237073Y0144846D01*
X0242038Y0144114D02*
X0251892Y0144114D01*
X0250401Y0141715D02*
X0241787Y0141715D01*
X0242038Y0139317D02*
X0250239Y0139317D01*
X0250173Y0139732D02*
X0250306Y0138893D01*
X0250568Y0138085D01*
X0250954Y0137327D01*
X0251454Y0136640D01*
X0252055Y0136039D01*
X0252743Y0135539D01*
X0253500Y0135153D01*
X0254308Y0134890D01*
X0255148Y0134757D01*
X0258573Y0134757D01*
X0261998Y0134757D01*
X0262837Y0134890D01*
X0263646Y0135153D01*
X0264403Y0135539D01*
X0265091Y0136039D01*
X0265692Y0136640D01*
X0266191Y0137327D01*
X0266577Y0138085D01*
X0266840Y0138893D01*
X0266973Y0139732D01*
X0266973Y0140157D01*
X0258573Y0140157D01*
X0258573Y0134757D01*
X0258573Y0140157D01*
X0258573Y0140157D01*
X0258573Y0140158D01*
X0258573Y0140157D01*
X0250173Y0140157D01*
X0250173Y0139732D01*
X0251252Y0136918D02*
X0242038Y0136918D01*
X0237073Y0138154D02*
X0237073Y0131500D01*
X0238573Y0130000D01*
X0242763Y0132121D02*
X0285373Y0132121D01*
X0285373Y0129723D02*
X0243255Y0129723D01*
X0242519Y0127324D02*
X0285373Y0127324D01*
X0285373Y0124926D02*
X0272277Y0124926D01*
X0272478Y0124842D02*
X0271449Y0125268D01*
X0266004Y0125268D01*
X0264975Y0124842D01*
X0264187Y0124055D01*
X0263761Y0123025D01*
X0263761Y0117975D01*
X0264187Y0116945D01*
X0264252Y0116881D01*
X0263656Y0116285D01*
X0263652Y0116275D01*
X0263647Y0116285D01*
X0262016Y0117917D01*
X0259884Y0118800D01*
X0257577Y0118800D01*
X0255445Y0117917D01*
X0253813Y0116285D01*
X0252930Y0114154D01*
X0252930Y0105846D01*
X0253813Y0103715D01*
X0255445Y0102083D01*
X0257577Y0101200D01*
X0259884Y0101200D01*
X0262016Y0102083D01*
X0263647Y0103715D01*
X0263652Y0103725D01*
X0263656Y0103715D01*
X0265287Y0102083D01*
X0267419Y0101200D01*
X0269727Y0101200D01*
X0271858Y0102083D01*
X0273490Y0103715D01*
X0273732Y0104298D01*
X0273797Y0104170D01*
X0274296Y0103482D01*
X0274897Y0102881D01*
X0275585Y0102382D01*
X0276342Y0101996D01*
X0277151Y0101733D01*
X0277990Y0101600D01*
X0278415Y0101600D01*
X0278415Y0110000D01*
X0278415Y0110000D01*
X0278415Y0101600D01*
X0278840Y0101600D01*
X0279680Y0101733D01*
X0280488Y0101996D01*
X0281246Y0102382D01*
X0281933Y0102881D01*
X0282534Y0103482D01*
X0283034Y0104170D01*
X0283420Y0104927D01*
X0283682Y0105735D01*
X0283815Y0106575D01*
X0283815Y0110000D01*
X0283815Y0113425D01*
X0283682Y0114265D01*
X0283420Y0115073D01*
X0283034Y0115830D01*
X0282534Y0116518D01*
X0281933Y0117119D01*
X0281246Y0117618D01*
X0280488Y0118004D01*
X0279961Y0118176D01*
X0279985Y0118295D01*
X0279985Y0120500D01*
X0279985Y0122705D01*
X0279892Y0123169D01*
X0279711Y0123605D01*
X0279449Y0123998D01*
X0279115Y0124333D01*
X0278721Y0124595D01*
X0278285Y0124776D01*
X0277821Y0124868D01*
X0275419Y0124868D01*
X0273018Y0124868D01*
X0272554Y0124776D01*
X0272547Y0124773D01*
X0272478Y0124842D01*
X0275419Y0124868D02*
X0275419Y0120500D01*
X0275419Y0120500D01*
X0275419Y0124868D01*
X0275419Y0122527D02*
X0275419Y0122527D01*
X0275419Y0120500D02*
X0279985Y0120500D01*
X0275419Y0120500D01*
X0275419Y0120500D01*
X0279985Y0120129D02*
X0285373Y0120129D01*
X0285373Y0122527D02*
X0279985Y0122527D01*
X0281027Y0117730D02*
X0285373Y0117730D01*
X0285373Y0115332D02*
X0283288Y0115332D01*
X0283815Y0112933D02*
X0285373Y0112933D01*
X0285373Y0110534D02*
X0283815Y0110534D01*
X0283815Y0110000D02*
X0278415Y0110000D01*
X0278415Y0110000D01*
X0283815Y0110000D01*
X0283815Y0108136D02*
X0285373Y0108136D01*
X0285373Y0105737D02*
X0283683Y0105737D01*
X0282391Y0103339D02*
X0285373Y0103339D01*
X0285373Y0100940D02*
X0246453Y0100940D01*
X0247188Y0103339D02*
X0254189Y0103339D01*
X0252975Y0105737D02*
X0247188Y0105737D01*
X0247016Y0108136D02*
X0252930Y0108136D01*
X0252930Y0110534D02*
X0243322Y0110534D01*
X0242510Y0112933D02*
X0252930Y0112933D01*
X0253418Y0115332D02*
X0228188Y0115332D01*
X0227283Y0117730D02*
X0255258Y0117730D01*
X0262203Y0117730D02*
X0263862Y0117730D01*
X0263761Y0120129D02*
X0148255Y0120129D01*
X0148255Y0120931D02*
X0147543Y0122653D01*
X0146225Y0123970D01*
X0144504Y0124683D01*
X0142641Y0124683D01*
X0140920Y0123970D01*
X0139603Y0122653D01*
X0138890Y0120931D01*
X0138890Y0119069D01*
X0139603Y0117347D01*
X0140920Y0116030D01*
X0142641Y0115317D01*
X0144504Y0115317D01*
X0146225Y0116030D01*
X0147543Y0117347D01*
X0148255Y0119069D01*
X0148255Y0120931D01*
X0147595Y0122527D02*
X0263761Y0122527D01*
X0265176Y0124926D02*
X0102336Y0124926D01*
X0102274Y0125074D02*
X0102012Y0125467D01*
X0101678Y0125801D01*
X0101284Y0126064D01*
X0100848Y0126245D01*
X0100384Y0126337D01*
X0096979Y0126337D01*
X0096979Y0120769D01*
X0095442Y0120769D01*
X0095442Y0126337D01*
X0092037Y0126337D01*
X0091574Y0126245D01*
X0091137Y0126064D01*
X0090744Y0125801D01*
X0090409Y0125467D01*
X0090147Y0125074D01*
X0089966Y0124637D01*
X0089874Y0124173D01*
X0089874Y0120769D01*
X0095442Y0120769D01*
X0095442Y0119231D01*
X0096979Y0119231D01*
X0096979Y0113663D01*
X0100384Y0113663D01*
X0100848Y0113755D01*
X0101284Y0113936D01*
X0101678Y0114199D01*
X0102012Y0114533D01*
X0102274Y0114926D01*
X0102455Y0115363D01*
X0102548Y0115827D01*
X0102548Y0119231D01*
X0096979Y0119231D01*
X0096979Y0120769D01*
X0102548Y0120769D01*
X0102548Y0124173D01*
X0102455Y0124637D01*
X0102274Y0125074D01*
X0102548Y0122527D02*
X0139551Y0122527D01*
X0138890Y0120129D02*
X0096979Y0120129D01*
X0095442Y0120129D02*
X0087672Y0120129D01*
X0089874Y0119231D02*
X0089874Y0115827D01*
X0089966Y0115363D01*
X0090147Y0114926D01*
X0090409Y0114533D01*
X0090744Y0114199D01*
X0091137Y0113936D01*
X0091574Y0113755D01*
X0092037Y0113663D01*
X0095442Y0113663D01*
X0095442Y0119231D01*
X0089874Y0119231D01*
X0089874Y0117730D02*
X0087672Y0117730D01*
X0087600Y0115332D02*
X0089979Y0115332D01*
X0095442Y0115332D02*
X0096979Y0115332D01*
X0096979Y0117730D02*
X0095442Y0117730D01*
X0095442Y0122527D02*
X0096979Y0122527D01*
X0096979Y0124926D02*
X0095442Y0124926D01*
X0090085Y0124926D02*
X0087493Y0124926D01*
X0087672Y0122527D02*
X0089874Y0122527D01*
X0092037Y0111337D02*
X0091574Y0111245D01*
X0091137Y0111064D01*
X0090744Y0110801D01*
X0090409Y0110467D01*
X0090147Y0110074D01*
X0089966Y0109637D01*
X0089874Y0109173D01*
X0089874Y0105769D01*
X0095442Y0105769D01*
X0095442Y0111337D01*
X0092037Y0111337D01*
X0090477Y0110534D02*
X0087234Y0110534D01*
X0087672Y0108136D02*
X0089874Y0108136D01*
X0087672Y0105737D02*
X0095442Y0105737D01*
X0095442Y0105769D02*
X0095442Y0104231D01*
X0096979Y0104231D01*
X0096979Y0098663D01*
X0100384Y0098663D01*
X0100848Y0098755D01*
X0101284Y0098936D01*
X0101678Y0099199D01*
X0102012Y0099533D01*
X0102274Y0099926D01*
X0102455Y0100363D01*
X0102548Y0100827D01*
X0102548Y0104231D01*
X0096979Y0104231D01*
X0096979Y0105769D01*
X0095442Y0105769D01*
X0096979Y0105769D02*
X0096979Y0111337D01*
X0100384Y0111337D01*
X0100848Y0111245D01*
X0101284Y0111064D01*
X0101678Y0110801D01*
X0102012Y0110467D01*
X0102274Y0110074D01*
X0102455Y0109637D01*
X0102548Y0109173D01*
X0102548Y0105769D01*
X0096979Y0105769D01*
X0096979Y0105737D02*
X0174773Y0105737D01*
X0174950Y0103339D02*
X0102548Y0103339D01*
X0102548Y0100940D02*
X0176351Y0100940D01*
X0176414Y0098542D02*
X0086102Y0098542D01*
X0087672Y0100940D02*
X0089874Y0100940D01*
X0089874Y0100827D02*
X0089966Y0100363D01*
X0090147Y0099926D01*
X0090409Y0099533D01*
X0090744Y0099199D01*
X0091137Y0098936D01*
X0091574Y0098755D01*
X0092037Y0098663D01*
X0095442Y0098663D01*
X0095442Y0104231D01*
X0089874Y0104231D01*
X0089874Y0100827D01*
X0089874Y0103339D02*
X0087672Y0103339D01*
X0095442Y0103339D02*
X0096979Y0103339D01*
X0096979Y0100940D02*
X0095442Y0100940D01*
X0095442Y0108136D02*
X0096979Y0108136D01*
X0096979Y0110534D02*
X0095442Y0110534D01*
X0101944Y0110534D02*
X0178968Y0110534D01*
X0175627Y0108136D02*
X0102548Y0108136D01*
X0102442Y0115332D02*
X0142607Y0115332D01*
X0144539Y0115332D02*
X0211958Y0115332D01*
X0212863Y0117730D02*
X0147701Y0117730D01*
X0139445Y0117730D02*
X0102548Y0117730D01*
X0118890Y0134520D02*
X0065205Y0134520D01*
X0067279Y0136918D02*
X0119182Y0136918D01*
X0118882Y0139317D02*
X0069678Y0139317D01*
X0072076Y0141715D02*
X0116484Y0141715D01*
X0114085Y0144114D02*
X0101550Y0144114D01*
X0101678Y0144199D02*
X0102012Y0144533D01*
X0102274Y0144926D01*
X0102455Y0145363D01*
X0102548Y0145827D01*
X0102548Y0149231D01*
X0096979Y0149231D01*
X0096979Y0143663D01*
X0100384Y0143663D01*
X0100848Y0143755D01*
X0101284Y0143936D01*
X0101678Y0144199D01*
X0102548Y0146512D02*
X0111687Y0146512D01*
X0109288Y0148911D02*
X0102548Y0148911D01*
X0102548Y0150769D02*
X0102548Y0154173D01*
X0102455Y0154637D01*
X0102274Y0155074D01*
X0102012Y0155467D01*
X0101678Y0155801D01*
X0101284Y0156064D01*
X0100848Y0156245D01*
X0100384Y0156337D01*
X0096979Y0156337D01*
X0096979Y0150769D01*
X0095442Y0150769D01*
X0095442Y0156337D01*
X0092037Y0156337D01*
X0091574Y0156245D01*
X0091137Y0156064D01*
X0090744Y0155801D01*
X0090409Y0155467D01*
X0090147Y0155074D01*
X0089966Y0154637D01*
X0089874Y0154173D01*
X0089874Y0150769D01*
X0095442Y0150769D01*
X0095442Y0149231D01*
X0096979Y0149231D01*
X0096979Y0150769D01*
X0102548Y0150769D01*
X0102548Y0151309D02*
X0105641Y0151309D01*
X0104040Y0153708D02*
X0102548Y0153708D01*
X0101182Y0156106D02*
X0103963Y0156106D01*
X0096979Y0156106D02*
X0095442Y0156106D01*
X0095442Y0153708D02*
X0096979Y0153708D01*
X0096979Y0151309D02*
X0095442Y0151309D01*
X0095442Y0149231D02*
X0089874Y0149231D01*
X0089874Y0145827D01*
X0089966Y0145363D01*
X0090147Y0144926D01*
X0090409Y0144533D01*
X0090744Y0144199D01*
X0091137Y0143936D01*
X0091574Y0143755D01*
X0092037Y0143663D01*
X0095442Y0143663D01*
X0095442Y0149231D01*
X0095442Y0148911D02*
X0096979Y0148911D01*
X0096979Y0146512D02*
X0095442Y0146512D01*
X0095442Y0144114D02*
X0096979Y0144114D01*
X0090871Y0144114D02*
X0086883Y0144114D01*
X0087672Y0146512D02*
X0089874Y0146512D01*
X0089874Y0148911D02*
X0087672Y0148911D01*
X0087672Y0151309D02*
X0089874Y0151309D01*
X0089874Y0153708D02*
X0087672Y0153708D01*
X0086663Y0156106D02*
X0091239Y0156106D01*
X0095442Y0160903D02*
X0096979Y0160903D01*
X0096979Y0163302D02*
X0095442Y0163302D01*
X0089874Y0168099D02*
X0087672Y0168099D01*
X0087256Y0170497D02*
X0090440Y0170497D01*
X0066133Y0158505D02*
X0061013Y0158505D01*
X0061663Y0156106D02*
X0065483Y0156106D01*
X0064474Y0153708D02*
X0062672Y0153708D01*
X0062672Y0151309D02*
X0064474Y0151309D01*
X0064474Y0148911D02*
X0062672Y0148911D01*
X0062672Y0146512D02*
X0063297Y0146512D01*
X0062672Y0160903D02*
X0064474Y0160903D01*
X0064474Y0163302D02*
X0062672Y0163302D01*
X0062672Y0165700D02*
X0064474Y0165700D01*
X0064474Y0168099D02*
X0062672Y0168099D01*
X0073037Y0127324D02*
X0234626Y0127324D01*
X0241533Y0134520D02*
X0285373Y0134520D01*
X0285373Y0136918D02*
X0265894Y0136918D01*
X0266907Y0139317D02*
X0285373Y0139317D01*
X0285373Y0141715D02*
X0266745Y0141715D01*
X0265253Y0144114D02*
X0285373Y0144114D01*
X0285373Y0146512D02*
X0266287Y0146512D01*
X0267373Y0148911D02*
X0285373Y0148911D01*
X0285373Y0151309D02*
X0267308Y0151309D01*
X0266068Y0153708D02*
X0284340Y0153708D01*
X0281941Y0156106D02*
X0266039Y0156106D01*
X0267297Y0158505D02*
X0279543Y0158505D01*
X0277144Y0160903D02*
X0267373Y0160903D01*
X0266316Y0163302D02*
X0275398Y0163302D01*
X0275373Y0165700D02*
X0229661Y0165700D01*
X0232059Y0163302D02*
X0250830Y0163302D01*
X0249773Y0160903D02*
X0234458Y0160903D01*
X0236856Y0158505D02*
X0249849Y0158505D01*
X0251107Y0156106D02*
X0239255Y0156106D01*
X0232874Y0148911D02*
X0230786Y0148911D01*
X0230850Y0148846D02*
X0229858Y0149838D01*
X0227727Y0150721D01*
X0219419Y0150721D01*
X0217287Y0149838D01*
X0217022Y0149573D01*
X0217022Y0155356D01*
X0216596Y0156385D01*
X0215809Y0157173D01*
X0214779Y0157599D01*
X0211843Y0157599D01*
X0211247Y0159040D01*
X0210121Y0160165D01*
X0206655Y0163631D01*
X0207226Y0163631D01*
X0207226Y0168000D01*
X0207226Y0168000D01*
X0207226Y0168000D01*
X0207226Y0163631D01*
X0209628Y0163631D01*
X0210092Y0163724D01*
X0210099Y0163727D01*
X0210168Y0163658D01*
X0211197Y0163231D01*
X0216642Y0163231D01*
X0217671Y0163658D01*
X0218458Y0164445D01*
X0218773Y0165205D01*
X0218773Y0164045D01*
X0219504Y0162281D01*
X0232938Y0148846D01*
X0230850Y0148846D01*
X0230475Y0151309D02*
X0217022Y0151309D01*
X0217022Y0153708D02*
X0228077Y0153708D01*
X0225678Y0156106D02*
X0216712Y0156106D01*
X0211468Y0158505D02*
X0223280Y0158505D01*
X0220881Y0160903D02*
X0209383Y0160903D01*
X0210121Y0160165D02*
X0210121Y0160165D01*
X0207856Y0156774D02*
X0204101Y0160528D01*
X0203045Y0160528D01*
X0195448Y0160528D01*
X0195419Y0160500D01*
X0197919Y0155000D02*
X0203573Y0155000D01*
X0207856Y0155457D02*
X0207856Y0156774D01*
X0207856Y0155457D02*
X0211073Y0152240D01*
X0211073Y0144760D02*
X0203573Y0144760D01*
X0203573Y0145000D01*
X0195419Y0144546D02*
X0195419Y0152500D01*
X0197919Y0155000D01*
X0188726Y0152500D02*
X0188726Y0160500D01*
X0183958Y0160903D02*
X0163642Y0160903D01*
X0162667Y0163302D02*
X0183991Y0163302D01*
X0183958Y0158505D02*
X0163263Y0158505D01*
X0161675Y0156106D02*
X0184324Y0156106D01*
X0183146Y0153708D02*
X0143688Y0153708D01*
X0143688Y0151309D02*
X0180747Y0151309D01*
X0194573Y0143700D02*
X0195419Y0144546D01*
X0210388Y0139317D02*
X0217219Y0139317D01*
X0215493Y0136918D02*
X0212847Y0136918D01*
X0213255Y0134520D02*
X0215194Y0134520D01*
X0216047Y0132121D02*
X0212316Y0132121D01*
X0223648Y0144846D02*
X0223573Y0144921D01*
X0219081Y0163302D02*
X0216811Y0163302D01*
X0211027Y0163302D02*
X0206985Y0163302D01*
X0207226Y0165700D02*
X0207226Y0165700D01*
X0202680Y0165700D02*
X0133748Y0165700D01*
X0135812Y0168099D02*
X0202661Y0168099D01*
X0199918Y0170497D02*
X0197228Y0170497D01*
X0189918Y0170497D02*
X0186509Y0170497D01*
X0183573Y0170497D02*
X0183573Y0170497D01*
X0183573Y0169631D02*
X0183573Y0175000D01*
X0183573Y0175000D01*
X0183573Y0169631D01*
X0180637Y0170497D02*
X0177228Y0170497D01*
X0183573Y0172896D02*
X0183573Y0172896D01*
X0169918Y0170497D02*
X0166509Y0170497D01*
X0163573Y0170497D02*
X0163573Y0170497D01*
X0163573Y0169631D02*
X0163573Y0175000D01*
X0163573Y0175000D01*
X0163573Y0169631D01*
X0160637Y0170497D02*
X0136156Y0170497D01*
X0135249Y0172896D02*
X0158620Y0172896D01*
X0158204Y0175000D02*
X0163573Y0175000D01*
X0163573Y0175000D01*
X0158204Y0175000D01*
X0158204Y0175294D02*
X0154963Y0175294D01*
X0152183Y0175294D02*
X0133923Y0175294D01*
X0128573Y0170000D02*
X0128573Y0170000D01*
X0128573Y0168099D02*
X0128573Y0168099D01*
X0128573Y0165700D02*
X0128573Y0165700D01*
X0123749Y0163302D02*
X0140252Y0163302D01*
X0138652Y0160903D02*
X0126261Y0160903D01*
X0157899Y0177693D02*
X0158920Y0177693D01*
X0158452Y0180091D02*
X0160350Y0180091D01*
X0158369Y0182490D02*
X0157823Y0182490D01*
X0157804Y0184888D02*
X0153452Y0184888D01*
X0152907Y0187287D02*
X0158276Y0187287D01*
X0148573Y0185000D02*
X0143573Y0190000D01*
X0128573Y0190000D01*
X0134327Y0194482D02*
X0264166Y0194482D01*
X0275373Y0184888D02*
X0229341Y0184888D01*
X0228777Y0182490D02*
X0275373Y0182490D01*
X0275373Y0180091D02*
X0226796Y0180091D01*
X0228701Y0177693D02*
X0275373Y0177693D01*
X0275373Y0175294D02*
X0229341Y0175294D01*
X0228945Y0172896D02*
X0275373Y0172896D01*
X0275373Y0170497D02*
X0227228Y0170497D01*
X0227262Y0168099D02*
X0275373Y0168099D01*
X0258573Y0139317D02*
X0258573Y0139317D01*
X0258573Y0136918D02*
X0258573Y0136918D01*
X0234636Y0112933D02*
X0228373Y0112933D01*
X0228373Y0110534D02*
X0233890Y0110534D01*
X0238573Y0110248D02*
X0242419Y0105000D01*
X0263272Y0103339D02*
X0264031Y0103339D01*
X0273114Y0103339D02*
X0274440Y0103339D01*
X0278415Y0103339D02*
X0278415Y0103339D01*
X0278415Y0105737D02*
X0278415Y0105737D01*
X0278415Y0108136D02*
X0278415Y0108136D01*
X0216726Y0113500D02*
X0213573Y0110346D01*
X0213573Y0110000D01*
X0209884Y0112933D02*
X0058873Y0112933D01*
X0062234Y0110534D02*
X0064911Y0110534D01*
X0064474Y0108136D02*
X0062672Y0108136D01*
X0062672Y0105737D02*
X0064474Y0105737D01*
X0064474Y0103339D02*
X0062672Y0103339D01*
X0062672Y0100940D02*
X0062725Y0100940D01*
X0069106Y0093745D02*
X0175328Y0093745D01*
X0175306Y0093814D02*
X0175568Y0093006D01*
X0175954Y0092249D01*
X0176454Y0091561D01*
X0177055Y0090960D01*
X0177743Y0090460D01*
X0178500Y0090074D01*
X0179308Y0089812D01*
X0180148Y0089679D01*
X0183573Y0089679D01*
X0183573Y0095079D01*
X0183573Y0095079D01*
X0175173Y0095079D01*
X0175173Y0094654D01*
X0175306Y0093814D01*
X0175274Y0096143D02*
X0071504Y0096143D01*
X0066707Y0091346D02*
X0176668Y0091346D01*
X0183573Y0091346D02*
X0183573Y0091346D01*
X0183573Y0093745D02*
X0183573Y0093745D01*
X0174773Y0064963D02*
X0052753Y0064963D01*
X0054677Y0062564D02*
X0125825Y0062564D01*
X0128730Y0062564D02*
X0128730Y0062564D01*
X0128730Y0060166D02*
X0128730Y0060166D01*
X0128730Y0057767D02*
X0128730Y0057767D01*
X0128730Y0055369D02*
X0128730Y0055369D01*
X0123330Y0055369D02*
X0061807Y0055369D01*
X0062800Y0052970D02*
X0123330Y0052970D01*
X0123516Y0050572D02*
X0062948Y0050572D01*
X0064691Y0048173D02*
X0124920Y0048173D01*
X0128730Y0048173D02*
X0128730Y0048173D01*
X0128730Y0050572D02*
X0128730Y0050572D01*
X0132540Y0048173D02*
X0132919Y0048173D01*
X0132919Y0045775D02*
X0066185Y0045775D01*
X0067029Y0043376D02*
X0126115Y0043376D01*
X0125661Y0040978D02*
X0067396Y0040978D01*
X0067342Y0038579D02*
X0085062Y0038579D01*
X0084943Y0038518D02*
X0084255Y0038019D01*
X0083654Y0037418D01*
X0083154Y0036730D01*
X0082768Y0035973D01*
X0082506Y0035165D01*
X0082373Y0034325D01*
X0082373Y0033900D01*
X0082373Y0033475D01*
X0082506Y0032635D01*
X0082768Y0031827D01*
X0083154Y0031070D01*
X0083654Y0030382D01*
X0084255Y0029781D01*
X0084943Y0029282D01*
X0085700Y0028896D01*
X0086508Y0028633D01*
X0087348Y0028500D01*
X0090773Y0028500D01*
X0094198Y0028500D01*
X0095037Y0028633D01*
X0095846Y0028896D01*
X0096603Y0029282D01*
X0097291Y0029781D01*
X0097892Y0030382D01*
X0098391Y0031070D01*
X0098777Y0031827D01*
X0099040Y0032635D01*
X0099173Y0033475D01*
X0099173Y0033900D01*
X0099173Y0034325D01*
X0099040Y0035165D01*
X0098777Y0035973D01*
X0098391Y0036730D01*
X0097892Y0037418D01*
X0097291Y0038019D01*
X0096603Y0038518D01*
X0095846Y0038904D01*
X0095037Y0039167D01*
X0094198Y0039300D01*
X0090773Y0039300D01*
X0090773Y0033900D01*
X0099173Y0033900D01*
X0090773Y0033900D01*
X0090773Y0033900D01*
X0090773Y0033900D01*
X0090773Y0028500D01*
X0090773Y0033900D01*
X0090773Y0033900D01*
X0090773Y0039300D01*
X0087348Y0039300D01*
X0086508Y0039167D01*
X0085700Y0038904D01*
X0084943Y0038518D01*
X0082874Y0036181D02*
X0066700Y0036181D01*
X0065474Y0033782D02*
X0082373Y0033782D01*
X0082373Y0033900D02*
X0090773Y0033900D01*
X0090773Y0033900D01*
X0082373Y0033900D01*
X0082994Y0031384D02*
X0063460Y0031384D01*
X0059885Y0028985D02*
X0085524Y0028985D01*
X0090773Y0028985D02*
X0090773Y0028985D01*
X0090773Y0031384D02*
X0090773Y0031384D01*
X0090773Y0033782D02*
X0090773Y0033782D01*
X0090773Y0036181D02*
X0090773Y0036181D01*
X0090773Y0038579D02*
X0090773Y0038579D01*
X0096484Y0038579D02*
X0110662Y0038579D01*
X0110543Y0038518D02*
X0109855Y0038019D01*
X0109254Y0037418D01*
X0108754Y0036730D01*
X0108368Y0035973D01*
X0108106Y0035165D01*
X0107973Y0034325D01*
X0107973Y0033900D01*
X0107973Y0033475D01*
X0108106Y0032635D01*
X0108368Y0031827D01*
X0108754Y0031070D01*
X0109254Y0030382D01*
X0109855Y0029781D01*
X0110543Y0029282D01*
X0111300Y0028896D01*
X0112108Y0028633D01*
X0112948Y0028500D01*
X0116373Y0028500D01*
X0116373Y0033900D01*
X0116373Y0033900D01*
X0116373Y0033900D01*
X0116373Y0039300D01*
X0112948Y0039300D01*
X0112108Y0039167D01*
X0111300Y0038904D01*
X0110543Y0038518D01*
X0108474Y0036181D02*
X0098671Y0036181D01*
X0099173Y0033782D02*
X0107973Y0033782D01*
X0107973Y0033900D02*
X0116373Y0033900D01*
X0116373Y0033900D01*
X0107973Y0033900D01*
X0108594Y0031384D02*
X0098551Y0031384D01*
X0096021Y0028985D02*
X0111124Y0028985D01*
X0116373Y0028985D02*
X0116373Y0028985D01*
X0116373Y0031384D02*
X0116373Y0031384D01*
X0116373Y0033782D02*
X0116373Y0033782D01*
X0116373Y0036181D02*
X0116373Y0036181D01*
X0116373Y0038579D02*
X0116373Y0038579D01*
X0122084Y0038579D02*
X0125661Y0038579D01*
X0126518Y0036181D02*
X0124271Y0036181D01*
X0124773Y0033782D02*
X0126698Y0033782D01*
X0124300Y0031384D02*
X0124151Y0031384D01*
X0119162Y0026587D02*
X0054226Y0026587D01*
X0054966Y0024188D02*
X0118890Y0024188D01*
X0123573Y0025000D02*
X0136919Y0038346D01*
X0136919Y0040000D01*
X0136919Y0053346D01*
X0138573Y0055000D01*
X0142948Y0048173D02*
X0144040Y0048173D01*
X0140919Y0045775D02*
X0168773Y0045775D01*
X0169958Y0048173D02*
X0152791Y0048173D01*
X0154102Y0050572D02*
X0177589Y0050572D01*
X0175587Y0052970D02*
X0154215Y0052970D01*
X0154215Y0055369D02*
X0175173Y0055369D01*
X0175882Y0057767D02*
X0154215Y0057767D01*
X0153796Y0060166D02*
X0177126Y0060166D01*
X0175271Y0062564D02*
X0152054Y0062564D01*
X0144777Y0062564D02*
X0142211Y0062564D01*
X0134935Y0062564D02*
X0131635Y0062564D01*
X0123773Y0060166D02*
X0057076Y0060166D01*
X0059474Y0057767D02*
X0123330Y0057767D01*
X0130226Y0043376D02*
X0130226Y0043376D01*
X0130226Y0040978D02*
X0130226Y0040978D01*
X0138012Y0033782D02*
X0239598Y0033782D01*
X0239598Y0033189D02*
X0243573Y0033189D01*
X0247548Y0033189D01*
X0247548Y0035788D01*
X0247455Y0036251D01*
X0247274Y0036688D01*
X0247012Y0037081D01*
X0246678Y0037415D01*
X0246284Y0037678D01*
X0245848Y0037859D01*
X0245384Y0037951D01*
X0243573Y0037951D01*
X0243573Y0033189D01*
X0243573Y0033189D01*
X0247548Y0033189D01*
X0247548Y0030590D01*
X0247455Y0030127D01*
X0247274Y0029690D01*
X0247012Y0029297D01*
X0246678Y0028963D01*
X0246284Y0028700D01*
X0245848Y0028519D01*
X0245384Y0028427D01*
X0243573Y0028427D01*
X0243573Y0033189D01*
X0243573Y0033189D01*
X0243573Y0033189D01*
X0243573Y0037951D01*
X0241762Y0037951D01*
X0241298Y0037859D01*
X0240861Y0037678D01*
X0240468Y0037415D01*
X0240134Y0037081D01*
X0239871Y0036688D01*
X0239690Y0036251D01*
X0239598Y0035788D01*
X0239598Y0033189D01*
X0239598Y0030590D01*
X0239690Y0030127D01*
X0239871Y0029690D01*
X0240134Y0029297D01*
X0240468Y0028963D01*
X0240861Y0028700D01*
X0241298Y0028519D01*
X0241762Y0028427D01*
X0243573Y0028427D01*
X0243573Y0033189D01*
X0243573Y0033189D01*
X0239598Y0033189D01*
X0239598Y0031384D02*
X0135613Y0031384D01*
X0133215Y0028985D02*
X0240446Y0028985D01*
X0243573Y0028985D02*
X0243573Y0028985D01*
X0243573Y0031384D02*
X0243573Y0031384D01*
X0243573Y0033782D02*
X0243573Y0033782D01*
X0243573Y0036181D02*
X0243573Y0036181D01*
X0247469Y0036181D02*
X0249228Y0036181D01*
X0249198Y0036108D02*
X0249624Y0037137D01*
X0250412Y0037925D01*
X0251441Y0038351D01*
X0255705Y0038351D01*
X0256734Y0037925D01*
X0257312Y0037346D01*
X0259479Y0037346D01*
X0259821Y0037689D01*
X0260851Y0038115D01*
X0266295Y0038115D01*
X0267324Y0037689D01*
X0268112Y0036901D01*
X0268538Y0035872D01*
X0268538Y0030821D01*
X0268198Y0030000D01*
X0268538Y0029179D01*
X0268538Y0024128D01*
X0268112Y0023099D01*
X0267324Y0022311D01*
X0266295Y0021885D01*
X0260851Y0021885D01*
X0259821Y0022311D01*
X0259034Y0023099D01*
X0258607Y0024128D01*
X0258607Y0029179D01*
X0258677Y0029346D01*
X0257565Y0029346D01*
X0257521Y0029241D01*
X0256734Y0028453D01*
X0255705Y0028027D01*
X0251441Y0028027D01*
X0250412Y0028453D01*
X0249624Y0029241D01*
X0249198Y0030270D01*
X0249198Y0036108D01*
X0249198Y0033782D02*
X0247548Y0033782D01*
X0247548Y0031384D02*
X0249198Y0031384D01*
X0249880Y0028985D02*
X0246700Y0028985D01*
X0253573Y0033189D02*
X0253730Y0033346D01*
X0263573Y0033346D01*
X0268538Y0033782D02*
X0285373Y0033782D01*
X0285373Y0031384D02*
X0268538Y0031384D01*
X0268538Y0028985D02*
X0285373Y0028985D01*
X0285373Y0026587D02*
X0268538Y0026587D01*
X0268538Y0024188D02*
X0283235Y0024188D01*
X0280837Y0021790D02*
X0126985Y0021790D01*
X0128418Y0024188D02*
X0258607Y0024188D01*
X0258607Y0026587D02*
X0130816Y0026587D01*
X0132808Y0019391D02*
X0134337Y0019391D01*
X0142808Y0019391D02*
X0144337Y0019391D01*
X0148573Y0015000D02*
X0141773Y0008200D01*
X0125373Y0008200D01*
X0117473Y0016100D01*
X0116373Y0016100D01*
X0090773Y0016100D01*
X0095193Y0021790D02*
X0111953Y0021790D01*
X0118119Y0009797D02*
X0021773Y0009797D01*
X0021773Y0012196D02*
X0036494Y0012196D01*
X0034000Y0014594D02*
X0021773Y0014594D01*
X0021773Y0016993D02*
X0032544Y0016993D01*
X0031753Y0019391D02*
X0021773Y0019391D01*
X0021773Y0021790D02*
X0042137Y0021790D01*
X0042137Y0024188D02*
X0044537Y0024188D01*
X0044537Y0021790D02*
X0086353Y0021790D01*
X0082861Y0019391D02*
X0054920Y0019391D01*
X0054129Y0016993D02*
X0081973Y0016993D01*
X0082119Y0014594D02*
X0052674Y0014594D01*
X0050179Y0012196D02*
X0083475Y0012196D01*
X0044537Y0012196D02*
X0042137Y0012196D01*
X0042137Y0014594D02*
X0044537Y0014594D01*
X0044537Y0016993D02*
X0042137Y0016993D01*
X0042137Y0019391D02*
X0044537Y0019391D01*
X0044537Y0026587D02*
X0042137Y0026587D01*
X0042137Y0028985D02*
X0044537Y0028985D01*
X0044537Y0031384D02*
X0042137Y0031384D01*
X0041759Y0033782D02*
X0044821Y0033782D01*
X0043596Y0036181D02*
X0042998Y0036181D01*
X0032447Y0026587D02*
X0021773Y0026587D01*
X0021773Y0024188D02*
X0031708Y0024188D01*
X0042479Y0045775D02*
X0044111Y0045775D01*
X0045605Y0048173D02*
X0040871Y0048173D01*
X0037992Y0050572D02*
X0044608Y0050572D01*
X0042210Y0052970D02*
X0021773Y0052970D01*
X0021773Y0050572D02*
X0025847Y0050572D01*
X0022968Y0048173D02*
X0021773Y0048173D01*
X0021773Y0055369D02*
X0024689Y0055369D01*
X0024598Y0057767D02*
X0021773Y0057767D01*
X0037272Y0057767D02*
X0038693Y0057767D01*
X0039530Y0055369D02*
X0037181Y0055369D01*
X0024238Y0079354D02*
X0021773Y0079354D01*
X0062600Y0115332D02*
X0064546Y0115332D01*
X0064474Y0117730D02*
X0062672Y0117730D01*
X0062672Y0120129D02*
X0064474Y0120129D01*
X0064258Y0122527D02*
X0062672Y0122527D01*
X0125788Y0084151D02*
X0136358Y0084151D01*
X0183573Y0055079D02*
X0183573Y0055079D01*
X0169050Y0043376D02*
X0141532Y0043376D01*
X0141885Y0040978D02*
X0170807Y0040978D01*
X0178966Y0038579D02*
X0141885Y0038579D01*
X0141194Y0036181D02*
X0180604Y0036181D01*
X0182243Y0019391D02*
X0184903Y0019391D01*
X0188573Y0019391D02*
X0188573Y0019391D01*
X0188573Y0016993D02*
X0188573Y0016993D01*
X0188573Y0015000D02*
X0188573Y0015000D01*
X0188573Y0014594D02*
X0188573Y0014594D01*
X0188573Y0012196D02*
X0188573Y0012196D01*
X0188573Y0009797D02*
X0188573Y0009797D01*
X0191431Y0009797D02*
X0195149Y0009797D01*
X0201997Y0009797D02*
X0215149Y0009797D01*
X0216046Y0008900D02*
X0212473Y0012473D01*
X0212473Y0017527D01*
X0216046Y0021100D01*
X0221100Y0021100D01*
X0223573Y0018627D01*
X0226046Y0021100D01*
X0231100Y0021100D01*
X0233573Y0018627D01*
X0236046Y0021100D01*
X0241100Y0021100D01*
X0243573Y0018627D01*
X0246046Y0021100D01*
X0251100Y0021100D01*
X0253573Y0018627D01*
X0256046Y0021100D01*
X0261100Y0021100D01*
X0263573Y0018627D01*
X0266046Y0021100D01*
X0271100Y0021100D01*
X0274673Y0017527D01*
X0274673Y0012473D01*
X0271100Y0008900D01*
X0266046Y0008900D01*
X0263573Y0011373D01*
X0261100Y0008900D01*
X0256046Y0008900D01*
X0253573Y0011373D01*
X0251100Y0008900D01*
X0246046Y0008900D01*
X0243573Y0011373D01*
X0241100Y0008900D01*
X0236046Y0008900D01*
X0233573Y0011373D01*
X0231100Y0008900D01*
X0226046Y0008900D01*
X0223573Y0011373D01*
X0221100Y0008900D01*
X0216046Y0008900D01*
X0212751Y0012196D02*
X0204395Y0012196D01*
X0204673Y0014594D02*
X0212473Y0014594D01*
X0212473Y0016993D02*
X0204673Y0016993D01*
X0202808Y0019391D02*
X0214337Y0019391D01*
X0222808Y0019391D02*
X0224337Y0019391D01*
X0232808Y0019391D02*
X0234337Y0019391D01*
X0242808Y0019391D02*
X0244337Y0019391D01*
X0252808Y0019391D02*
X0254337Y0019391D01*
X0262808Y0019391D02*
X0264337Y0019391D01*
X0272808Y0019391D02*
X0278438Y0019391D01*
X0276040Y0016993D02*
X0274673Y0016993D01*
X0274673Y0014594D02*
X0275373Y0014594D01*
X0275373Y0012196D02*
X0274395Y0012196D01*
X0275373Y0009797D02*
X0271997Y0009797D01*
X0265149Y0009797D02*
X0261997Y0009797D01*
X0255149Y0009797D02*
X0251997Y0009797D01*
X0245149Y0009797D02*
X0241997Y0009797D01*
X0235149Y0009797D02*
X0231997Y0009797D01*
X0225149Y0009797D02*
X0221997Y0009797D01*
X0194337Y0019391D02*
X0192243Y0019391D01*
X0185715Y0009797D02*
X0181431Y0009797D01*
X0178573Y0009797D02*
X0178573Y0009797D01*
X0178573Y0012196D02*
X0178573Y0012196D01*
X0178573Y0014594D02*
X0178573Y0014594D01*
X0178573Y0016993D02*
X0178573Y0016993D01*
X0178573Y0019391D02*
X0178573Y0019391D01*
X0174903Y0019391D02*
X0172808Y0019391D01*
X0164337Y0019391D02*
X0162808Y0019391D01*
X0154337Y0019391D02*
X0152808Y0019391D01*
X0151997Y0009797D02*
X0155149Y0009797D01*
X0161997Y0009797D02*
X0165149Y0009797D01*
X0171997Y0009797D02*
X0175715Y0009797D01*
X0216542Y0036181D02*
X0239676Y0036181D01*
X0257266Y0028985D02*
X0258607Y0028985D01*
X0268410Y0036181D02*
X0285373Y0036181D01*
X0285373Y0038579D02*
X0218940Y0038579D01*
X0191370Y0132121D02*
X0191099Y0132121D01*
X0163573Y0172896D02*
X0163573Y0172896D01*
X0187045Y0189685D02*
X0190100Y0189685D01*
X0197045Y0189685D02*
X0200100Y0189685D01*
X0207045Y0189685D02*
X0210943Y0189685D01*
X0213573Y0189685D02*
X0213573Y0189685D01*
X0213573Y0187287D02*
X0213573Y0187287D01*
X0216202Y0189685D02*
X0220100Y0189685D01*
X0223326Y0208873D02*
X0223820Y0208873D01*
X0233326Y0208873D02*
X0233820Y0208873D01*
X0243326Y0208873D02*
X0243820Y0208873D01*
X0253326Y0208873D02*
X0253820Y0208873D01*
X0263326Y0208873D02*
X0263820Y0208873D01*
X0213820Y0208873D02*
X0213326Y0208873D01*
X0203820Y0208873D02*
X0203326Y0208873D01*
D25*
X0213573Y0175000D02*
X0213573Y0168346D01*
X0213919Y0168000D01*
X0158960Y0160387D02*
X0158960Y0159613D01*
X0143186Y0159613D01*
X0255226Y0085000D02*
X0255226Y0079946D01*
X0278415Y0110000D02*
X0278573Y0110000D01*
D26*
X0278573Y0085000D02*
X0261919Y0085000D01*
X0261919Y0075000D02*
X0278573Y0075000D01*
X0248573Y0075000D02*
X0237373Y0063800D01*
X0237373Y0062515D01*
X0233858Y0059000D01*
X0232573Y0059000D01*
X0228573Y0055000D01*
X0213573Y0040000D01*
X0183573Y0040000D01*
X0181219Y0045000D02*
X0181419Y0045200D01*
X0208773Y0045200D01*
X0218573Y0055000D01*
X0181219Y0045000D02*
X0173573Y0045000D01*
X0223573Y0104921D02*
X0223573Y0105000D01*
X0235726Y0105000D01*
X0223573Y0105000D02*
X0223573Y0113346D01*
X0223419Y0113500D01*
X0183573Y0144921D02*
X0183573Y0147346D01*
X0188726Y0152500D01*
X0223573Y0165000D02*
X0238558Y0150015D01*
X0240564Y0150015D01*
X0240579Y0150000D01*
X0258573Y0150000D01*
X0073573Y0150000D02*
X0063573Y0140000D01*
X0033573Y0140000D01*
X0033573Y0130000D02*
X0063573Y0130000D01*
X0073573Y0120000D01*
X0071211Y0102638D02*
X0063573Y0095000D01*
X0052828Y0095000D01*
X0048298Y0099530D01*
X0048298Y0100275D01*
X0033573Y0115000D01*
X0033573Y0120000D01*
X0033573Y0160000D02*
X0048573Y0175000D01*
X0068573Y0175000D01*
X0071211Y0172362D01*
X0071211Y0165000D01*
D27*
X0126790Y0155000D02*
X0126790Y0154000D01*
X0132226Y0154000D01*
X0128573Y0180000D02*
X0153573Y0180000D01*
X0163573Y0185000D02*
X0168573Y0180000D01*
X0208573Y0180000D01*
X0213573Y0175000D01*
X0268573Y0198346D02*
X0268573Y0205000D01*
X0268726Y0120500D02*
X0268726Y0110154D01*
X0268573Y0110000D01*
D28*
X0208573Y0135000D02*
X0195673Y0135000D01*
X0194573Y0136100D01*
X0202573Y0139900D02*
X0203573Y0140900D01*
X0203573Y0145000D01*
X0143186Y0159613D02*
X0138919Y0155346D01*
X0138919Y0154000D01*
X0126790Y0155000D02*
X0121790Y0160000D01*
X0113573Y0160000D01*
X0108573Y0155000D02*
X0123573Y0140000D01*
X0123573Y0135283D01*
X0188073Y0084600D02*
X0203173Y0084600D01*
X0203573Y0085000D01*
X0138573Y0080000D02*
X0123573Y0080000D01*
D29*
X0053573Y0112500D03*
X0053573Y0157500D03*
X0148573Y0185000D03*
X0153573Y0180000D03*
D30*
X0080935Y0165000D02*
X0071211Y0165000D01*
X0055935Y0165000D02*
X0053573Y0162638D01*
X0053573Y0157500D01*
X0053573Y0152362D01*
X0055935Y0150000D01*
X0071211Y0150000D02*
X0073573Y0150000D01*
X0080935Y0150000D01*
X0080935Y0120000D02*
X0073573Y0120000D01*
X0055935Y0120000D02*
X0053573Y0117638D01*
X0053573Y0112500D01*
X0053573Y0107362D01*
X0055935Y0105000D01*
X0071211Y0105000D02*
X0071211Y0102638D01*
X0071211Y0105000D02*
X0080935Y0105000D01*
X0033573Y0150000D02*
X0033573Y0160000D01*
X0266919Y0060000D02*
X0278573Y0060000D01*
X0278573Y0050000D02*
X0266919Y0050000D01*
D31*
X0055148Y0051063D02*
X0055148Y0040394D01*
X0055148Y0051063D02*
X0046211Y0060000D01*
M02*
