G75*
%MOIN*%
%OFA0B0*%
%FSLAX25Y25*%
%IPPOS*%
%LPD*%
%AMOC8*
5,1,8,0,0,1.08239X$1,22.5*
%
%ADD10R,0.06299X0.10630*%
%ADD11R,0.10630X0.06299*%
%ADD12R,0.05906X0.05118*%
%ADD13R,0.05118X0.05906*%
%ADD14C,0.04000*%
%ADD15R,0.02500X0.07000*%
%ADD16R,0.02500X0.06500*%
%ADD17R,0.38600X0.24400*%
%ADD18R,0.12000X0.11500*%
%ADD19R,0.07900X0.05900*%
%ADD20R,0.07900X0.15000*%
%ADD21R,0.03150X0.04724*%
%ADD22R,0.04724X0.04724*%
%ADD23R,0.06299X0.07098*%
%ADD24R,0.07098X0.06299*%
%ADD25R,0.05000X0.10000*%
D10*
X0098061Y0045000D03*
X0109085Y0045000D03*
D11*
X0133573Y0035512D03*
X0133573Y0024488D03*
X0148573Y0024488D03*
X0148573Y0035512D03*
X0073573Y0040512D03*
X0073573Y0029488D03*
D12*
X0131573Y0077760D03*
X0131573Y0085240D03*
X0074073Y0115260D03*
X0074073Y0122740D03*
X0063073Y0108740D03*
X0063073Y0101260D03*
X0073573Y0146260D03*
X0073573Y0153740D03*
X0063573Y0161260D03*
X0063573Y0168740D03*
X0161073Y0033740D03*
X0161073Y0026260D03*
X0244573Y0026260D03*
X0244573Y0033740D03*
X0253573Y0033740D03*
X0253573Y0026260D03*
X0263573Y0026260D03*
X0263573Y0033740D03*
D13*
X0164813Y0075000D03*
X0157333Y0075000D03*
X0157333Y0083000D03*
X0164813Y0083000D03*
X0143919Y0154500D03*
X0137226Y0154500D03*
D14*
X0188573Y0160000D03*
X0078573Y0090000D03*
X0033573Y0192500D03*
D15*
X0096073Y0146700D03*
X0101073Y0146700D03*
X0106073Y0146700D03*
X0111073Y0146700D03*
X0121073Y0146700D03*
X0126073Y0146700D03*
X0131073Y0146700D03*
X0136073Y0146700D03*
X0141073Y0146700D03*
X0141073Y0093300D03*
X0136073Y0093300D03*
X0131073Y0093300D03*
X0126073Y0093300D03*
X0121073Y0093300D03*
X0116073Y0093300D03*
X0111073Y0093300D03*
X0106073Y0093300D03*
X0101073Y0093300D03*
X0096073Y0093300D03*
D16*
X0116073Y0146900D03*
D17*
X0118573Y0120000D03*
D18*
X0143873Y0120000D03*
X0093273Y0120000D03*
D19*
X0071173Y0050900D03*
X0071173Y0059900D03*
X0071173Y0068900D03*
D20*
X0095973Y0060000D03*
D21*
X0243573Y0048189D03*
X0253573Y0048189D03*
X0253573Y0071811D03*
X0243573Y0071811D03*
D22*
X0236073Y0046134D03*
X0236073Y0037866D03*
X0254939Y0041000D03*
X0263207Y0041000D03*
X0073573Y0100866D03*
X0073573Y0109134D03*
X0063573Y0115866D03*
X0063573Y0124134D03*
X0063573Y0145866D03*
X0063573Y0154134D03*
X0073573Y0160866D03*
X0073573Y0169134D03*
D23*
X0089974Y0084500D03*
X0101171Y0084500D03*
D24*
X0101073Y0156902D03*
X0101073Y0168098D03*
D25*
X0173573Y0030000D03*
X0183573Y0030000D03*
M02*
