G75*
%MOIN*%
%OFA0B0*%
%FSLAX25Y25*%
%IPPOS*%
%LPD*%
%AMOC8*
5,1,8,0,0,1.08239X$1,22.5*
%
%ADD10C,0.14198*%
%ADD11R,0.06718X0.07506*%
%ADD12R,0.09474X0.09474*%
%ADD13R,0.05537X0.03569*%
%ADD14C,0.07200*%
%ADD15R,0.04750X0.06324*%
%ADD16R,0.07506X0.06718*%
%ADD17R,0.07899X0.06718*%
%ADD18C,0.06800*%
%ADD19C,0.07600*%
%ADD20OC8,0.08200*%
%ADD21C,0.07537*%
%ADD22C,0.07537*%
%ADD23C,0.20498*%
%ADD24C,0.05365*%
%ADD25C,0.05759*%
D10*
X0073573Y0015000D03*
X0278573Y0035000D03*
X0278573Y0145000D03*
X0078573Y0205000D03*
D11*
X0133333Y0154000D03*
X0140813Y0154000D03*
X0188333Y0152500D03*
X0195813Y0152500D03*
X0195813Y0160500D03*
X0188333Y0160500D03*
X0206833Y0167500D03*
X0214313Y0167500D03*
X0260833Y0128500D03*
X0268313Y0128500D03*
X0268333Y0120500D03*
X0275813Y0120500D03*
X0242813Y0105000D03*
X0235333Y0105000D03*
X0227313Y0113500D03*
X0219833Y0113500D03*
X0255333Y0086000D03*
X0262813Y0086000D03*
X0262813Y0074000D03*
X0255333Y0074000D03*
X0259833Y0060000D03*
X0267313Y0060000D03*
X0267313Y0050000D03*
X0259833Y0050000D03*
X0137313Y0042500D03*
X0129833Y0042500D03*
D12*
X0046211Y0060000D03*
X0030935Y0060000D03*
X0055935Y0105000D03*
X0071211Y0105000D03*
X0080935Y0105000D03*
X0096211Y0105000D03*
X0096211Y0120000D03*
X0080935Y0120000D03*
X0071211Y0120000D03*
X0055935Y0120000D03*
X0055935Y0150000D03*
X0071211Y0150000D03*
X0080935Y0150000D03*
X0080935Y0165000D03*
X0071211Y0165000D03*
X0055935Y0165000D03*
X0096211Y0165000D03*
X0096211Y0150000D03*
D13*
X0188530Y0087059D03*
X0188530Y0081941D03*
X0195616Y0084500D03*
X0195530Y0138441D03*
X0202616Y0141000D03*
X0195530Y0143559D03*
D14*
X0225773Y0075000D02*
X0231373Y0075000D01*
X0231373Y0065000D02*
X0225773Y0065000D01*
X0225773Y0055000D02*
X0231373Y0055000D01*
D15*
X0243573Y0056811D03*
X0253573Y0056811D03*
X0253573Y0033189D03*
X0243573Y0033189D03*
D16*
X0263573Y0033740D03*
X0263573Y0026260D03*
X0196073Y0064760D03*
X0196073Y0072240D03*
X0196073Y0097760D03*
X0196073Y0105240D03*
X0237073Y0136260D03*
X0237073Y0143740D03*
X0268573Y0188760D03*
X0268573Y0196240D03*
D17*
X0211073Y0152240D03*
X0211073Y0144760D03*
D18*
X0131173Y0170000D02*
X0125973Y0170000D01*
X0125973Y0180000D02*
X0131173Y0180000D01*
X0131173Y0190000D02*
X0125973Y0190000D01*
D19*
X0180573Y0144921D02*
X0186573Y0144921D01*
X0186573Y0135079D02*
X0180573Y0135079D01*
X0220573Y0135079D02*
X0226573Y0135079D01*
X0226573Y0144921D02*
X0220573Y0144921D01*
X0255573Y0140157D02*
X0261573Y0140157D01*
X0261573Y0150000D02*
X0255573Y0150000D01*
X0255573Y0159843D02*
X0261573Y0159843D01*
X0258730Y0113000D02*
X0258730Y0107000D01*
X0268573Y0107000D02*
X0268573Y0113000D01*
X0278415Y0113000D02*
X0278415Y0107000D01*
X0226573Y0104921D02*
X0220573Y0104921D01*
X0220573Y0095079D02*
X0226573Y0095079D01*
X0186573Y0095079D02*
X0180573Y0095079D01*
X0180573Y0104921D02*
X0186573Y0104921D01*
X0186573Y0064921D02*
X0180573Y0064921D01*
X0180573Y0055079D02*
X0186573Y0055079D01*
X0148415Y0058000D02*
X0148415Y0052000D01*
X0138573Y0052000D02*
X0138573Y0058000D01*
X0128730Y0058000D02*
X0128730Y0052000D01*
X0119373Y0033900D02*
X0113373Y0033900D01*
X0093773Y0033900D02*
X0087773Y0033900D01*
X0087773Y0016100D02*
X0093773Y0016100D01*
X0113373Y0016100D02*
X0119373Y0016100D01*
X0034073Y0102579D02*
X0028073Y0102579D01*
X0028073Y0112421D02*
X0034073Y0112421D01*
D20*
X0092573Y0205000D03*
X0102573Y0205000D03*
X0112573Y0205000D03*
X0122573Y0205000D03*
X0132573Y0205000D03*
X0142573Y0205000D03*
X0152573Y0205000D03*
X0162573Y0205000D03*
X0172573Y0205000D03*
X0182573Y0205000D03*
X0198573Y0205000D03*
X0208573Y0205000D03*
X0218573Y0205000D03*
X0228573Y0205000D03*
X0238573Y0205000D03*
X0248573Y0205000D03*
X0258573Y0205000D03*
X0268573Y0205000D03*
X0268573Y0015000D03*
X0258573Y0015000D03*
X0248573Y0015000D03*
X0238573Y0015000D03*
X0228573Y0015000D03*
X0218573Y0015000D03*
X0198573Y0015000D03*
X0188573Y0015000D03*
X0178573Y0015000D03*
X0168573Y0015000D03*
X0158573Y0015000D03*
X0148573Y0015000D03*
X0138573Y0015000D03*
X0128573Y0015000D03*
D21*
X0163573Y0175000D03*
X0173573Y0175000D03*
X0183573Y0175000D03*
X0193573Y0175000D03*
X0203573Y0175000D03*
X0213573Y0175000D03*
X0223573Y0175000D03*
X0223573Y0185000D03*
X0213573Y0185000D03*
X0203573Y0185000D03*
X0193573Y0185000D03*
X0183573Y0185000D03*
X0173573Y0185000D03*
X0163573Y0185000D03*
D22*
X0034041Y0167500D02*
X0028104Y0167500D01*
X0028104Y0157500D02*
X0034041Y0157500D01*
X0034041Y0147500D02*
X0028104Y0147500D01*
X0028104Y0137500D02*
X0034041Y0137500D01*
X0034041Y0080000D02*
X0028104Y0080000D01*
X0028104Y0070000D02*
X0034041Y0070000D01*
X0275604Y0075000D02*
X0281541Y0075000D01*
X0281541Y0085000D02*
X0275604Y0085000D01*
X0275604Y0060000D02*
X0281541Y0060000D01*
X0281541Y0050000D02*
X0275604Y0050000D01*
D23*
X0043337Y0021890D03*
X0031919Y0040394D03*
X0055148Y0040394D03*
D24*
X0063573Y0070000D03*
X0058573Y0089917D03*
X0063573Y0095000D03*
X0088573Y0090000D03*
X0123573Y0080000D03*
X0138573Y0080000D03*
X0148573Y0095000D03*
X0143573Y0120000D03*
X0123573Y0135283D03*
X0146073Y0147500D03*
X0158960Y0160387D03*
X0141073Y0161035D03*
X0126790Y0155000D03*
X0113573Y0160000D03*
X0108573Y0155000D03*
X0093573Y0170000D03*
X0068573Y0175000D03*
X0063573Y0180583D03*
X0063573Y0140000D03*
X0073573Y0140000D03*
X0063573Y0130000D03*
X0173573Y0045000D03*
X0183573Y0040000D03*
X0218573Y0055000D03*
X0228573Y0045000D03*
X0248573Y0045000D03*
X0248573Y0075000D03*
X0241073Y0077500D03*
X0255073Y0080000D03*
X0213573Y0110000D03*
X0238573Y0112748D03*
X0238573Y0130000D03*
X0208573Y0135000D03*
X0203573Y0146000D03*
X0203573Y0155000D03*
X0203045Y0160528D03*
X0223573Y0165000D03*
X0196073Y0091000D03*
X0203573Y0085000D03*
X0196073Y0079000D03*
X0123573Y0025000D03*
D25*
X0053573Y0112500D03*
X0053573Y0157500D03*
X0148573Y0185000D03*
X0153573Y0180000D03*
M02*
