G75*
%MOIN*%
%OFA0B0*%
%FSLAX25Y25*%
%IPPOS*%
%LPD*%
%AMOC8*
5,1,8,0,0,1.08239X$1,22.5*
%
%ADD10C,0.00300*%
%ADD11C,0.00400*%
%ADD12C,0.00600*%
%ADD13C,0.00500*%
%ADD14C,0.01000*%
%ADD15C,0.02000*%
%ADD16R,0.00787X0.00787*%
%ADD17C,0.01200*%
%ADD18C,0.00200*%
%ADD19C,0.00800*%
D10*
X0094035Y0006150D02*
X0094035Y0009853D01*
X0095886Y0009853D01*
X0096504Y0009236D01*
X0096504Y0008002D01*
X0095886Y0007384D01*
X0094035Y0007384D01*
X0095269Y0007384D02*
X0096504Y0006150D01*
X0097718Y0006767D02*
X0098335Y0006150D01*
X0099570Y0006150D01*
X0100187Y0007384D02*
X0097718Y0007384D01*
X0097718Y0006767D02*
X0097718Y0008002D01*
X0098335Y0008619D01*
X0099570Y0008619D01*
X0100187Y0008002D01*
X0100187Y0007384D01*
X0101401Y0008002D02*
X0102018Y0008619D01*
X0103870Y0008619D01*
X0105084Y0008002D02*
X0105701Y0008619D01*
X0106936Y0008619D01*
X0107553Y0008002D01*
X0107553Y0007384D01*
X0105084Y0007384D01*
X0105084Y0006767D02*
X0105084Y0008002D01*
X0105084Y0006767D02*
X0105701Y0006150D01*
X0106936Y0006150D01*
X0109385Y0006767D02*
X0110002Y0006150D01*
X0109385Y0006767D02*
X0109385Y0009236D01*
X0110002Y0008619D02*
X0108767Y0008619D01*
X0103870Y0006767D02*
X0103253Y0006150D01*
X0101401Y0006150D01*
X0102018Y0007384D02*
X0101401Y0008002D01*
X0102018Y0007384D02*
X0103253Y0007384D01*
X0103870Y0006767D01*
X0134683Y0020150D02*
X0135917Y0020150D01*
X0135300Y0020150D02*
X0135300Y0023853D01*
X0134683Y0023853D02*
X0135917Y0023853D01*
X0137138Y0023236D02*
X0137138Y0020767D01*
X0137756Y0020150D01*
X0138990Y0020150D01*
X0139607Y0020767D01*
X0139607Y0023236D01*
X0138990Y0023853D01*
X0137756Y0023853D01*
X0137138Y0023236D01*
X0140822Y0022619D02*
X0140822Y0020150D01*
X0140822Y0021384D02*
X0142056Y0022619D01*
X0142673Y0022619D01*
X0155543Y0023236D02*
X0156160Y0023853D01*
X0157394Y0023853D01*
X0158012Y0023236D01*
X0158012Y0022619D01*
X0157394Y0022002D01*
X0158012Y0021384D01*
X0158012Y0020767D01*
X0157394Y0020150D01*
X0156160Y0020150D01*
X0155543Y0020767D01*
X0156777Y0022002D02*
X0157394Y0022002D01*
X0159226Y0022619D02*
X0160460Y0020150D01*
X0161695Y0022619D01*
X0166543Y0022002D02*
X0167777Y0022619D01*
X0168394Y0022619D01*
X0169012Y0022002D01*
X0169012Y0020767D01*
X0168394Y0020150D01*
X0167160Y0020150D01*
X0166543Y0020767D01*
X0166543Y0022002D02*
X0166543Y0023853D01*
X0169012Y0023853D01*
X0170226Y0022619D02*
X0171460Y0020150D01*
X0172695Y0022619D01*
X0179263Y0023236D02*
X0179263Y0020767D01*
X0179880Y0020150D01*
X0181114Y0020150D01*
X0181731Y0020767D01*
X0181731Y0022002D01*
X0180497Y0022002D01*
X0181731Y0023236D02*
X0181114Y0023853D01*
X0179880Y0023853D01*
X0179263Y0023236D01*
X0182946Y0022619D02*
X0182946Y0020150D01*
X0185415Y0020150D02*
X0185415Y0022002D01*
X0184797Y0022619D01*
X0182946Y0022619D01*
X0186629Y0022002D02*
X0186629Y0020767D01*
X0187246Y0020150D01*
X0189098Y0020150D01*
X0189098Y0023853D01*
X0189098Y0022619D02*
X0187246Y0022619D01*
X0186629Y0022002D01*
X0189954Y0025150D02*
X0188720Y0026384D01*
X0189954Y0027619D01*
X0192423Y0027619D01*
X0192423Y0028833D02*
X0189954Y0028833D01*
X0191188Y0028833D02*
X0189954Y0030068D01*
X0189954Y0030685D01*
X0190571Y0031902D02*
X0189954Y0032520D01*
X0189954Y0034371D01*
X0188720Y0034371D02*
X0192423Y0034371D01*
X0192423Y0032520D01*
X0191806Y0031902D01*
X0190571Y0031902D01*
X0194720Y0031302D02*
X0197188Y0031302D01*
X0198423Y0030068D01*
X0197188Y0028833D01*
X0194720Y0028833D01*
X0194720Y0027619D02*
X0194720Y0025150D01*
X0196571Y0025150D01*
X0195954Y0026384D01*
X0195954Y0027002D01*
X0196571Y0027619D01*
X0197806Y0027619D01*
X0198423Y0027002D01*
X0198423Y0025767D01*
X0197806Y0025150D01*
X0197512Y0023853D02*
X0197512Y0021384D01*
X0196277Y0020150D01*
X0195043Y0021384D01*
X0195043Y0023853D01*
X0192423Y0025150D02*
X0189954Y0025150D01*
X0190571Y0025150D02*
X0190571Y0027619D01*
X0199343Y0024470D02*
X0199343Y0023853D01*
X0199343Y0022619D02*
X0199343Y0020150D01*
X0198726Y0020150D02*
X0199960Y0020150D01*
X0201181Y0020150D02*
X0201181Y0022619D01*
X0203033Y0022619D01*
X0203650Y0022002D01*
X0203650Y0020150D01*
X0199343Y0022619D02*
X0198726Y0022619D01*
X0217223Y0023236D02*
X0217223Y0020767D01*
X0219692Y0023236D01*
X0219692Y0020767D01*
X0219074Y0020150D01*
X0217840Y0020150D01*
X0217223Y0020767D01*
X0217223Y0023236D02*
X0217840Y0023853D01*
X0219074Y0023853D01*
X0219692Y0023236D01*
X0227223Y0022619D02*
X0228457Y0023853D01*
X0228457Y0020150D01*
X0227223Y0020150D02*
X0229692Y0020150D01*
X0237223Y0020150D02*
X0239692Y0022619D01*
X0239692Y0023236D01*
X0239074Y0023853D01*
X0237840Y0023853D01*
X0237223Y0023236D01*
X0237223Y0020150D02*
X0239692Y0020150D01*
X0247223Y0020767D02*
X0247840Y0020150D01*
X0249074Y0020150D01*
X0249692Y0020767D01*
X0249692Y0021384D01*
X0249074Y0022002D01*
X0248457Y0022002D01*
X0249074Y0022002D02*
X0249692Y0022619D01*
X0249692Y0023236D01*
X0249074Y0023853D01*
X0247840Y0023853D01*
X0247223Y0023236D01*
X0257223Y0022002D02*
X0259692Y0022002D01*
X0259074Y0023853D02*
X0257223Y0022002D01*
X0259074Y0023853D02*
X0259074Y0020150D01*
X0267223Y0020767D02*
X0267840Y0020150D01*
X0269074Y0020150D01*
X0269692Y0020767D01*
X0269692Y0022002D01*
X0269074Y0022619D01*
X0268457Y0022619D01*
X0267223Y0022002D01*
X0267223Y0023853D01*
X0269692Y0023853D01*
X0260624Y0009439D02*
X0261241Y0008822D01*
X0261241Y0006970D01*
X0258772Y0006970D02*
X0258772Y0009439D01*
X0260624Y0009439D01*
X0257551Y0010673D02*
X0256317Y0010673D01*
X0256934Y0010673D02*
X0256934Y0006970D01*
X0256317Y0006970D02*
X0257551Y0006970D01*
X0251419Y0006970D02*
X0249568Y0006970D01*
X0248951Y0007587D01*
X0248951Y0008822D01*
X0249568Y0009439D01*
X0251419Y0009439D01*
X0251419Y0006353D01*
X0250802Y0005736D01*
X0250185Y0005736D01*
X0247736Y0007587D02*
X0247736Y0008822D01*
X0247119Y0009439D01*
X0245885Y0009439D01*
X0245267Y0008822D01*
X0245267Y0007587D01*
X0245885Y0006970D01*
X0247119Y0006970D01*
X0247736Y0007587D01*
X0244046Y0006970D02*
X0242812Y0006970D01*
X0243429Y0006970D02*
X0243429Y0010673D01*
X0242812Y0010673D01*
X0240980Y0009439D02*
X0241598Y0008822D01*
X0241598Y0006970D01*
X0239746Y0006970D01*
X0239129Y0007587D01*
X0239746Y0008204D01*
X0241598Y0008204D01*
X0240980Y0009439D02*
X0239746Y0009439D01*
X0237915Y0008822D02*
X0237915Y0006970D01*
X0237915Y0008822D02*
X0237297Y0009439D01*
X0235446Y0009439D01*
X0235446Y0006970D01*
X0234231Y0006970D02*
X0234231Y0009439D01*
X0232997Y0010673D01*
X0231763Y0009439D01*
X0231763Y0006970D01*
X0231763Y0008822D02*
X0234231Y0008822D01*
X0260337Y0050150D02*
X0260954Y0050150D01*
X0261571Y0050767D01*
X0261571Y0052002D01*
X0262188Y0052619D01*
X0262806Y0052619D01*
X0263423Y0052002D01*
X0263423Y0050767D01*
X0262806Y0050150D01*
X0260337Y0050150D02*
X0259720Y0050767D01*
X0259720Y0052002D01*
X0260337Y0052619D01*
X0261571Y0053833D02*
X0260954Y0054450D01*
X0260954Y0055685D01*
X0261571Y0056302D01*
X0262806Y0056302D01*
X0263423Y0055685D01*
X0263423Y0054450D01*
X0262806Y0053833D01*
X0261571Y0053833D01*
X0259720Y0057516D02*
X0259720Y0058133D01*
X0263423Y0058133D01*
X0263423Y0057516D02*
X0263423Y0058751D01*
X0263423Y0063655D02*
X0263423Y0066124D01*
X0263423Y0064889D02*
X0259720Y0064889D01*
X0260954Y0063655D01*
X0261806Y0070462D02*
X0262423Y0071079D01*
X0262423Y0072314D01*
X0261806Y0072931D01*
X0261188Y0072931D01*
X0260571Y0072314D01*
X0260571Y0071079D01*
X0259954Y0070462D01*
X0259337Y0070462D01*
X0258720Y0071079D01*
X0258720Y0072314D01*
X0259337Y0072931D01*
X0260571Y0074145D02*
X0261806Y0074145D01*
X0262423Y0074762D01*
X0262423Y0075997D01*
X0261806Y0076614D01*
X0260571Y0076614D01*
X0259954Y0075997D01*
X0259954Y0074762D01*
X0260571Y0074145D01*
X0258720Y0077828D02*
X0258720Y0078445D01*
X0262423Y0078445D01*
X0262423Y0077828D02*
X0262423Y0079063D01*
X0262423Y0083967D02*
X0259954Y0086436D01*
X0259337Y0086436D01*
X0258720Y0085818D01*
X0258720Y0084584D01*
X0259337Y0083967D01*
X0262423Y0083967D02*
X0262423Y0086436D01*
X0261538Y0121150D02*
X0263390Y0121150D01*
X0264604Y0121767D02*
X0265221Y0121150D01*
X0266456Y0121150D01*
X0267073Y0121767D01*
X0267073Y0123002D01*
X0266456Y0123619D01*
X0265221Y0123619D01*
X0264604Y0123002D01*
X0264604Y0121767D01*
X0263390Y0123619D02*
X0261538Y0123619D01*
X0260921Y0123002D01*
X0260921Y0121767D01*
X0261538Y0121150D01*
X0259707Y0121150D02*
X0259707Y0123002D01*
X0259089Y0123619D01*
X0257238Y0123619D01*
X0257238Y0121150D01*
X0256023Y0121150D02*
X0253555Y0121150D01*
X0253555Y0124853D01*
X0256023Y0124853D01*
X0254789Y0123002D02*
X0253555Y0123002D01*
X0268287Y0123002D02*
X0268904Y0123619D01*
X0270756Y0123619D01*
X0270756Y0124853D02*
X0270756Y0121150D01*
X0268904Y0121150D01*
X0268287Y0121767D01*
X0268287Y0123002D01*
X0271970Y0123002D02*
X0272588Y0123619D01*
X0273822Y0123619D01*
X0274439Y0123002D01*
X0274439Y0122384D01*
X0271970Y0122384D01*
X0271970Y0121767D02*
X0271970Y0123002D01*
X0271970Y0121767D02*
X0272588Y0121150D01*
X0273822Y0121150D01*
X0275654Y0121150D02*
X0275654Y0123619D01*
X0276888Y0123619D02*
X0275654Y0122384D01*
X0276888Y0123619D02*
X0277505Y0123619D01*
X0215923Y0076257D02*
X0214071Y0076257D01*
X0213454Y0075640D01*
X0213454Y0073789D01*
X0215923Y0073789D01*
X0215923Y0072568D02*
X0215923Y0071333D01*
X0215923Y0071950D02*
X0213454Y0071950D01*
X0213454Y0071333D01*
X0212220Y0071950D02*
X0211602Y0071950D01*
X0212220Y0070119D02*
X0214688Y0070119D01*
X0215923Y0068884D01*
X0214688Y0067650D01*
X0212220Y0067650D01*
X0212220Y0063802D02*
X0214688Y0063802D01*
X0215923Y0062568D01*
X0214688Y0061333D01*
X0212220Y0061333D01*
X0212220Y0060119D02*
X0212220Y0057650D01*
X0214071Y0057650D01*
X0213454Y0058884D01*
X0213454Y0059502D01*
X0214071Y0060119D01*
X0215306Y0060119D01*
X0215923Y0059502D01*
X0215923Y0058267D01*
X0215306Y0057650D01*
X0198423Y0058185D02*
X0197806Y0058802D01*
X0196571Y0058802D01*
X0195954Y0058185D01*
X0195954Y0056950D01*
X0196571Y0056333D01*
X0197806Y0056333D01*
X0198423Y0056950D01*
X0198423Y0058185D01*
X0197806Y0060016D02*
X0198423Y0060633D01*
X0197806Y0061251D01*
X0198423Y0061868D01*
X0197806Y0062485D01*
X0195954Y0062485D01*
X0195954Y0063699D02*
X0195954Y0065551D01*
X0196571Y0066168D01*
X0198423Y0066168D01*
X0198423Y0063699D02*
X0195954Y0063699D01*
X0195954Y0060016D02*
X0197806Y0060016D01*
X0197806Y0055119D02*
X0195337Y0055119D01*
X0194720Y0054502D01*
X0194720Y0052650D01*
X0198423Y0052650D01*
X0198423Y0054502D01*
X0197806Y0055119D01*
X0155922Y0071650D02*
X0155305Y0072267D01*
X0155305Y0074736D01*
X0154688Y0074119D02*
X0155922Y0074119D01*
X0153474Y0073502D02*
X0152856Y0074119D01*
X0151622Y0074119D01*
X0151005Y0073502D01*
X0151005Y0072267D01*
X0151622Y0071650D01*
X0152856Y0071650D01*
X0153474Y0072267D01*
X0153474Y0073502D01*
X0149790Y0073502D02*
X0149173Y0072884D01*
X0147322Y0072884D01*
X0147322Y0071650D02*
X0147322Y0075353D01*
X0149173Y0075353D01*
X0149790Y0074736D01*
X0149790Y0073502D01*
X0142424Y0074119D02*
X0140573Y0074119D01*
X0139955Y0073502D01*
X0139955Y0072267D01*
X0140573Y0071650D01*
X0142424Y0071650D01*
X0142424Y0075353D01*
X0138741Y0073502D02*
X0138741Y0072884D01*
X0136272Y0072884D01*
X0136272Y0072267D02*
X0136272Y0073502D01*
X0136889Y0074119D01*
X0138124Y0074119D01*
X0138741Y0073502D01*
X0138124Y0071650D02*
X0136889Y0071650D01*
X0136272Y0072267D01*
X0135058Y0072884D02*
X0132589Y0072884D01*
X0132589Y0072267D02*
X0132589Y0073502D01*
X0133206Y0074119D01*
X0134441Y0074119D01*
X0135058Y0073502D01*
X0135058Y0072884D01*
X0134441Y0071650D02*
X0133206Y0071650D01*
X0132589Y0072267D01*
X0131375Y0072267D02*
X0130758Y0071650D01*
X0128906Y0071650D01*
X0128906Y0070416D02*
X0128906Y0074119D01*
X0130758Y0074119D01*
X0131375Y0073502D01*
X0131375Y0072267D01*
X0127692Y0072267D02*
X0127074Y0071650D01*
X0125840Y0071650D01*
X0125223Y0072267D01*
X0125840Y0073502D02*
X0127074Y0073502D01*
X0127692Y0072884D01*
X0127692Y0072267D01*
X0125840Y0073502D02*
X0125223Y0074119D01*
X0125223Y0074736D01*
X0125840Y0075353D01*
X0127074Y0075353D01*
X0127692Y0074736D01*
X0162220Y0090767D02*
X0162837Y0090150D01*
X0163454Y0090150D01*
X0164071Y0090767D01*
X0164071Y0092002D01*
X0164688Y0092619D01*
X0165306Y0092619D01*
X0165923Y0092002D01*
X0165923Y0090767D01*
X0165306Y0090150D01*
X0162220Y0090767D02*
X0162220Y0092002D01*
X0162837Y0092619D01*
X0163454Y0093833D02*
X0163454Y0095068D01*
X0162837Y0094450D02*
X0165306Y0094450D01*
X0165923Y0095068D01*
X0165306Y0096289D02*
X0164071Y0096289D01*
X0163454Y0096906D01*
X0163454Y0098140D01*
X0164071Y0098757D01*
X0165306Y0098757D01*
X0165923Y0098140D01*
X0165923Y0096906D01*
X0165306Y0096289D01*
X0165923Y0099972D02*
X0165923Y0101823D01*
X0165306Y0102440D01*
X0164071Y0102440D01*
X0163454Y0101823D01*
X0163454Y0099972D01*
X0167157Y0099972D01*
X0165923Y0103655D02*
X0162220Y0106124D01*
X0162837Y0107338D02*
X0163454Y0107338D01*
X0164071Y0107955D01*
X0164071Y0109190D01*
X0164688Y0109807D01*
X0165306Y0109807D01*
X0165923Y0109190D01*
X0165923Y0107955D01*
X0165306Y0107338D01*
X0162837Y0107338D02*
X0162220Y0107955D01*
X0162220Y0109190D01*
X0162837Y0109807D01*
X0163454Y0111021D02*
X0163454Y0112256D01*
X0162837Y0111638D02*
X0165306Y0111638D01*
X0165923Y0112256D01*
X0165306Y0113477D02*
X0164688Y0114094D01*
X0164688Y0115945D01*
X0164071Y0115945D02*
X0165923Y0115945D01*
X0165923Y0114094D01*
X0165306Y0113477D01*
X0163454Y0114094D02*
X0163454Y0115328D01*
X0164071Y0115945D01*
X0163454Y0117160D02*
X0165923Y0117160D01*
X0164688Y0117160D02*
X0163454Y0118394D01*
X0163454Y0119011D01*
X0163454Y0120229D02*
X0163454Y0121463D01*
X0162837Y0120846D02*
X0165306Y0120846D01*
X0165923Y0121463D01*
X0166806Y0137784D02*
X0163720Y0137784D01*
X0163720Y0140252D02*
X0166806Y0140252D01*
X0167423Y0139635D01*
X0167423Y0138401D01*
X0166806Y0137784D01*
X0167423Y0141467D02*
X0167423Y0143318D01*
X0166806Y0143936D01*
X0165571Y0143936D01*
X0164954Y0143318D01*
X0164954Y0141467D01*
X0168657Y0141467D01*
X0202220Y0141734D02*
X0202220Y0140500D01*
X0202837Y0139883D01*
X0205306Y0139883D01*
X0205923Y0140500D01*
X0205923Y0141734D01*
X0205306Y0142351D01*
X0202837Y0142351D01*
X0202220Y0141734D01*
X0202220Y0143566D02*
X0202220Y0145417D01*
X0202837Y0146034D01*
X0204071Y0146034D01*
X0204688Y0145417D01*
X0204688Y0143566D01*
X0205923Y0143566D02*
X0202220Y0143566D01*
X0202220Y0138668D02*
X0202220Y0136199D01*
X0202220Y0137434D02*
X0205923Y0137434D01*
X0205306Y0134985D02*
X0205923Y0134368D01*
X0205923Y0133133D01*
X0205306Y0132516D01*
X0204071Y0133133D02*
X0204071Y0134368D01*
X0204688Y0134985D01*
X0205306Y0134985D01*
X0204071Y0133133D02*
X0203454Y0132516D01*
X0202837Y0132516D01*
X0202220Y0133133D01*
X0202220Y0134368D01*
X0202837Y0134985D01*
X0204071Y0131302D02*
X0204071Y0128833D01*
X0202220Y0127619D02*
X0202220Y0125150D01*
X0205923Y0125150D01*
X0205923Y0127619D01*
X0204071Y0126384D02*
X0204071Y0125150D01*
X0203954Y0110572D02*
X0203954Y0109338D01*
X0203337Y0109955D02*
X0205806Y0109955D01*
X0206423Y0110572D01*
X0206423Y0108124D02*
X0206423Y0106272D01*
X0205806Y0105655D01*
X0204571Y0105655D01*
X0203954Y0106272D01*
X0203954Y0108124D01*
X0204571Y0104440D02*
X0205188Y0104440D01*
X0205188Y0101972D01*
X0204571Y0101972D02*
X0203954Y0102589D01*
X0203954Y0103823D01*
X0204571Y0104440D01*
X0206423Y0103823D02*
X0206423Y0102589D01*
X0205806Y0101972D01*
X0204571Y0101972D01*
X0206423Y0100751D02*
X0206423Y0099516D01*
X0206423Y0100133D02*
X0202720Y0100133D01*
X0202720Y0099516D01*
X0203954Y0097685D02*
X0204571Y0098302D01*
X0205188Y0098302D01*
X0205188Y0095833D01*
X0204571Y0095833D02*
X0203954Y0096450D01*
X0203954Y0097685D01*
X0204571Y0095833D02*
X0205806Y0095833D01*
X0206423Y0096450D01*
X0206423Y0097685D01*
X0205806Y0094619D02*
X0206423Y0094002D01*
X0206423Y0092767D01*
X0205806Y0092150D01*
X0204571Y0092767D02*
X0204571Y0094002D01*
X0205188Y0094619D01*
X0205806Y0094619D01*
X0204571Y0092767D02*
X0203954Y0092150D01*
X0203337Y0092150D01*
X0202720Y0092767D01*
X0202720Y0094002D01*
X0203337Y0094619D01*
X0204071Y0150932D02*
X0204071Y0152784D01*
X0204688Y0153401D01*
X0205306Y0153401D01*
X0205923Y0152784D01*
X0205923Y0150932D01*
X0202220Y0150932D01*
X0202220Y0152784D01*
X0202837Y0153401D01*
X0203454Y0153401D01*
X0204071Y0152784D01*
X0205306Y0154615D02*
X0202220Y0154615D01*
X0202220Y0157084D02*
X0205306Y0157084D01*
X0205923Y0156467D01*
X0205923Y0155232D01*
X0205306Y0154615D01*
X0202220Y0158298D02*
X0202220Y0160767D01*
X0202220Y0159533D02*
X0205923Y0159533D01*
X0248723Y0175150D02*
X0248723Y0178853D01*
X0250574Y0178853D01*
X0251192Y0178236D01*
X0251192Y0177002D01*
X0250574Y0176384D01*
X0248723Y0176384D01*
X0249957Y0176384D02*
X0251192Y0175150D01*
X0252406Y0175767D02*
X0252406Y0177002D01*
X0253023Y0177619D01*
X0254258Y0177619D01*
X0254875Y0177002D01*
X0254875Y0176384D01*
X0252406Y0176384D01*
X0252406Y0175767D02*
X0253023Y0175150D01*
X0254258Y0175150D01*
X0256089Y0175150D02*
X0257324Y0175150D01*
X0256706Y0175150D02*
X0256706Y0178853D01*
X0256089Y0178853D01*
X0256706Y0181150D02*
X0256089Y0181767D01*
X0256706Y0181150D02*
X0257941Y0181150D01*
X0258558Y0181767D01*
X0258558Y0182384D01*
X0257941Y0183002D01*
X0256706Y0183002D01*
X0256089Y0183619D01*
X0256089Y0184236D01*
X0256706Y0184853D01*
X0257941Y0184853D01*
X0258558Y0184236D01*
X0259772Y0184853D02*
X0262241Y0184853D01*
X0261007Y0184853D02*
X0261007Y0181150D01*
X0263455Y0181767D02*
X0264073Y0181150D01*
X0265307Y0181150D01*
X0265924Y0181767D01*
X0265924Y0184236D01*
X0265307Y0184853D01*
X0264073Y0184853D01*
X0263455Y0184236D01*
X0263455Y0181767D01*
X0267139Y0181150D02*
X0267139Y0184853D01*
X0268990Y0184853D01*
X0269607Y0184236D01*
X0269607Y0183002D01*
X0268990Y0182384D01*
X0267139Y0182384D01*
X0264696Y0177619D02*
X0264696Y0174533D01*
X0264079Y0173916D01*
X0263462Y0173916D01*
X0262845Y0175150D02*
X0264696Y0175150D01*
X0262845Y0175150D02*
X0262228Y0175767D01*
X0262228Y0177619D01*
X0261013Y0177002D02*
X0261013Y0175150D01*
X0259162Y0175150D01*
X0258545Y0175767D01*
X0259162Y0176384D01*
X0261013Y0176384D01*
X0261013Y0177002D02*
X0260396Y0177619D01*
X0259162Y0177619D01*
X0254875Y0183002D02*
X0252406Y0183002D01*
X0251192Y0184853D02*
X0248723Y0184853D01*
X0248723Y0181150D01*
X0251192Y0181150D01*
X0249957Y0183002D02*
X0248723Y0183002D01*
X0247540Y0196150D02*
X0250008Y0198619D01*
X0250008Y0199236D01*
X0249391Y0199853D01*
X0248157Y0199853D01*
X0247540Y0199236D01*
X0247540Y0196150D02*
X0250008Y0196150D01*
X0257540Y0196150D02*
X0260008Y0196150D01*
X0258774Y0196150D02*
X0258774Y0199853D01*
X0257540Y0198619D01*
X0267540Y0199236D02*
X0267540Y0196767D01*
X0270008Y0199236D01*
X0270008Y0196767D01*
X0269391Y0196150D01*
X0268157Y0196150D01*
X0267540Y0196767D01*
X0267540Y0199236D02*
X0268157Y0199853D01*
X0269391Y0199853D01*
X0270008Y0199236D01*
X0252384Y0210767D02*
X0252384Y0213236D01*
X0251767Y0213853D01*
X0250533Y0213853D01*
X0249916Y0213236D01*
X0249916Y0210767D01*
X0250533Y0210150D01*
X0251767Y0210150D01*
X0252384Y0210767D01*
X0248701Y0213853D02*
X0246233Y0210150D01*
X0245012Y0210150D02*
X0243777Y0210150D01*
X0244394Y0210150D02*
X0244394Y0213853D01*
X0243777Y0213853D02*
X0245012Y0213853D01*
X0238256Y0213853D02*
X0238256Y0210150D01*
X0237639Y0210150D02*
X0238873Y0210150D01*
X0236424Y0210150D02*
X0236424Y0212002D01*
X0235807Y0212619D01*
X0234573Y0212619D01*
X0234573Y0211384D02*
X0236424Y0211384D01*
X0236424Y0210150D02*
X0234573Y0210150D01*
X0233955Y0210767D01*
X0234573Y0211384D01*
X0232734Y0210150D02*
X0232117Y0210767D01*
X0232117Y0213236D01*
X0231500Y0212619D02*
X0232734Y0212619D01*
X0229662Y0212619D02*
X0229662Y0210150D01*
X0229045Y0210150D02*
X0230279Y0210150D01*
X0227830Y0210150D02*
X0225979Y0210150D01*
X0225361Y0210767D01*
X0225361Y0212002D01*
X0225979Y0212619D01*
X0227830Y0212619D01*
X0227830Y0209533D01*
X0227213Y0208916D01*
X0226596Y0208916D01*
X0224140Y0210150D02*
X0222906Y0210150D01*
X0223523Y0210150D02*
X0223523Y0212619D01*
X0222906Y0212619D01*
X0221692Y0213236D02*
X0221074Y0213853D01*
X0219223Y0213853D01*
X0219223Y0210150D01*
X0221074Y0210150D01*
X0221692Y0210767D01*
X0221692Y0213236D01*
X0223523Y0213853D02*
X0223523Y0214470D01*
X0229045Y0212619D02*
X0229662Y0212619D01*
X0229662Y0213853D02*
X0229662Y0214470D01*
X0237639Y0213853D02*
X0238256Y0213853D01*
X0238157Y0199853D02*
X0239391Y0199853D01*
X0240008Y0199236D01*
X0240008Y0198619D01*
X0239391Y0198002D01*
X0240008Y0197384D01*
X0240008Y0196767D01*
X0239391Y0196150D01*
X0238157Y0196150D01*
X0237540Y0196767D01*
X0238774Y0198002D02*
X0239391Y0198002D01*
X0237540Y0199236D02*
X0238157Y0199853D01*
X0230008Y0198002D02*
X0227540Y0198002D01*
X0229391Y0199853D01*
X0229391Y0196150D01*
X0220008Y0196767D02*
X0219391Y0196150D01*
X0218157Y0196150D01*
X0217540Y0196767D01*
X0217540Y0198002D02*
X0218774Y0198619D01*
X0219391Y0198619D01*
X0220008Y0198002D01*
X0220008Y0196767D01*
X0217540Y0198002D02*
X0217540Y0199853D01*
X0220008Y0199853D01*
X0210008Y0199853D02*
X0208774Y0199236D01*
X0207540Y0198002D01*
X0209391Y0198002D01*
X0210008Y0197384D01*
X0210008Y0196767D01*
X0209391Y0196150D01*
X0208157Y0196150D01*
X0207540Y0196767D01*
X0207540Y0198002D01*
X0200008Y0199236D02*
X0197540Y0196767D01*
X0197540Y0196150D01*
X0200008Y0199236D02*
X0200008Y0199853D01*
X0197540Y0199853D01*
X0184008Y0199236D02*
X0184008Y0198619D01*
X0183391Y0198002D01*
X0182157Y0198002D01*
X0181540Y0198619D01*
X0181540Y0199236D01*
X0182157Y0199853D01*
X0183391Y0199853D01*
X0184008Y0199236D01*
X0183391Y0198002D02*
X0184008Y0197384D01*
X0184008Y0196767D01*
X0183391Y0196150D01*
X0182157Y0196150D01*
X0181540Y0196767D01*
X0181540Y0197384D01*
X0182157Y0198002D01*
X0174008Y0198002D02*
X0172157Y0198002D01*
X0171540Y0198619D01*
X0171540Y0199236D01*
X0172157Y0199853D01*
X0173391Y0199853D01*
X0174008Y0199236D01*
X0174008Y0196767D01*
X0173391Y0196150D01*
X0172157Y0196150D01*
X0171540Y0196767D01*
X0166008Y0196767D02*
X0165391Y0196150D01*
X0164157Y0196150D01*
X0163540Y0196767D01*
X0166008Y0199236D01*
X0166008Y0196767D01*
X0163540Y0196767D02*
X0163540Y0199236D01*
X0164157Y0199853D01*
X0165391Y0199853D01*
X0166008Y0199236D01*
X0162325Y0196150D02*
X0159857Y0196150D01*
X0161091Y0196150D02*
X0161091Y0199853D01*
X0159857Y0198619D01*
X0156008Y0196150D02*
X0153540Y0196150D01*
X0152325Y0196150D02*
X0149857Y0196150D01*
X0151091Y0196150D02*
X0151091Y0199853D01*
X0149857Y0198619D01*
X0146008Y0198619D02*
X0146008Y0199236D01*
X0145391Y0199853D01*
X0144157Y0199853D01*
X0143540Y0199236D01*
X0141091Y0199853D02*
X0141091Y0196150D01*
X0139857Y0196150D02*
X0142325Y0196150D01*
X0143540Y0196150D02*
X0146008Y0198619D01*
X0146008Y0196150D02*
X0143540Y0196150D01*
X0139857Y0198619D02*
X0141091Y0199853D01*
X0136008Y0199236D02*
X0136008Y0198619D01*
X0135391Y0198002D01*
X0136008Y0197384D01*
X0136008Y0196767D01*
X0135391Y0196150D01*
X0134157Y0196150D01*
X0133540Y0196767D01*
X0132325Y0196150D02*
X0129857Y0196150D01*
X0131091Y0196150D02*
X0131091Y0199853D01*
X0129857Y0198619D01*
X0133540Y0199236D02*
X0134157Y0199853D01*
X0135391Y0199853D01*
X0136008Y0199236D01*
X0135391Y0198002D02*
X0134774Y0198002D01*
X0127558Y0210150D02*
X0125706Y0210150D01*
X0125089Y0210767D01*
X0125089Y0212002D01*
X0125706Y0212619D01*
X0127558Y0212619D01*
X0127558Y0213853D02*
X0127558Y0210150D01*
X0123875Y0210150D02*
X0123875Y0212002D01*
X0123258Y0212619D01*
X0121406Y0212619D01*
X0121406Y0210150D01*
X0120192Y0210767D02*
X0120192Y0212002D01*
X0118957Y0212002D01*
X0117723Y0213236D02*
X0117723Y0210767D01*
X0118340Y0210150D01*
X0119574Y0210150D01*
X0120192Y0210767D01*
X0120192Y0213236D02*
X0119574Y0213853D01*
X0118340Y0213853D01*
X0117723Y0213236D01*
X0107058Y0212619D02*
X0107058Y0210150D01*
X0107058Y0212002D02*
X0104589Y0212002D01*
X0104589Y0212619D02*
X0105824Y0213853D01*
X0107058Y0212619D01*
X0104589Y0212619D02*
X0104589Y0210150D01*
X0103375Y0210767D02*
X0102758Y0210150D01*
X0100906Y0210150D01*
X0100906Y0213853D01*
X0102758Y0213853D01*
X0103375Y0213236D01*
X0103375Y0210767D01*
X0099692Y0210767D02*
X0099074Y0210150D01*
X0097840Y0210150D01*
X0097223Y0210767D01*
X0097840Y0212002D02*
X0099074Y0212002D01*
X0099692Y0211384D01*
X0099692Y0210767D01*
X0097840Y0212002D02*
X0097223Y0212619D01*
X0097223Y0213236D01*
X0097840Y0213853D01*
X0099074Y0213853D01*
X0099692Y0213236D01*
X0095589Y0199853D02*
X0095589Y0196150D01*
X0098058Y0196150D01*
X0094375Y0196767D02*
X0093758Y0196150D01*
X0092523Y0196150D01*
X0091906Y0196767D01*
X0091906Y0199236D01*
X0092523Y0199853D01*
X0093758Y0199853D01*
X0094375Y0199236D01*
X0090692Y0199236D02*
X0090074Y0199853D01*
X0088840Y0199853D01*
X0088223Y0199236D01*
X0088223Y0198619D01*
X0088840Y0198002D01*
X0090074Y0198002D01*
X0090692Y0197384D01*
X0090692Y0196767D01*
X0090074Y0196150D01*
X0088840Y0196150D01*
X0088223Y0196767D01*
X0106223Y0196150D02*
X0106223Y0198619D01*
X0107457Y0199853D01*
X0108692Y0198619D01*
X0108692Y0196150D01*
X0109906Y0196150D02*
X0109906Y0199853D01*
X0111758Y0199853D01*
X0112375Y0199236D01*
X0112375Y0198002D01*
X0111758Y0197384D01*
X0109906Y0197384D01*
X0111140Y0197384D02*
X0112375Y0196150D01*
X0113589Y0196767D02*
X0113589Y0198002D01*
X0114206Y0198619D01*
X0115441Y0198619D01*
X0116058Y0198002D01*
X0116058Y0197384D01*
X0113589Y0197384D01*
X0113589Y0196767D02*
X0114206Y0196150D01*
X0115441Y0196150D01*
X0117889Y0196150D02*
X0117889Y0199236D01*
X0118507Y0199853D01*
X0118507Y0198002D02*
X0117272Y0198002D01*
X0108692Y0198002D02*
X0106223Y0198002D01*
X0143223Y0210150D02*
X0145074Y0210150D01*
X0145692Y0210767D01*
X0145692Y0213236D01*
X0145074Y0213853D01*
X0143223Y0213853D01*
X0143223Y0210150D01*
X0146906Y0210150D02*
X0148140Y0210150D01*
X0147523Y0210150D02*
X0147523Y0212619D01*
X0146906Y0212619D01*
X0147523Y0213853D02*
X0147523Y0214470D01*
X0149979Y0212619D02*
X0149361Y0212002D01*
X0149361Y0210767D01*
X0149979Y0210150D01*
X0151830Y0210150D01*
X0151830Y0209533D02*
X0151830Y0212619D01*
X0149979Y0212619D01*
X0153045Y0212619D02*
X0153662Y0212619D01*
X0153662Y0210150D01*
X0153045Y0210150D02*
X0154279Y0210150D01*
X0156117Y0210767D02*
X0156734Y0210150D01*
X0156117Y0210767D02*
X0156117Y0213236D01*
X0155500Y0212619D02*
X0156734Y0212619D01*
X0158573Y0212619D02*
X0159807Y0212619D01*
X0160424Y0212002D01*
X0160424Y0210150D01*
X0158573Y0210150D01*
X0157955Y0210767D01*
X0158573Y0211384D01*
X0160424Y0211384D01*
X0161639Y0210150D02*
X0162873Y0210150D01*
X0162256Y0210150D02*
X0162256Y0213853D01*
X0161639Y0213853D01*
X0167777Y0213853D02*
X0169012Y0213853D01*
X0168394Y0213853D02*
X0168394Y0210150D01*
X0167777Y0210150D02*
X0169012Y0210150D01*
X0170233Y0210150D02*
X0172701Y0213853D01*
X0173916Y0213236D02*
X0173916Y0210767D01*
X0174533Y0210150D01*
X0175767Y0210150D01*
X0176384Y0210767D01*
X0176384Y0213236D01*
X0175767Y0213853D01*
X0174533Y0213853D01*
X0173916Y0213236D01*
X0153662Y0213853D02*
X0153662Y0214470D01*
X0151830Y0209533D02*
X0151213Y0208916D01*
X0150596Y0208916D01*
X0154774Y0199853D02*
X0154774Y0196150D01*
X0153540Y0198619D02*
X0154774Y0199853D01*
X0062508Y0206150D02*
X0060657Y0206150D01*
X0060040Y0206767D01*
X0060040Y0208002D01*
X0060657Y0208619D01*
X0062508Y0208619D01*
X0058825Y0208619D02*
X0056974Y0208619D01*
X0056357Y0208002D01*
X0056357Y0206767D01*
X0056974Y0206150D01*
X0058825Y0206150D01*
X0058825Y0209853D01*
X0055142Y0209853D02*
X0055142Y0207384D01*
X0053908Y0206150D01*
X0052673Y0207384D01*
X0052673Y0209853D01*
X0047776Y0209853D02*
X0045307Y0209853D01*
X0045307Y0208002D01*
X0046541Y0208619D01*
X0047159Y0208619D01*
X0047776Y0208002D01*
X0047776Y0206767D01*
X0047159Y0206150D01*
X0045924Y0206150D01*
X0045307Y0206767D01*
X0044093Y0206150D02*
X0041624Y0206150D01*
X0042858Y0206150D02*
X0042858Y0209853D01*
X0041624Y0208619D01*
X0040410Y0208002D02*
X0037941Y0208002D01*
X0036726Y0209236D02*
X0034258Y0206767D01*
X0034258Y0206150D01*
X0034875Y0203853D02*
X0036109Y0203853D01*
X0036726Y0203236D01*
X0036726Y0202619D01*
X0036109Y0202002D01*
X0036726Y0201384D01*
X0036726Y0200767D01*
X0036109Y0200150D01*
X0034875Y0200150D01*
X0034258Y0200767D01*
X0035492Y0202002D02*
X0036109Y0202002D01*
X0037941Y0202002D02*
X0040410Y0202002D01*
X0040410Y0202619D02*
X0040410Y0200150D01*
X0041624Y0200150D02*
X0041624Y0202619D01*
X0042241Y0202619D01*
X0042858Y0202002D01*
X0043476Y0202619D01*
X0044093Y0202002D01*
X0044093Y0200150D01*
X0042858Y0200150D02*
X0042858Y0202002D01*
X0040410Y0202619D02*
X0039175Y0203853D01*
X0037941Y0202619D01*
X0037941Y0200150D01*
X0034258Y0203236D02*
X0034875Y0203853D01*
X0036726Y0209236D02*
X0036726Y0209853D01*
X0034258Y0209853D01*
X0045924Y0202619D02*
X0047159Y0202619D01*
X0047776Y0202002D01*
X0047776Y0200150D01*
X0045924Y0200150D01*
X0045307Y0200767D01*
X0045924Y0201384D01*
X0047776Y0201384D01*
X0048990Y0200150D02*
X0051459Y0202619D01*
X0048990Y0202619D02*
X0051459Y0200150D01*
X0050174Y0152052D02*
X0050658Y0151569D01*
X0050658Y0149634D01*
X0050174Y0149150D01*
X0049207Y0149150D01*
X0048723Y0149634D01*
X0048723Y0151569D01*
X0049207Y0152052D01*
X0050174Y0152052D01*
X0051669Y0151085D02*
X0051669Y0149634D01*
X0052153Y0149150D01*
X0053604Y0149150D01*
X0053604Y0151085D01*
X0054616Y0151085D02*
X0055583Y0151085D01*
X0055100Y0151569D02*
X0055100Y0149634D01*
X0055583Y0149150D01*
X0056580Y0149634D02*
X0057064Y0149150D01*
X0058031Y0149150D01*
X0058515Y0149634D01*
X0058515Y0150117D01*
X0058031Y0150601D01*
X0057548Y0150601D01*
X0058031Y0150601D02*
X0058515Y0151085D01*
X0058515Y0151569D01*
X0058031Y0152052D01*
X0057064Y0152052D01*
X0056580Y0151569D01*
X0058031Y0141552D02*
X0056580Y0140101D01*
X0058515Y0140101D01*
X0058031Y0138650D02*
X0058031Y0141552D01*
X0055583Y0140585D02*
X0054616Y0140585D01*
X0055100Y0141069D02*
X0055100Y0139134D01*
X0055583Y0138650D01*
X0053604Y0138650D02*
X0053604Y0140585D01*
X0051669Y0140585D02*
X0051669Y0139134D01*
X0052153Y0138650D01*
X0053604Y0138650D01*
X0050658Y0139134D02*
X0050658Y0141069D01*
X0050174Y0141552D01*
X0049207Y0141552D01*
X0048723Y0141069D01*
X0048723Y0139134D01*
X0049207Y0138650D01*
X0050174Y0138650D01*
X0050658Y0139134D01*
X0050174Y0131052D02*
X0050658Y0130569D01*
X0050658Y0128634D01*
X0050174Y0128150D01*
X0049207Y0128150D01*
X0048723Y0128634D01*
X0048723Y0130569D01*
X0049207Y0131052D01*
X0050174Y0131052D01*
X0051669Y0130085D02*
X0051669Y0128634D01*
X0052153Y0128150D01*
X0053604Y0128150D01*
X0053604Y0130085D01*
X0054616Y0130085D02*
X0055583Y0130085D01*
X0055100Y0130569D02*
X0055100Y0128634D01*
X0055583Y0128150D01*
X0056580Y0128150D02*
X0058515Y0130085D01*
X0058515Y0130569D01*
X0058031Y0131052D01*
X0057064Y0131052D01*
X0056580Y0130569D01*
X0056580Y0128150D02*
X0058515Y0128150D01*
X0057548Y0121552D02*
X0056580Y0120585D01*
X0055583Y0120585D02*
X0054616Y0120585D01*
X0055100Y0121069D02*
X0055100Y0119134D01*
X0055583Y0118650D01*
X0056580Y0118650D02*
X0058515Y0118650D01*
X0057548Y0118650D02*
X0057548Y0121552D01*
X0053604Y0120585D02*
X0053604Y0118650D01*
X0052153Y0118650D01*
X0051669Y0119134D01*
X0051669Y0120585D01*
X0050658Y0121069D02*
X0050658Y0119134D01*
X0050174Y0118650D01*
X0049207Y0118650D01*
X0048723Y0119134D01*
X0048723Y0121069D01*
X0049207Y0121552D01*
X0050174Y0121552D01*
X0050658Y0121069D01*
X0143683Y0009853D02*
X0145535Y0009853D01*
X0146152Y0009236D01*
X0146152Y0008002D01*
X0145535Y0007384D01*
X0143683Y0007384D01*
X0143683Y0006150D02*
X0143683Y0009853D01*
X0144917Y0007384D02*
X0146152Y0006150D01*
X0147366Y0006767D02*
X0147983Y0006150D01*
X0149218Y0006150D01*
X0149835Y0006767D01*
X0149835Y0007384D01*
X0149218Y0008002D01*
X0147983Y0008002D01*
X0147366Y0008619D01*
X0147366Y0009236D01*
X0147983Y0009853D01*
X0149218Y0009853D01*
X0149835Y0009236D01*
X0151049Y0009853D02*
X0153518Y0009853D01*
X0152284Y0009853D02*
X0152284Y0006150D01*
D11*
X0051873Y0064284D02*
X0047269Y0064284D01*
X0047269Y0067354D01*
X0048804Y0068888D02*
X0051106Y0068888D01*
X0051873Y0069655D01*
X0051873Y0071957D01*
X0048804Y0071957D01*
X0049571Y0073492D02*
X0048804Y0074259D01*
X0048804Y0076561D01*
X0050338Y0075794D02*
X0050338Y0074259D01*
X0049571Y0073492D01*
X0051873Y0073492D02*
X0051873Y0075794D01*
X0051106Y0076561D01*
X0050338Y0075794D01*
X0050338Y0078096D02*
X0050338Y0081165D01*
X0049571Y0081165D01*
X0048804Y0080398D01*
X0048804Y0078863D01*
X0049571Y0078096D01*
X0051106Y0078096D01*
X0051873Y0078863D01*
X0051873Y0080398D01*
X0051873Y0085076D02*
X0047269Y0085076D01*
X0047269Y0088146D01*
X0049571Y0089680D02*
X0049571Y0092750D01*
X0048804Y0094284D02*
X0049571Y0095052D01*
X0049571Y0096586D01*
X0050338Y0097354D01*
X0051106Y0097354D01*
X0051873Y0096586D01*
X0051873Y0095052D01*
X0051106Y0094284D01*
X0048804Y0094284D02*
X0048036Y0094284D01*
X0047269Y0095052D01*
X0047269Y0096586D01*
X0048036Y0097354D01*
X0047269Y0098888D02*
X0047269Y0101957D01*
X0047269Y0100423D02*
X0051873Y0100423D01*
X0051106Y0103492D02*
X0048036Y0103492D01*
X0047269Y0104259D01*
X0047269Y0105794D01*
X0048036Y0106561D01*
X0051106Y0106561D01*
X0051873Y0105794D01*
X0051873Y0104259D01*
X0051106Y0103492D01*
X0056304Y0103492D02*
X0059373Y0103492D01*
X0057838Y0103492D02*
X0056304Y0105027D01*
X0056304Y0105794D01*
X0051873Y0108096D02*
X0047269Y0108096D01*
X0047269Y0110398D01*
X0048036Y0111165D01*
X0049571Y0111165D01*
X0050338Y0110398D01*
X0050338Y0108096D01*
X0057071Y0101957D02*
X0056304Y0101190D01*
X0056304Y0099655D01*
X0057071Y0098888D01*
X0058606Y0098888D01*
X0059373Y0099655D01*
X0059373Y0101190D01*
X0057838Y0101957D02*
X0057838Y0098888D01*
X0058606Y0097354D02*
X0056304Y0097354D01*
X0058606Y0097354D02*
X0059373Y0096586D01*
X0058606Y0095819D01*
X0059373Y0095052D01*
X0058606Y0094284D01*
X0056304Y0094284D01*
X0057071Y0092750D02*
X0056304Y0091982D01*
X0056304Y0090448D01*
X0057071Y0089680D01*
X0058606Y0089680D01*
X0059373Y0090448D01*
X0059373Y0091982D01*
X0058606Y0092750D01*
X0057071Y0092750D01*
X0057071Y0088146D02*
X0055536Y0088146D01*
X0054769Y0087378D01*
X0054769Y0085076D01*
X0059373Y0085076D01*
X0057838Y0085076D02*
X0057838Y0087378D01*
X0057071Y0088146D01*
X0051873Y0088146D02*
X0051873Y0085076D01*
X0049571Y0085076D02*
X0049571Y0086611D01*
X0057071Y0101957D02*
X0057838Y0101957D01*
X0049571Y0065819D02*
X0049571Y0064284D01*
D12*
X0076766Y0072299D02*
X0076766Y0047701D01*
X0090388Y0047701D01*
X0090388Y0072299D01*
X0076766Y0072299D01*
X0045573Y0090520D02*
X0045573Y0097020D01*
X0045573Y0098520D01*
X0041573Y0098520D01*
X0039573Y0098520D01*
X0039573Y0116823D01*
X0041573Y0116823D01*
X0045573Y0116823D01*
X0045573Y0118323D01*
X0045573Y0124823D01*
X0045571Y0124910D01*
X0045565Y0124997D01*
X0045556Y0125084D01*
X0045543Y0125170D01*
X0045526Y0125256D01*
X0045505Y0125341D01*
X0045480Y0125424D01*
X0045452Y0125507D01*
X0045421Y0125588D01*
X0045386Y0125668D01*
X0045347Y0125746D01*
X0045305Y0125823D01*
X0045260Y0125898D01*
X0045211Y0125970D01*
X0045160Y0126041D01*
X0045105Y0126109D01*
X0045048Y0126174D01*
X0044987Y0126237D01*
X0044924Y0126298D01*
X0044859Y0126355D01*
X0044791Y0126410D01*
X0044720Y0126461D01*
X0044648Y0126510D01*
X0044573Y0126555D01*
X0044496Y0126597D01*
X0044418Y0126636D01*
X0044338Y0126671D01*
X0044257Y0126702D01*
X0044174Y0126730D01*
X0044091Y0126755D01*
X0044006Y0126776D01*
X0043920Y0126793D01*
X0043834Y0126806D01*
X0043747Y0126815D01*
X0043660Y0126821D01*
X0043573Y0126823D01*
X0018573Y0126823D01*
X0018486Y0126821D01*
X0018399Y0126815D01*
X0018312Y0126806D01*
X0018226Y0126793D01*
X0018140Y0126776D01*
X0018055Y0126755D01*
X0017972Y0126730D01*
X0017889Y0126702D01*
X0017808Y0126671D01*
X0017728Y0126636D01*
X0017650Y0126597D01*
X0017573Y0126555D01*
X0017498Y0126510D01*
X0017426Y0126461D01*
X0017355Y0126410D01*
X0017287Y0126355D01*
X0017222Y0126298D01*
X0017159Y0126237D01*
X0017098Y0126174D01*
X0017041Y0126109D01*
X0016986Y0126041D01*
X0016935Y0125970D01*
X0016886Y0125898D01*
X0016841Y0125823D01*
X0016799Y0125746D01*
X0016760Y0125668D01*
X0016725Y0125588D01*
X0016694Y0125507D01*
X0016666Y0125424D01*
X0016641Y0125341D01*
X0016620Y0125256D01*
X0016603Y0125170D01*
X0016590Y0125084D01*
X0016581Y0124997D01*
X0016575Y0124910D01*
X0016573Y0124823D01*
X0016573Y0090520D01*
X0016575Y0090433D01*
X0016581Y0090346D01*
X0016590Y0090259D01*
X0016603Y0090173D01*
X0016620Y0090087D01*
X0016641Y0090002D01*
X0016666Y0089919D01*
X0016694Y0089836D01*
X0016725Y0089755D01*
X0016760Y0089675D01*
X0016799Y0089597D01*
X0016841Y0089520D01*
X0016886Y0089445D01*
X0016935Y0089373D01*
X0016986Y0089302D01*
X0017041Y0089234D01*
X0017098Y0089169D01*
X0017159Y0089106D01*
X0017222Y0089045D01*
X0017287Y0088988D01*
X0017355Y0088933D01*
X0017426Y0088882D01*
X0017498Y0088833D01*
X0017573Y0088788D01*
X0017650Y0088746D01*
X0017728Y0088707D01*
X0017808Y0088672D01*
X0017889Y0088641D01*
X0017972Y0088613D01*
X0018055Y0088588D01*
X0018140Y0088567D01*
X0018226Y0088550D01*
X0018312Y0088537D01*
X0018399Y0088528D01*
X0018486Y0088522D01*
X0018573Y0088520D01*
X0043573Y0088520D01*
X0043660Y0088522D01*
X0043747Y0088528D01*
X0043834Y0088537D01*
X0043920Y0088550D01*
X0044006Y0088567D01*
X0044091Y0088588D01*
X0044174Y0088613D01*
X0044257Y0088641D01*
X0044338Y0088672D01*
X0044418Y0088707D01*
X0044496Y0088746D01*
X0044573Y0088788D01*
X0044648Y0088833D01*
X0044720Y0088882D01*
X0044791Y0088933D01*
X0044859Y0088988D01*
X0044924Y0089045D01*
X0044987Y0089106D01*
X0045048Y0089169D01*
X0045105Y0089234D01*
X0045160Y0089302D01*
X0045211Y0089373D01*
X0045260Y0089445D01*
X0045305Y0089520D01*
X0045347Y0089597D01*
X0045386Y0089675D01*
X0045421Y0089755D01*
X0045452Y0089836D01*
X0045480Y0089919D01*
X0045505Y0090002D01*
X0045526Y0090087D01*
X0045543Y0090173D01*
X0045556Y0090259D01*
X0045565Y0090346D01*
X0045571Y0090433D01*
X0045573Y0090520D01*
X0041573Y0093520D02*
X0041573Y0097020D01*
X0041573Y0098520D01*
X0041573Y0093520D02*
X0041571Y0093460D01*
X0041566Y0093399D01*
X0041557Y0093340D01*
X0041544Y0093281D01*
X0041528Y0093222D01*
X0041508Y0093165D01*
X0041485Y0093110D01*
X0041458Y0093055D01*
X0041429Y0093003D01*
X0041396Y0092952D01*
X0041360Y0092903D01*
X0041322Y0092857D01*
X0041280Y0092813D01*
X0041236Y0092771D01*
X0041190Y0092733D01*
X0041141Y0092697D01*
X0041090Y0092664D01*
X0041038Y0092635D01*
X0040983Y0092608D01*
X0040928Y0092585D01*
X0040871Y0092565D01*
X0040812Y0092549D01*
X0040753Y0092536D01*
X0040694Y0092527D01*
X0040633Y0092522D01*
X0040573Y0092520D01*
X0036073Y0092520D01*
X0026073Y0092520D01*
X0021573Y0092520D01*
X0021513Y0092522D01*
X0021452Y0092527D01*
X0021393Y0092536D01*
X0021334Y0092549D01*
X0021275Y0092565D01*
X0021218Y0092585D01*
X0021163Y0092608D01*
X0021108Y0092635D01*
X0021056Y0092664D01*
X0021005Y0092697D01*
X0020956Y0092733D01*
X0020910Y0092771D01*
X0020866Y0092813D01*
X0020824Y0092857D01*
X0020786Y0092903D01*
X0020750Y0092952D01*
X0020717Y0093003D01*
X0020688Y0093055D01*
X0020661Y0093110D01*
X0020638Y0093165D01*
X0020618Y0093222D01*
X0020602Y0093281D01*
X0020589Y0093340D01*
X0020580Y0093399D01*
X0020575Y0093460D01*
X0020573Y0093520D01*
X0020573Y0121823D01*
X0020575Y0121883D01*
X0020580Y0121944D01*
X0020589Y0122003D01*
X0020602Y0122062D01*
X0020618Y0122121D01*
X0020638Y0122178D01*
X0020661Y0122233D01*
X0020688Y0122288D01*
X0020717Y0122340D01*
X0020750Y0122391D01*
X0020786Y0122440D01*
X0020824Y0122486D01*
X0020866Y0122530D01*
X0020910Y0122572D01*
X0020956Y0122610D01*
X0021005Y0122646D01*
X0021056Y0122679D01*
X0021108Y0122708D01*
X0021163Y0122735D01*
X0021218Y0122758D01*
X0021275Y0122778D01*
X0021334Y0122794D01*
X0021393Y0122807D01*
X0021452Y0122816D01*
X0021513Y0122821D01*
X0021573Y0122823D01*
X0026073Y0122823D01*
X0036073Y0122823D01*
X0040573Y0122823D01*
X0040633Y0122821D01*
X0040694Y0122816D01*
X0040753Y0122807D01*
X0040812Y0122794D01*
X0040871Y0122778D01*
X0040928Y0122758D01*
X0040983Y0122735D01*
X0041038Y0122708D01*
X0041090Y0122679D01*
X0041141Y0122646D01*
X0041190Y0122610D01*
X0041236Y0122572D01*
X0041280Y0122530D01*
X0041322Y0122486D01*
X0041360Y0122440D01*
X0041396Y0122391D01*
X0041429Y0122340D01*
X0041458Y0122288D01*
X0041485Y0122233D01*
X0041508Y0122178D01*
X0041528Y0122121D01*
X0041544Y0122062D01*
X0041557Y0122003D01*
X0041566Y0121944D01*
X0041571Y0121883D01*
X0041573Y0121823D01*
X0041573Y0118323D01*
X0041573Y0116823D01*
X0036073Y0122823D02*
X0036073Y0092520D01*
X0026073Y0092520D02*
X0026073Y0122823D01*
X0114715Y0067500D02*
X0114715Y0042500D01*
X0114717Y0042413D01*
X0114723Y0042326D01*
X0114732Y0042239D01*
X0114745Y0042153D01*
X0114762Y0042067D01*
X0114783Y0041982D01*
X0114808Y0041899D01*
X0114836Y0041816D01*
X0114867Y0041735D01*
X0114902Y0041655D01*
X0114941Y0041577D01*
X0114983Y0041500D01*
X0115028Y0041425D01*
X0115077Y0041353D01*
X0115128Y0041282D01*
X0115183Y0041214D01*
X0115240Y0041149D01*
X0115301Y0041086D01*
X0115364Y0041025D01*
X0115429Y0040968D01*
X0115497Y0040913D01*
X0115568Y0040862D01*
X0115640Y0040813D01*
X0115715Y0040768D01*
X0115792Y0040726D01*
X0115870Y0040687D01*
X0115950Y0040652D01*
X0116031Y0040621D01*
X0116114Y0040593D01*
X0116197Y0040568D01*
X0116282Y0040547D01*
X0116368Y0040530D01*
X0116454Y0040517D01*
X0116541Y0040508D01*
X0116628Y0040502D01*
X0116715Y0040500D01*
X0123215Y0040500D01*
X0124715Y0040500D01*
X0124715Y0044500D01*
X0124715Y0046500D01*
X0152817Y0046500D01*
X0152817Y0044500D01*
X0152817Y0040500D01*
X0154317Y0040500D01*
X0160817Y0040500D01*
X0160904Y0040502D01*
X0160991Y0040508D01*
X0161078Y0040517D01*
X0161164Y0040530D01*
X0161250Y0040547D01*
X0161335Y0040568D01*
X0161418Y0040593D01*
X0161501Y0040621D01*
X0161582Y0040652D01*
X0161662Y0040687D01*
X0161740Y0040726D01*
X0161817Y0040768D01*
X0161892Y0040813D01*
X0161964Y0040862D01*
X0162035Y0040913D01*
X0162103Y0040968D01*
X0162168Y0041025D01*
X0162231Y0041086D01*
X0162292Y0041149D01*
X0162349Y0041214D01*
X0162404Y0041282D01*
X0162455Y0041353D01*
X0162504Y0041425D01*
X0162549Y0041500D01*
X0162591Y0041577D01*
X0162630Y0041655D01*
X0162665Y0041735D01*
X0162696Y0041816D01*
X0162724Y0041899D01*
X0162749Y0041982D01*
X0162770Y0042067D01*
X0162787Y0042153D01*
X0162800Y0042239D01*
X0162809Y0042326D01*
X0162815Y0042413D01*
X0162817Y0042500D01*
X0162817Y0067500D01*
X0162815Y0067587D01*
X0162809Y0067674D01*
X0162800Y0067761D01*
X0162787Y0067847D01*
X0162770Y0067933D01*
X0162749Y0068018D01*
X0162724Y0068101D01*
X0162696Y0068184D01*
X0162665Y0068265D01*
X0162630Y0068345D01*
X0162591Y0068423D01*
X0162549Y0068500D01*
X0162504Y0068575D01*
X0162455Y0068647D01*
X0162404Y0068718D01*
X0162349Y0068786D01*
X0162292Y0068851D01*
X0162231Y0068914D01*
X0162168Y0068975D01*
X0162103Y0069032D01*
X0162035Y0069087D01*
X0161964Y0069138D01*
X0161892Y0069187D01*
X0161817Y0069232D01*
X0161740Y0069274D01*
X0161662Y0069313D01*
X0161582Y0069348D01*
X0161501Y0069379D01*
X0161418Y0069407D01*
X0161335Y0069432D01*
X0161250Y0069453D01*
X0161164Y0069470D01*
X0161078Y0069483D01*
X0160991Y0069492D01*
X0160904Y0069498D01*
X0160817Y0069500D01*
X0116715Y0069500D01*
X0116628Y0069498D01*
X0116541Y0069492D01*
X0116454Y0069483D01*
X0116368Y0069470D01*
X0116282Y0069453D01*
X0116197Y0069432D01*
X0116114Y0069407D01*
X0116031Y0069379D01*
X0115950Y0069348D01*
X0115870Y0069313D01*
X0115792Y0069274D01*
X0115715Y0069232D01*
X0115640Y0069187D01*
X0115568Y0069138D01*
X0115497Y0069087D01*
X0115429Y0069032D01*
X0115364Y0068975D01*
X0115301Y0068914D01*
X0115240Y0068851D01*
X0115183Y0068786D01*
X0115128Y0068718D01*
X0115077Y0068647D01*
X0115028Y0068575D01*
X0114983Y0068500D01*
X0114941Y0068423D01*
X0114902Y0068345D01*
X0114867Y0068265D01*
X0114836Y0068184D01*
X0114808Y0068101D01*
X0114783Y0068018D01*
X0114762Y0067933D01*
X0114745Y0067847D01*
X0114732Y0067761D01*
X0114723Y0067674D01*
X0114717Y0067587D01*
X0114715Y0067500D01*
X0119715Y0065500D02*
X0157817Y0065500D01*
X0157877Y0065498D01*
X0157938Y0065493D01*
X0157997Y0065484D01*
X0158056Y0065471D01*
X0158115Y0065455D01*
X0158172Y0065435D01*
X0158227Y0065412D01*
X0158282Y0065385D01*
X0158334Y0065356D01*
X0158385Y0065323D01*
X0158434Y0065287D01*
X0158480Y0065249D01*
X0158524Y0065207D01*
X0158566Y0065163D01*
X0158604Y0065117D01*
X0158640Y0065068D01*
X0158673Y0065017D01*
X0158702Y0064965D01*
X0158729Y0064910D01*
X0158752Y0064855D01*
X0158772Y0064798D01*
X0158788Y0064739D01*
X0158801Y0064680D01*
X0158810Y0064621D01*
X0158815Y0064560D01*
X0158817Y0064500D01*
X0158817Y0060000D01*
X0158817Y0050000D01*
X0158817Y0045500D01*
X0158815Y0045440D01*
X0158810Y0045379D01*
X0158801Y0045320D01*
X0158788Y0045261D01*
X0158772Y0045202D01*
X0158752Y0045145D01*
X0158729Y0045090D01*
X0158702Y0045035D01*
X0158673Y0044983D01*
X0158640Y0044932D01*
X0158604Y0044883D01*
X0158566Y0044837D01*
X0158524Y0044793D01*
X0158480Y0044751D01*
X0158434Y0044713D01*
X0158385Y0044677D01*
X0158334Y0044644D01*
X0158282Y0044615D01*
X0158227Y0044588D01*
X0158172Y0044565D01*
X0158115Y0044545D01*
X0158056Y0044529D01*
X0157997Y0044516D01*
X0157938Y0044507D01*
X0157877Y0044502D01*
X0157817Y0044500D01*
X0154317Y0044500D01*
X0152817Y0044500D01*
X0158817Y0050000D02*
X0118715Y0050000D01*
X0118715Y0060000D01*
X0118715Y0064500D01*
X0118717Y0064560D01*
X0118722Y0064621D01*
X0118731Y0064680D01*
X0118744Y0064739D01*
X0118760Y0064798D01*
X0118780Y0064855D01*
X0118803Y0064910D01*
X0118830Y0064965D01*
X0118859Y0065017D01*
X0118892Y0065068D01*
X0118928Y0065117D01*
X0118966Y0065163D01*
X0119008Y0065207D01*
X0119052Y0065249D01*
X0119098Y0065287D01*
X0119147Y0065323D01*
X0119198Y0065356D01*
X0119250Y0065385D01*
X0119305Y0065412D01*
X0119360Y0065435D01*
X0119417Y0065455D01*
X0119476Y0065471D01*
X0119535Y0065484D01*
X0119594Y0065493D01*
X0119655Y0065498D01*
X0119715Y0065500D01*
X0118715Y0060000D02*
X0158817Y0060000D01*
X0173073Y0046020D02*
X0173073Y0074323D01*
X0173075Y0074383D01*
X0173080Y0074444D01*
X0173089Y0074503D01*
X0173102Y0074562D01*
X0173118Y0074621D01*
X0173138Y0074678D01*
X0173161Y0074733D01*
X0173188Y0074788D01*
X0173217Y0074840D01*
X0173250Y0074891D01*
X0173286Y0074940D01*
X0173324Y0074986D01*
X0173366Y0075030D01*
X0173410Y0075072D01*
X0173456Y0075110D01*
X0173505Y0075146D01*
X0173556Y0075179D01*
X0173608Y0075208D01*
X0173663Y0075235D01*
X0173718Y0075258D01*
X0173775Y0075278D01*
X0173834Y0075294D01*
X0173893Y0075307D01*
X0173952Y0075316D01*
X0174013Y0075321D01*
X0174073Y0075323D01*
X0178573Y0075323D01*
X0188573Y0075323D01*
X0193073Y0075323D01*
X0193133Y0075321D01*
X0193194Y0075316D01*
X0193253Y0075307D01*
X0193312Y0075294D01*
X0193371Y0075278D01*
X0193428Y0075258D01*
X0193483Y0075235D01*
X0193538Y0075208D01*
X0193590Y0075179D01*
X0193641Y0075146D01*
X0193690Y0075110D01*
X0193736Y0075072D01*
X0193780Y0075030D01*
X0193822Y0074986D01*
X0193860Y0074940D01*
X0193896Y0074891D01*
X0193929Y0074840D01*
X0193958Y0074788D01*
X0193985Y0074733D01*
X0194008Y0074678D01*
X0194028Y0074621D01*
X0194044Y0074562D01*
X0194057Y0074503D01*
X0194066Y0074444D01*
X0194071Y0074383D01*
X0194073Y0074323D01*
X0194073Y0070823D01*
X0194073Y0069323D01*
X0192073Y0069323D01*
X0192073Y0051020D01*
X0194073Y0051020D01*
X0194073Y0049520D01*
X0194073Y0046020D01*
X0194071Y0045960D01*
X0194066Y0045899D01*
X0194057Y0045840D01*
X0194044Y0045781D01*
X0194028Y0045722D01*
X0194008Y0045665D01*
X0193985Y0045610D01*
X0193958Y0045555D01*
X0193929Y0045503D01*
X0193896Y0045452D01*
X0193860Y0045403D01*
X0193822Y0045357D01*
X0193780Y0045313D01*
X0193736Y0045271D01*
X0193690Y0045233D01*
X0193641Y0045197D01*
X0193590Y0045164D01*
X0193538Y0045135D01*
X0193483Y0045108D01*
X0193428Y0045085D01*
X0193371Y0045065D01*
X0193312Y0045049D01*
X0193253Y0045036D01*
X0193194Y0045027D01*
X0193133Y0045022D01*
X0193073Y0045020D01*
X0188573Y0045020D01*
X0178573Y0045020D01*
X0174073Y0045020D01*
X0174013Y0045022D01*
X0173952Y0045027D01*
X0173893Y0045036D01*
X0173834Y0045049D01*
X0173775Y0045065D01*
X0173718Y0045085D01*
X0173663Y0045108D01*
X0173608Y0045135D01*
X0173556Y0045164D01*
X0173505Y0045197D01*
X0173456Y0045233D01*
X0173410Y0045271D01*
X0173366Y0045313D01*
X0173324Y0045357D01*
X0173286Y0045403D01*
X0173250Y0045452D01*
X0173217Y0045503D01*
X0173188Y0045555D01*
X0173161Y0045610D01*
X0173138Y0045665D01*
X0173118Y0045722D01*
X0173102Y0045781D01*
X0173089Y0045840D01*
X0173080Y0045899D01*
X0173075Y0045960D01*
X0173073Y0046020D01*
X0169073Y0043020D02*
X0169075Y0042933D01*
X0169081Y0042846D01*
X0169090Y0042759D01*
X0169103Y0042673D01*
X0169120Y0042587D01*
X0169141Y0042502D01*
X0169166Y0042419D01*
X0169194Y0042336D01*
X0169225Y0042255D01*
X0169260Y0042175D01*
X0169299Y0042097D01*
X0169341Y0042020D01*
X0169386Y0041945D01*
X0169435Y0041873D01*
X0169486Y0041802D01*
X0169541Y0041734D01*
X0169598Y0041669D01*
X0169659Y0041606D01*
X0169722Y0041545D01*
X0169787Y0041488D01*
X0169855Y0041433D01*
X0169926Y0041382D01*
X0169998Y0041333D01*
X0170073Y0041288D01*
X0170150Y0041246D01*
X0170228Y0041207D01*
X0170308Y0041172D01*
X0170389Y0041141D01*
X0170472Y0041113D01*
X0170555Y0041088D01*
X0170640Y0041067D01*
X0170726Y0041050D01*
X0170812Y0041037D01*
X0170899Y0041028D01*
X0170986Y0041022D01*
X0171073Y0041020D01*
X0196073Y0041020D01*
X0196160Y0041022D01*
X0196247Y0041028D01*
X0196334Y0041037D01*
X0196420Y0041050D01*
X0196506Y0041067D01*
X0196591Y0041088D01*
X0196674Y0041113D01*
X0196757Y0041141D01*
X0196838Y0041172D01*
X0196918Y0041207D01*
X0196996Y0041246D01*
X0197073Y0041288D01*
X0197148Y0041333D01*
X0197220Y0041382D01*
X0197291Y0041433D01*
X0197359Y0041488D01*
X0197424Y0041545D01*
X0197487Y0041606D01*
X0197548Y0041669D01*
X0197605Y0041734D01*
X0197660Y0041802D01*
X0197711Y0041873D01*
X0197760Y0041945D01*
X0197805Y0042020D01*
X0197847Y0042097D01*
X0197886Y0042175D01*
X0197921Y0042255D01*
X0197952Y0042336D01*
X0197980Y0042419D01*
X0198005Y0042502D01*
X0198026Y0042587D01*
X0198043Y0042673D01*
X0198056Y0042759D01*
X0198065Y0042846D01*
X0198071Y0042933D01*
X0198073Y0043020D01*
X0198073Y0049520D01*
X0198073Y0051020D01*
X0194073Y0051020D01*
X0188573Y0045020D02*
X0188573Y0075323D01*
X0196073Y0079323D02*
X0196160Y0079321D01*
X0196247Y0079315D01*
X0196334Y0079306D01*
X0196420Y0079293D01*
X0196506Y0079276D01*
X0196591Y0079255D01*
X0196674Y0079230D01*
X0196757Y0079202D01*
X0196838Y0079171D01*
X0196918Y0079136D01*
X0196996Y0079097D01*
X0197073Y0079055D01*
X0197148Y0079010D01*
X0197220Y0078961D01*
X0197291Y0078910D01*
X0197359Y0078855D01*
X0197424Y0078798D01*
X0197487Y0078737D01*
X0197548Y0078674D01*
X0197605Y0078609D01*
X0197660Y0078541D01*
X0197711Y0078470D01*
X0197760Y0078398D01*
X0197805Y0078323D01*
X0197847Y0078246D01*
X0197886Y0078168D01*
X0197921Y0078088D01*
X0197952Y0078007D01*
X0197980Y0077924D01*
X0198005Y0077841D01*
X0198026Y0077756D01*
X0198043Y0077670D01*
X0198056Y0077584D01*
X0198065Y0077497D01*
X0198071Y0077410D01*
X0198073Y0077323D01*
X0198073Y0070823D01*
X0198073Y0069323D01*
X0194073Y0069323D01*
X0196073Y0079323D02*
X0171073Y0079323D01*
X0171073Y0081020D02*
X0196073Y0081020D01*
X0196160Y0081022D01*
X0196247Y0081028D01*
X0196334Y0081037D01*
X0196420Y0081050D01*
X0196506Y0081067D01*
X0196591Y0081088D01*
X0196674Y0081113D01*
X0196757Y0081141D01*
X0196838Y0081172D01*
X0196918Y0081207D01*
X0196996Y0081246D01*
X0197073Y0081288D01*
X0197148Y0081333D01*
X0197220Y0081382D01*
X0197291Y0081433D01*
X0197359Y0081488D01*
X0197424Y0081545D01*
X0197487Y0081606D01*
X0197548Y0081669D01*
X0197605Y0081734D01*
X0197660Y0081802D01*
X0197711Y0081873D01*
X0197760Y0081945D01*
X0197805Y0082020D01*
X0197847Y0082097D01*
X0197886Y0082175D01*
X0197921Y0082255D01*
X0197952Y0082336D01*
X0197980Y0082419D01*
X0198005Y0082502D01*
X0198026Y0082587D01*
X0198043Y0082673D01*
X0198056Y0082759D01*
X0198065Y0082846D01*
X0198071Y0082933D01*
X0198073Y0083020D01*
X0198073Y0089520D01*
X0198073Y0091020D01*
X0194073Y0091020D01*
X0192073Y0091020D01*
X0192073Y0109323D01*
X0194073Y0109323D01*
X0198073Y0109323D01*
X0198073Y0110823D01*
X0198073Y0117323D01*
X0198071Y0117410D01*
X0198065Y0117497D01*
X0198056Y0117584D01*
X0198043Y0117670D01*
X0198026Y0117756D01*
X0198005Y0117841D01*
X0197980Y0117924D01*
X0197952Y0118007D01*
X0197921Y0118088D01*
X0197886Y0118168D01*
X0197847Y0118246D01*
X0197805Y0118323D01*
X0197760Y0118398D01*
X0197711Y0118470D01*
X0197660Y0118541D01*
X0197605Y0118609D01*
X0197548Y0118674D01*
X0197487Y0118737D01*
X0197424Y0118798D01*
X0197359Y0118855D01*
X0197291Y0118910D01*
X0197220Y0118961D01*
X0197148Y0119010D01*
X0197073Y0119055D01*
X0196996Y0119097D01*
X0196918Y0119136D01*
X0196838Y0119171D01*
X0196757Y0119202D01*
X0196674Y0119230D01*
X0196591Y0119255D01*
X0196506Y0119276D01*
X0196420Y0119293D01*
X0196334Y0119306D01*
X0196247Y0119315D01*
X0196160Y0119321D01*
X0196073Y0119323D01*
X0171073Y0119323D01*
X0171073Y0121020D02*
X0196073Y0121020D01*
X0196160Y0121022D01*
X0196247Y0121028D01*
X0196334Y0121037D01*
X0196420Y0121050D01*
X0196506Y0121067D01*
X0196591Y0121088D01*
X0196674Y0121113D01*
X0196757Y0121141D01*
X0196838Y0121172D01*
X0196918Y0121207D01*
X0196996Y0121246D01*
X0197073Y0121288D01*
X0197148Y0121333D01*
X0197220Y0121382D01*
X0197291Y0121433D01*
X0197359Y0121488D01*
X0197424Y0121545D01*
X0197487Y0121606D01*
X0197548Y0121669D01*
X0197605Y0121734D01*
X0197660Y0121802D01*
X0197711Y0121873D01*
X0197760Y0121945D01*
X0197805Y0122020D01*
X0197847Y0122097D01*
X0197886Y0122175D01*
X0197921Y0122255D01*
X0197952Y0122336D01*
X0197980Y0122419D01*
X0198005Y0122502D01*
X0198026Y0122587D01*
X0198043Y0122673D01*
X0198056Y0122759D01*
X0198065Y0122846D01*
X0198071Y0122933D01*
X0198073Y0123020D01*
X0198073Y0129520D01*
X0198073Y0131020D01*
X0194073Y0131020D01*
X0192073Y0131020D01*
X0192073Y0149323D01*
X0194073Y0149323D01*
X0198073Y0149323D01*
X0198073Y0150823D01*
X0198073Y0157323D01*
X0198071Y0157410D01*
X0198065Y0157497D01*
X0198056Y0157584D01*
X0198043Y0157670D01*
X0198026Y0157756D01*
X0198005Y0157841D01*
X0197980Y0157924D01*
X0197952Y0158007D01*
X0197921Y0158088D01*
X0197886Y0158168D01*
X0197847Y0158246D01*
X0197805Y0158323D01*
X0197760Y0158398D01*
X0197711Y0158470D01*
X0197660Y0158541D01*
X0197605Y0158609D01*
X0197548Y0158674D01*
X0197487Y0158737D01*
X0197424Y0158798D01*
X0197359Y0158855D01*
X0197291Y0158910D01*
X0197220Y0158961D01*
X0197148Y0159010D01*
X0197073Y0159055D01*
X0196996Y0159097D01*
X0196918Y0159136D01*
X0196838Y0159171D01*
X0196757Y0159202D01*
X0196674Y0159230D01*
X0196591Y0159255D01*
X0196506Y0159276D01*
X0196420Y0159293D01*
X0196334Y0159306D01*
X0196247Y0159315D01*
X0196160Y0159321D01*
X0196073Y0159323D01*
X0171073Y0159323D01*
X0170986Y0159321D01*
X0170899Y0159315D01*
X0170812Y0159306D01*
X0170726Y0159293D01*
X0170640Y0159276D01*
X0170555Y0159255D01*
X0170472Y0159230D01*
X0170389Y0159202D01*
X0170308Y0159171D01*
X0170228Y0159136D01*
X0170150Y0159097D01*
X0170073Y0159055D01*
X0169998Y0159010D01*
X0169926Y0158961D01*
X0169855Y0158910D01*
X0169787Y0158855D01*
X0169722Y0158798D01*
X0169659Y0158737D01*
X0169598Y0158674D01*
X0169541Y0158609D01*
X0169486Y0158541D01*
X0169435Y0158470D01*
X0169386Y0158398D01*
X0169341Y0158323D01*
X0169299Y0158246D01*
X0169260Y0158168D01*
X0169225Y0158088D01*
X0169194Y0158007D01*
X0169166Y0157924D01*
X0169141Y0157841D01*
X0169120Y0157756D01*
X0169103Y0157670D01*
X0169090Y0157584D01*
X0169081Y0157497D01*
X0169075Y0157410D01*
X0169073Y0157323D01*
X0169073Y0123020D01*
X0169075Y0122933D01*
X0169081Y0122846D01*
X0169090Y0122759D01*
X0169103Y0122673D01*
X0169120Y0122587D01*
X0169141Y0122502D01*
X0169166Y0122419D01*
X0169194Y0122336D01*
X0169225Y0122255D01*
X0169260Y0122175D01*
X0169299Y0122097D01*
X0169341Y0122020D01*
X0169386Y0121945D01*
X0169435Y0121873D01*
X0169486Y0121802D01*
X0169541Y0121734D01*
X0169598Y0121669D01*
X0169659Y0121606D01*
X0169722Y0121545D01*
X0169787Y0121488D01*
X0169855Y0121433D01*
X0169926Y0121382D01*
X0169998Y0121333D01*
X0170073Y0121288D01*
X0170150Y0121246D01*
X0170228Y0121207D01*
X0170308Y0121172D01*
X0170389Y0121141D01*
X0170472Y0121113D01*
X0170555Y0121088D01*
X0170640Y0121067D01*
X0170726Y0121050D01*
X0170812Y0121037D01*
X0170899Y0121028D01*
X0170986Y0121022D01*
X0171073Y0121020D01*
X0171073Y0119323D02*
X0170986Y0119321D01*
X0170899Y0119315D01*
X0170812Y0119306D01*
X0170726Y0119293D01*
X0170640Y0119276D01*
X0170555Y0119255D01*
X0170472Y0119230D01*
X0170389Y0119202D01*
X0170308Y0119171D01*
X0170228Y0119136D01*
X0170150Y0119097D01*
X0170073Y0119055D01*
X0169998Y0119010D01*
X0169926Y0118961D01*
X0169855Y0118910D01*
X0169787Y0118855D01*
X0169722Y0118798D01*
X0169659Y0118737D01*
X0169598Y0118674D01*
X0169541Y0118609D01*
X0169486Y0118541D01*
X0169435Y0118470D01*
X0169386Y0118398D01*
X0169341Y0118323D01*
X0169299Y0118246D01*
X0169260Y0118168D01*
X0169225Y0118088D01*
X0169194Y0118007D01*
X0169166Y0117924D01*
X0169141Y0117841D01*
X0169120Y0117756D01*
X0169103Y0117670D01*
X0169090Y0117584D01*
X0169081Y0117497D01*
X0169075Y0117410D01*
X0169073Y0117323D01*
X0169073Y0083020D01*
X0169075Y0082933D01*
X0169081Y0082846D01*
X0169090Y0082759D01*
X0169103Y0082673D01*
X0169120Y0082587D01*
X0169141Y0082502D01*
X0169166Y0082419D01*
X0169194Y0082336D01*
X0169225Y0082255D01*
X0169260Y0082175D01*
X0169299Y0082097D01*
X0169341Y0082020D01*
X0169386Y0081945D01*
X0169435Y0081873D01*
X0169486Y0081802D01*
X0169541Y0081734D01*
X0169598Y0081669D01*
X0169659Y0081606D01*
X0169722Y0081545D01*
X0169787Y0081488D01*
X0169855Y0081433D01*
X0169926Y0081382D01*
X0169998Y0081333D01*
X0170073Y0081288D01*
X0170150Y0081246D01*
X0170228Y0081207D01*
X0170308Y0081172D01*
X0170389Y0081141D01*
X0170472Y0081113D01*
X0170555Y0081088D01*
X0170640Y0081067D01*
X0170726Y0081050D01*
X0170812Y0081037D01*
X0170899Y0081028D01*
X0170986Y0081022D01*
X0171073Y0081020D01*
X0171073Y0079323D02*
X0170986Y0079321D01*
X0170899Y0079315D01*
X0170812Y0079306D01*
X0170726Y0079293D01*
X0170640Y0079276D01*
X0170555Y0079255D01*
X0170472Y0079230D01*
X0170389Y0079202D01*
X0170308Y0079171D01*
X0170228Y0079136D01*
X0170150Y0079097D01*
X0170073Y0079055D01*
X0169998Y0079010D01*
X0169926Y0078961D01*
X0169855Y0078910D01*
X0169787Y0078855D01*
X0169722Y0078798D01*
X0169659Y0078737D01*
X0169598Y0078674D01*
X0169541Y0078609D01*
X0169486Y0078541D01*
X0169435Y0078470D01*
X0169386Y0078398D01*
X0169341Y0078323D01*
X0169299Y0078246D01*
X0169260Y0078168D01*
X0169225Y0078088D01*
X0169194Y0078007D01*
X0169166Y0077924D01*
X0169141Y0077841D01*
X0169120Y0077756D01*
X0169103Y0077670D01*
X0169090Y0077584D01*
X0169081Y0077497D01*
X0169075Y0077410D01*
X0169073Y0077323D01*
X0169073Y0043020D01*
X0171073Y0036000D02*
X0186073Y0036000D01*
X0186133Y0035998D01*
X0186194Y0035993D01*
X0186253Y0035984D01*
X0186312Y0035971D01*
X0186371Y0035955D01*
X0186428Y0035935D01*
X0186483Y0035912D01*
X0186538Y0035885D01*
X0186590Y0035856D01*
X0186641Y0035823D01*
X0186690Y0035787D01*
X0186736Y0035749D01*
X0186780Y0035707D01*
X0186822Y0035663D01*
X0186860Y0035617D01*
X0186896Y0035568D01*
X0186929Y0035517D01*
X0186958Y0035465D01*
X0186985Y0035410D01*
X0187008Y0035355D01*
X0187028Y0035298D01*
X0187044Y0035239D01*
X0187057Y0035180D01*
X0187066Y0035121D01*
X0187071Y0035060D01*
X0187073Y0035000D01*
X0187073Y0025000D01*
X0187071Y0024940D01*
X0187066Y0024879D01*
X0187057Y0024820D01*
X0187044Y0024761D01*
X0187028Y0024702D01*
X0187008Y0024645D01*
X0186985Y0024590D01*
X0186958Y0024535D01*
X0186929Y0024483D01*
X0186896Y0024432D01*
X0186860Y0024383D01*
X0186822Y0024337D01*
X0186780Y0024293D01*
X0186736Y0024251D01*
X0186690Y0024213D01*
X0186641Y0024177D01*
X0186590Y0024144D01*
X0186538Y0024115D01*
X0186483Y0024088D01*
X0186428Y0024065D01*
X0186371Y0024045D01*
X0186312Y0024029D01*
X0186253Y0024016D01*
X0186194Y0024007D01*
X0186133Y0024002D01*
X0186073Y0024000D01*
X0171073Y0024000D01*
X0171013Y0024002D01*
X0170952Y0024007D01*
X0170893Y0024016D01*
X0170834Y0024029D01*
X0170775Y0024045D01*
X0170718Y0024065D01*
X0170663Y0024088D01*
X0170608Y0024115D01*
X0170556Y0024144D01*
X0170505Y0024177D01*
X0170456Y0024213D01*
X0170410Y0024251D01*
X0170366Y0024293D01*
X0170324Y0024337D01*
X0170286Y0024383D01*
X0170250Y0024432D01*
X0170217Y0024483D01*
X0170188Y0024535D01*
X0170161Y0024590D01*
X0170138Y0024645D01*
X0170118Y0024702D01*
X0170102Y0024761D01*
X0170089Y0024820D01*
X0170080Y0024879D01*
X0170075Y0024940D01*
X0170073Y0025000D01*
X0170073Y0035000D01*
X0170075Y0035060D01*
X0170080Y0035121D01*
X0170089Y0035180D01*
X0170102Y0035239D01*
X0170118Y0035298D01*
X0170138Y0035355D01*
X0170161Y0035410D01*
X0170188Y0035465D01*
X0170217Y0035517D01*
X0170250Y0035568D01*
X0170286Y0035617D01*
X0170324Y0035663D01*
X0170366Y0035707D01*
X0170410Y0035749D01*
X0170456Y0035787D01*
X0170505Y0035823D01*
X0170556Y0035856D01*
X0170608Y0035885D01*
X0170663Y0035912D01*
X0170718Y0035935D01*
X0170775Y0035955D01*
X0170834Y0035971D01*
X0170893Y0035984D01*
X0170952Y0035993D01*
X0171013Y0035998D01*
X0171073Y0036000D01*
X0178573Y0045020D02*
X0178573Y0075323D01*
X0178573Y0085020D02*
X0174073Y0085020D01*
X0174013Y0085022D01*
X0173952Y0085027D01*
X0173893Y0085036D01*
X0173834Y0085049D01*
X0173775Y0085065D01*
X0173718Y0085085D01*
X0173663Y0085108D01*
X0173608Y0085135D01*
X0173556Y0085164D01*
X0173505Y0085197D01*
X0173456Y0085233D01*
X0173410Y0085271D01*
X0173366Y0085313D01*
X0173324Y0085357D01*
X0173286Y0085403D01*
X0173250Y0085452D01*
X0173217Y0085503D01*
X0173188Y0085555D01*
X0173161Y0085610D01*
X0173138Y0085665D01*
X0173118Y0085722D01*
X0173102Y0085781D01*
X0173089Y0085840D01*
X0173080Y0085899D01*
X0173075Y0085960D01*
X0173073Y0086020D01*
X0173073Y0114323D01*
X0173075Y0114383D01*
X0173080Y0114444D01*
X0173089Y0114503D01*
X0173102Y0114562D01*
X0173118Y0114621D01*
X0173138Y0114678D01*
X0173161Y0114733D01*
X0173188Y0114788D01*
X0173217Y0114840D01*
X0173250Y0114891D01*
X0173286Y0114940D01*
X0173324Y0114986D01*
X0173366Y0115030D01*
X0173410Y0115072D01*
X0173456Y0115110D01*
X0173505Y0115146D01*
X0173556Y0115179D01*
X0173608Y0115208D01*
X0173663Y0115235D01*
X0173718Y0115258D01*
X0173775Y0115278D01*
X0173834Y0115294D01*
X0173893Y0115307D01*
X0173952Y0115316D01*
X0174013Y0115321D01*
X0174073Y0115323D01*
X0178573Y0115323D01*
X0188573Y0115323D01*
X0193073Y0115323D01*
X0193133Y0115321D01*
X0193194Y0115316D01*
X0193253Y0115307D01*
X0193312Y0115294D01*
X0193371Y0115278D01*
X0193428Y0115258D01*
X0193483Y0115235D01*
X0193538Y0115208D01*
X0193590Y0115179D01*
X0193641Y0115146D01*
X0193690Y0115110D01*
X0193736Y0115072D01*
X0193780Y0115030D01*
X0193822Y0114986D01*
X0193860Y0114940D01*
X0193896Y0114891D01*
X0193929Y0114840D01*
X0193958Y0114788D01*
X0193985Y0114733D01*
X0194008Y0114678D01*
X0194028Y0114621D01*
X0194044Y0114562D01*
X0194057Y0114503D01*
X0194066Y0114444D01*
X0194071Y0114383D01*
X0194073Y0114323D01*
X0194073Y0110823D01*
X0194073Y0109323D01*
X0188573Y0115323D02*
X0188573Y0085020D01*
X0178573Y0085020D01*
X0178573Y0115323D01*
X0178573Y0125020D02*
X0174073Y0125020D01*
X0174013Y0125022D01*
X0173952Y0125027D01*
X0173893Y0125036D01*
X0173834Y0125049D01*
X0173775Y0125065D01*
X0173718Y0125085D01*
X0173663Y0125108D01*
X0173608Y0125135D01*
X0173556Y0125164D01*
X0173505Y0125197D01*
X0173456Y0125233D01*
X0173410Y0125271D01*
X0173366Y0125313D01*
X0173324Y0125357D01*
X0173286Y0125403D01*
X0173250Y0125452D01*
X0173217Y0125503D01*
X0173188Y0125555D01*
X0173161Y0125610D01*
X0173138Y0125665D01*
X0173118Y0125722D01*
X0173102Y0125781D01*
X0173089Y0125840D01*
X0173080Y0125899D01*
X0173075Y0125960D01*
X0173073Y0126020D01*
X0173073Y0154323D01*
X0173075Y0154383D01*
X0173080Y0154444D01*
X0173089Y0154503D01*
X0173102Y0154562D01*
X0173118Y0154621D01*
X0173138Y0154678D01*
X0173161Y0154733D01*
X0173188Y0154788D01*
X0173217Y0154840D01*
X0173250Y0154891D01*
X0173286Y0154940D01*
X0173324Y0154986D01*
X0173366Y0155030D01*
X0173410Y0155072D01*
X0173456Y0155110D01*
X0173505Y0155146D01*
X0173556Y0155179D01*
X0173608Y0155208D01*
X0173663Y0155235D01*
X0173718Y0155258D01*
X0173775Y0155278D01*
X0173834Y0155294D01*
X0173893Y0155307D01*
X0173952Y0155316D01*
X0174013Y0155321D01*
X0174073Y0155323D01*
X0178573Y0155323D01*
X0188573Y0155323D01*
X0193073Y0155323D01*
X0193133Y0155321D01*
X0193194Y0155316D01*
X0193253Y0155307D01*
X0193312Y0155294D01*
X0193371Y0155278D01*
X0193428Y0155258D01*
X0193483Y0155235D01*
X0193538Y0155208D01*
X0193590Y0155179D01*
X0193641Y0155146D01*
X0193690Y0155110D01*
X0193736Y0155072D01*
X0193780Y0155030D01*
X0193822Y0154986D01*
X0193860Y0154940D01*
X0193896Y0154891D01*
X0193929Y0154840D01*
X0193958Y0154788D01*
X0193985Y0154733D01*
X0194008Y0154678D01*
X0194028Y0154621D01*
X0194044Y0154562D01*
X0194057Y0154503D01*
X0194066Y0154444D01*
X0194071Y0154383D01*
X0194073Y0154323D01*
X0194073Y0150823D01*
X0194073Y0149323D01*
X0188573Y0155323D02*
X0188573Y0125020D01*
X0178573Y0125020D01*
X0178573Y0155323D01*
X0209073Y0157323D02*
X0209073Y0123020D01*
X0209075Y0122933D01*
X0209081Y0122846D01*
X0209090Y0122759D01*
X0209103Y0122673D01*
X0209120Y0122587D01*
X0209141Y0122502D01*
X0209166Y0122419D01*
X0209194Y0122336D01*
X0209225Y0122255D01*
X0209260Y0122175D01*
X0209299Y0122097D01*
X0209341Y0122020D01*
X0209386Y0121945D01*
X0209435Y0121873D01*
X0209486Y0121802D01*
X0209541Y0121734D01*
X0209598Y0121669D01*
X0209659Y0121606D01*
X0209722Y0121545D01*
X0209787Y0121488D01*
X0209855Y0121433D01*
X0209926Y0121382D01*
X0209998Y0121333D01*
X0210073Y0121288D01*
X0210150Y0121246D01*
X0210228Y0121207D01*
X0210308Y0121172D01*
X0210389Y0121141D01*
X0210472Y0121113D01*
X0210555Y0121088D01*
X0210640Y0121067D01*
X0210726Y0121050D01*
X0210812Y0121037D01*
X0210899Y0121028D01*
X0210986Y0121022D01*
X0211073Y0121020D01*
X0236073Y0121020D01*
X0236073Y0119323D02*
X0211073Y0119323D01*
X0210986Y0119321D01*
X0210899Y0119315D01*
X0210812Y0119306D01*
X0210726Y0119293D01*
X0210640Y0119276D01*
X0210555Y0119255D01*
X0210472Y0119230D01*
X0210389Y0119202D01*
X0210308Y0119171D01*
X0210228Y0119136D01*
X0210150Y0119097D01*
X0210073Y0119055D01*
X0209998Y0119010D01*
X0209926Y0118961D01*
X0209855Y0118910D01*
X0209787Y0118855D01*
X0209722Y0118798D01*
X0209659Y0118737D01*
X0209598Y0118674D01*
X0209541Y0118609D01*
X0209486Y0118541D01*
X0209435Y0118470D01*
X0209386Y0118398D01*
X0209341Y0118323D01*
X0209299Y0118246D01*
X0209260Y0118168D01*
X0209225Y0118088D01*
X0209194Y0118007D01*
X0209166Y0117924D01*
X0209141Y0117841D01*
X0209120Y0117756D01*
X0209103Y0117670D01*
X0209090Y0117584D01*
X0209081Y0117497D01*
X0209075Y0117410D01*
X0209073Y0117323D01*
X0209073Y0083020D01*
X0209075Y0082933D01*
X0209081Y0082846D01*
X0209090Y0082759D01*
X0209103Y0082673D01*
X0209120Y0082587D01*
X0209141Y0082502D01*
X0209166Y0082419D01*
X0209194Y0082336D01*
X0209225Y0082255D01*
X0209260Y0082175D01*
X0209299Y0082097D01*
X0209341Y0082020D01*
X0209386Y0081945D01*
X0209435Y0081873D01*
X0209486Y0081802D01*
X0209541Y0081734D01*
X0209598Y0081669D01*
X0209659Y0081606D01*
X0209722Y0081545D01*
X0209787Y0081488D01*
X0209855Y0081433D01*
X0209926Y0081382D01*
X0209998Y0081333D01*
X0210073Y0081288D01*
X0210150Y0081246D01*
X0210228Y0081207D01*
X0210308Y0081172D01*
X0210389Y0081141D01*
X0210472Y0081113D01*
X0210555Y0081088D01*
X0210640Y0081067D01*
X0210726Y0081050D01*
X0210812Y0081037D01*
X0210899Y0081028D01*
X0210986Y0081022D01*
X0211073Y0081020D01*
X0236073Y0081020D01*
X0236160Y0081022D01*
X0236247Y0081028D01*
X0236334Y0081037D01*
X0236420Y0081050D01*
X0236506Y0081067D01*
X0236591Y0081088D01*
X0236674Y0081113D01*
X0236757Y0081141D01*
X0236838Y0081172D01*
X0236918Y0081207D01*
X0236996Y0081246D01*
X0237073Y0081288D01*
X0237148Y0081333D01*
X0237220Y0081382D01*
X0237291Y0081433D01*
X0237359Y0081488D01*
X0237424Y0081545D01*
X0237487Y0081606D01*
X0237548Y0081669D01*
X0237605Y0081734D01*
X0237660Y0081802D01*
X0237711Y0081873D01*
X0237760Y0081945D01*
X0237805Y0082020D01*
X0237847Y0082097D01*
X0237886Y0082175D01*
X0237921Y0082255D01*
X0237952Y0082336D01*
X0237980Y0082419D01*
X0238005Y0082502D01*
X0238026Y0082587D01*
X0238043Y0082673D01*
X0238056Y0082759D01*
X0238065Y0082846D01*
X0238071Y0082933D01*
X0238073Y0083020D01*
X0238073Y0089520D01*
X0238073Y0091020D01*
X0234073Y0091020D01*
X0232073Y0091020D01*
X0232073Y0109323D01*
X0234073Y0109323D01*
X0238073Y0109323D01*
X0238073Y0110823D01*
X0238073Y0117323D01*
X0238071Y0117410D01*
X0238065Y0117497D01*
X0238056Y0117584D01*
X0238043Y0117670D01*
X0238026Y0117756D01*
X0238005Y0117841D01*
X0237980Y0117924D01*
X0237952Y0118007D01*
X0237921Y0118088D01*
X0237886Y0118168D01*
X0237847Y0118246D01*
X0237805Y0118323D01*
X0237760Y0118398D01*
X0237711Y0118470D01*
X0237660Y0118541D01*
X0237605Y0118609D01*
X0237548Y0118674D01*
X0237487Y0118737D01*
X0237424Y0118798D01*
X0237359Y0118855D01*
X0237291Y0118910D01*
X0237220Y0118961D01*
X0237148Y0119010D01*
X0237073Y0119055D01*
X0236996Y0119097D01*
X0236918Y0119136D01*
X0236838Y0119171D01*
X0236757Y0119202D01*
X0236674Y0119230D01*
X0236591Y0119255D01*
X0236506Y0119276D01*
X0236420Y0119293D01*
X0236334Y0119306D01*
X0236247Y0119315D01*
X0236160Y0119321D01*
X0236073Y0119323D01*
X0233073Y0115323D02*
X0228573Y0115323D01*
X0218573Y0115323D01*
X0214073Y0115323D01*
X0214013Y0115321D01*
X0213952Y0115316D01*
X0213893Y0115307D01*
X0213834Y0115294D01*
X0213775Y0115278D01*
X0213718Y0115258D01*
X0213663Y0115235D01*
X0213608Y0115208D01*
X0213556Y0115179D01*
X0213505Y0115146D01*
X0213456Y0115110D01*
X0213410Y0115072D01*
X0213366Y0115030D01*
X0213324Y0114986D01*
X0213286Y0114940D01*
X0213250Y0114891D01*
X0213217Y0114840D01*
X0213188Y0114788D01*
X0213161Y0114733D01*
X0213138Y0114678D01*
X0213118Y0114621D01*
X0213102Y0114562D01*
X0213089Y0114503D01*
X0213080Y0114444D01*
X0213075Y0114383D01*
X0213073Y0114323D01*
X0213073Y0086020D01*
X0213075Y0085960D01*
X0213080Y0085899D01*
X0213089Y0085840D01*
X0213102Y0085781D01*
X0213118Y0085722D01*
X0213138Y0085665D01*
X0213161Y0085610D01*
X0213188Y0085555D01*
X0213217Y0085503D01*
X0213250Y0085452D01*
X0213286Y0085403D01*
X0213324Y0085357D01*
X0213366Y0085313D01*
X0213410Y0085271D01*
X0213456Y0085233D01*
X0213505Y0085197D01*
X0213556Y0085164D01*
X0213608Y0085135D01*
X0213663Y0085108D01*
X0213718Y0085085D01*
X0213775Y0085065D01*
X0213834Y0085049D01*
X0213893Y0085036D01*
X0213952Y0085027D01*
X0214013Y0085022D01*
X0214073Y0085020D01*
X0218573Y0085020D01*
X0228573Y0085020D01*
X0228573Y0115323D01*
X0233073Y0115323D02*
X0233133Y0115321D01*
X0233194Y0115316D01*
X0233253Y0115307D01*
X0233312Y0115294D01*
X0233371Y0115278D01*
X0233428Y0115258D01*
X0233483Y0115235D01*
X0233538Y0115208D01*
X0233590Y0115179D01*
X0233641Y0115146D01*
X0233690Y0115110D01*
X0233736Y0115072D01*
X0233780Y0115030D01*
X0233822Y0114986D01*
X0233860Y0114940D01*
X0233896Y0114891D01*
X0233929Y0114840D01*
X0233958Y0114788D01*
X0233985Y0114733D01*
X0234008Y0114678D01*
X0234028Y0114621D01*
X0234044Y0114562D01*
X0234057Y0114503D01*
X0234066Y0114444D01*
X0234071Y0114383D01*
X0234073Y0114323D01*
X0234073Y0110823D01*
X0234073Y0109323D01*
X0248329Y0105000D02*
X0248329Y0100500D01*
X0248331Y0100440D01*
X0248336Y0100379D01*
X0248345Y0100320D01*
X0248358Y0100261D01*
X0248374Y0100202D01*
X0248394Y0100145D01*
X0248417Y0100090D01*
X0248444Y0100035D01*
X0248473Y0099983D01*
X0248506Y0099932D01*
X0248542Y0099883D01*
X0248580Y0099837D01*
X0248622Y0099793D01*
X0248666Y0099751D01*
X0248712Y0099713D01*
X0248761Y0099677D01*
X0248812Y0099644D01*
X0248864Y0099615D01*
X0248919Y0099588D01*
X0248974Y0099565D01*
X0249031Y0099545D01*
X0249090Y0099529D01*
X0249149Y0099516D01*
X0249208Y0099507D01*
X0249269Y0099502D01*
X0249329Y0099500D01*
X0287431Y0099500D01*
X0287491Y0099502D01*
X0287552Y0099507D01*
X0287611Y0099516D01*
X0287670Y0099529D01*
X0287729Y0099545D01*
X0287786Y0099565D01*
X0287841Y0099588D01*
X0287896Y0099615D01*
X0287948Y0099644D01*
X0287999Y0099677D01*
X0288048Y0099713D01*
X0288094Y0099751D01*
X0288138Y0099793D01*
X0288180Y0099837D01*
X0288218Y0099883D01*
X0288254Y0099932D01*
X0288287Y0099983D01*
X0288316Y0100035D01*
X0288343Y0100090D01*
X0288366Y0100145D01*
X0288386Y0100202D01*
X0288402Y0100261D01*
X0288415Y0100320D01*
X0288424Y0100379D01*
X0288429Y0100440D01*
X0288431Y0100500D01*
X0288431Y0105000D01*
X0288431Y0115000D01*
X0248329Y0115000D01*
X0248329Y0119500D01*
X0248331Y0119560D01*
X0248336Y0119621D01*
X0248345Y0119680D01*
X0248358Y0119739D01*
X0248374Y0119798D01*
X0248394Y0119855D01*
X0248417Y0119910D01*
X0248444Y0119965D01*
X0248473Y0120017D01*
X0248506Y0120068D01*
X0248542Y0120117D01*
X0248580Y0120163D01*
X0248622Y0120207D01*
X0248666Y0120249D01*
X0248712Y0120287D01*
X0248761Y0120323D01*
X0248812Y0120356D01*
X0248864Y0120385D01*
X0248919Y0120412D01*
X0248974Y0120435D01*
X0249031Y0120455D01*
X0249090Y0120471D01*
X0249149Y0120484D01*
X0249208Y0120493D01*
X0249269Y0120498D01*
X0249329Y0120500D01*
X0252829Y0120500D01*
X0254329Y0120500D01*
X0254329Y0118500D01*
X0282431Y0118500D01*
X0282431Y0120500D01*
X0283931Y0120500D01*
X0287431Y0120500D01*
X0287491Y0120498D01*
X0287552Y0120493D01*
X0287611Y0120484D01*
X0287670Y0120471D01*
X0287729Y0120455D01*
X0287786Y0120435D01*
X0287841Y0120412D01*
X0287896Y0120385D01*
X0287948Y0120356D01*
X0287999Y0120323D01*
X0288048Y0120287D01*
X0288094Y0120249D01*
X0288138Y0120207D01*
X0288180Y0120163D01*
X0288218Y0120117D01*
X0288254Y0120068D01*
X0288287Y0120017D01*
X0288316Y0119965D01*
X0288343Y0119910D01*
X0288366Y0119855D01*
X0288386Y0119798D01*
X0288402Y0119739D01*
X0288415Y0119680D01*
X0288424Y0119621D01*
X0288429Y0119560D01*
X0288431Y0119500D01*
X0288431Y0115000D01*
X0282431Y0120500D02*
X0282431Y0124500D01*
X0283931Y0124500D01*
X0290431Y0124500D01*
X0290518Y0124498D01*
X0290605Y0124492D01*
X0290692Y0124483D01*
X0290778Y0124470D01*
X0290864Y0124453D01*
X0290949Y0124432D01*
X0291032Y0124407D01*
X0291115Y0124379D01*
X0291196Y0124348D01*
X0291276Y0124313D01*
X0291354Y0124274D01*
X0291431Y0124232D01*
X0291506Y0124187D01*
X0291578Y0124138D01*
X0291649Y0124087D01*
X0291717Y0124032D01*
X0291782Y0123975D01*
X0291845Y0123914D01*
X0291906Y0123851D01*
X0291963Y0123786D01*
X0292018Y0123718D01*
X0292069Y0123647D01*
X0292118Y0123575D01*
X0292163Y0123500D01*
X0292205Y0123423D01*
X0292244Y0123345D01*
X0292279Y0123265D01*
X0292310Y0123184D01*
X0292338Y0123101D01*
X0292363Y0123018D01*
X0292384Y0122933D01*
X0292401Y0122847D01*
X0292414Y0122761D01*
X0292423Y0122674D01*
X0292429Y0122587D01*
X0292431Y0122500D01*
X0292431Y0097500D01*
X0292429Y0097413D01*
X0292423Y0097326D01*
X0292414Y0097239D01*
X0292401Y0097153D01*
X0292384Y0097067D01*
X0292363Y0096982D01*
X0292338Y0096899D01*
X0292310Y0096816D01*
X0292279Y0096735D01*
X0292244Y0096655D01*
X0292205Y0096577D01*
X0292163Y0096500D01*
X0292118Y0096425D01*
X0292069Y0096353D01*
X0292018Y0096282D01*
X0291963Y0096214D01*
X0291906Y0096149D01*
X0291845Y0096086D01*
X0291782Y0096025D01*
X0291717Y0095968D01*
X0291649Y0095913D01*
X0291578Y0095862D01*
X0291506Y0095813D01*
X0291431Y0095768D01*
X0291354Y0095726D01*
X0291276Y0095687D01*
X0291196Y0095652D01*
X0291115Y0095621D01*
X0291032Y0095593D01*
X0290949Y0095568D01*
X0290864Y0095547D01*
X0290778Y0095530D01*
X0290692Y0095517D01*
X0290605Y0095508D01*
X0290518Y0095502D01*
X0290431Y0095500D01*
X0246329Y0095500D01*
X0246242Y0095502D01*
X0246155Y0095508D01*
X0246068Y0095517D01*
X0245982Y0095530D01*
X0245896Y0095547D01*
X0245811Y0095568D01*
X0245728Y0095593D01*
X0245645Y0095621D01*
X0245564Y0095652D01*
X0245484Y0095687D01*
X0245406Y0095726D01*
X0245329Y0095768D01*
X0245254Y0095813D01*
X0245182Y0095862D01*
X0245111Y0095913D01*
X0245043Y0095968D01*
X0244978Y0096025D01*
X0244915Y0096086D01*
X0244854Y0096149D01*
X0244797Y0096214D01*
X0244742Y0096282D01*
X0244691Y0096353D01*
X0244642Y0096425D01*
X0244597Y0096500D01*
X0244555Y0096577D01*
X0244516Y0096655D01*
X0244481Y0096735D01*
X0244450Y0096816D01*
X0244422Y0096899D01*
X0244397Y0096982D01*
X0244376Y0097067D01*
X0244359Y0097153D01*
X0244346Y0097239D01*
X0244337Y0097326D01*
X0244331Y0097413D01*
X0244329Y0097500D01*
X0244329Y0122500D01*
X0244331Y0122587D01*
X0244337Y0122674D01*
X0244346Y0122761D01*
X0244359Y0122847D01*
X0244376Y0122933D01*
X0244397Y0123018D01*
X0244422Y0123101D01*
X0244450Y0123184D01*
X0244481Y0123265D01*
X0244516Y0123345D01*
X0244555Y0123423D01*
X0244597Y0123500D01*
X0244642Y0123575D01*
X0244691Y0123647D01*
X0244742Y0123718D01*
X0244797Y0123786D01*
X0244854Y0123851D01*
X0244915Y0123914D01*
X0244978Y0123975D01*
X0245043Y0124032D01*
X0245111Y0124087D01*
X0245182Y0124138D01*
X0245254Y0124187D01*
X0245329Y0124232D01*
X0245406Y0124274D01*
X0245484Y0124313D01*
X0245564Y0124348D01*
X0245645Y0124379D01*
X0245728Y0124407D01*
X0245811Y0124432D01*
X0245896Y0124453D01*
X0245982Y0124470D01*
X0246068Y0124483D01*
X0246155Y0124492D01*
X0246242Y0124498D01*
X0246329Y0124500D01*
X0252829Y0124500D01*
X0254329Y0124500D01*
X0254329Y0120500D01*
X0248329Y0115000D02*
X0248329Y0105000D01*
X0288431Y0105000D01*
X0271073Y0126142D02*
X0246073Y0126142D01*
X0245986Y0126144D01*
X0245899Y0126150D01*
X0245812Y0126159D01*
X0245726Y0126172D01*
X0245640Y0126189D01*
X0245555Y0126210D01*
X0245472Y0126235D01*
X0245389Y0126263D01*
X0245308Y0126294D01*
X0245228Y0126329D01*
X0245150Y0126368D01*
X0245073Y0126410D01*
X0244998Y0126455D01*
X0244926Y0126504D01*
X0244855Y0126555D01*
X0244787Y0126610D01*
X0244722Y0126667D01*
X0244659Y0126728D01*
X0244598Y0126791D01*
X0244541Y0126856D01*
X0244486Y0126924D01*
X0244435Y0126995D01*
X0244386Y0127067D01*
X0244341Y0127142D01*
X0244299Y0127219D01*
X0244260Y0127297D01*
X0244225Y0127377D01*
X0244194Y0127458D01*
X0244166Y0127541D01*
X0244141Y0127624D01*
X0244120Y0127709D01*
X0244103Y0127795D01*
X0244090Y0127881D01*
X0244081Y0127968D01*
X0244075Y0128055D01*
X0244073Y0128142D01*
X0244073Y0172244D01*
X0244075Y0172331D01*
X0244081Y0172418D01*
X0244090Y0172505D01*
X0244103Y0172591D01*
X0244120Y0172677D01*
X0244141Y0172762D01*
X0244166Y0172845D01*
X0244194Y0172928D01*
X0244225Y0173009D01*
X0244260Y0173089D01*
X0244299Y0173167D01*
X0244341Y0173244D01*
X0244386Y0173319D01*
X0244435Y0173391D01*
X0244486Y0173462D01*
X0244541Y0173530D01*
X0244598Y0173595D01*
X0244659Y0173658D01*
X0244722Y0173719D01*
X0244787Y0173776D01*
X0244855Y0173831D01*
X0244926Y0173882D01*
X0244998Y0173931D01*
X0245073Y0173976D01*
X0245150Y0174018D01*
X0245228Y0174057D01*
X0245308Y0174092D01*
X0245389Y0174123D01*
X0245472Y0174151D01*
X0245555Y0174176D01*
X0245640Y0174197D01*
X0245726Y0174214D01*
X0245812Y0174227D01*
X0245899Y0174236D01*
X0245986Y0174242D01*
X0246073Y0174244D01*
X0271073Y0174244D01*
X0271160Y0174242D01*
X0271247Y0174236D01*
X0271334Y0174227D01*
X0271420Y0174214D01*
X0271506Y0174197D01*
X0271591Y0174176D01*
X0271674Y0174151D01*
X0271757Y0174123D01*
X0271838Y0174092D01*
X0271918Y0174057D01*
X0271996Y0174018D01*
X0272073Y0173976D01*
X0272148Y0173931D01*
X0272220Y0173882D01*
X0272291Y0173831D01*
X0272359Y0173776D01*
X0272424Y0173719D01*
X0272487Y0173658D01*
X0272548Y0173595D01*
X0272605Y0173530D01*
X0272660Y0173462D01*
X0272711Y0173391D01*
X0272760Y0173319D01*
X0272805Y0173244D01*
X0272847Y0173167D01*
X0272886Y0173089D01*
X0272921Y0173009D01*
X0272952Y0172928D01*
X0272980Y0172845D01*
X0273005Y0172762D01*
X0273026Y0172677D01*
X0273043Y0172591D01*
X0273056Y0172505D01*
X0273065Y0172418D01*
X0273071Y0172331D01*
X0273073Y0172244D01*
X0273073Y0165744D01*
X0273073Y0164244D01*
X0269073Y0164244D01*
X0267073Y0164244D01*
X0267073Y0136142D01*
X0269073Y0136142D01*
X0269073Y0134642D01*
X0269073Y0131142D01*
X0269071Y0131082D01*
X0269066Y0131021D01*
X0269057Y0130962D01*
X0269044Y0130903D01*
X0269028Y0130844D01*
X0269008Y0130787D01*
X0268985Y0130732D01*
X0268958Y0130677D01*
X0268929Y0130625D01*
X0268896Y0130574D01*
X0268860Y0130525D01*
X0268822Y0130479D01*
X0268780Y0130435D01*
X0268736Y0130393D01*
X0268690Y0130355D01*
X0268641Y0130319D01*
X0268590Y0130286D01*
X0268538Y0130257D01*
X0268483Y0130230D01*
X0268428Y0130207D01*
X0268371Y0130187D01*
X0268312Y0130171D01*
X0268253Y0130158D01*
X0268194Y0130149D01*
X0268133Y0130144D01*
X0268073Y0130142D01*
X0263573Y0130142D01*
X0253573Y0130142D01*
X0249073Y0130142D01*
X0249013Y0130144D01*
X0248952Y0130149D01*
X0248893Y0130158D01*
X0248834Y0130171D01*
X0248775Y0130187D01*
X0248718Y0130207D01*
X0248663Y0130230D01*
X0248608Y0130257D01*
X0248556Y0130286D01*
X0248505Y0130319D01*
X0248456Y0130355D01*
X0248410Y0130393D01*
X0248366Y0130435D01*
X0248324Y0130479D01*
X0248286Y0130525D01*
X0248250Y0130574D01*
X0248217Y0130625D01*
X0248188Y0130677D01*
X0248161Y0130732D01*
X0248138Y0130787D01*
X0248118Y0130844D01*
X0248102Y0130903D01*
X0248089Y0130962D01*
X0248080Y0131021D01*
X0248075Y0131082D01*
X0248073Y0131142D01*
X0248073Y0169244D01*
X0248075Y0169304D01*
X0248080Y0169365D01*
X0248089Y0169424D01*
X0248102Y0169483D01*
X0248118Y0169542D01*
X0248138Y0169599D01*
X0248161Y0169654D01*
X0248188Y0169709D01*
X0248217Y0169761D01*
X0248250Y0169812D01*
X0248286Y0169861D01*
X0248324Y0169907D01*
X0248366Y0169951D01*
X0248410Y0169993D01*
X0248456Y0170031D01*
X0248505Y0170067D01*
X0248556Y0170100D01*
X0248608Y0170129D01*
X0248663Y0170156D01*
X0248718Y0170179D01*
X0248775Y0170199D01*
X0248834Y0170215D01*
X0248893Y0170228D01*
X0248952Y0170237D01*
X0249013Y0170242D01*
X0249073Y0170244D01*
X0253573Y0170244D01*
X0263573Y0170244D01*
X0268073Y0170244D01*
X0268133Y0170242D01*
X0268194Y0170237D01*
X0268253Y0170228D01*
X0268312Y0170215D01*
X0268371Y0170199D01*
X0268428Y0170179D01*
X0268483Y0170156D01*
X0268538Y0170129D01*
X0268590Y0170100D01*
X0268641Y0170067D01*
X0268690Y0170031D01*
X0268736Y0169993D01*
X0268780Y0169951D01*
X0268822Y0169907D01*
X0268860Y0169861D01*
X0268896Y0169812D01*
X0268929Y0169761D01*
X0268958Y0169709D01*
X0268985Y0169654D01*
X0269008Y0169599D01*
X0269028Y0169542D01*
X0269044Y0169483D01*
X0269057Y0169424D01*
X0269066Y0169365D01*
X0269071Y0169304D01*
X0269073Y0169244D01*
X0269073Y0165744D01*
X0269073Y0164244D01*
X0263573Y0170244D02*
X0263573Y0130142D01*
X0271073Y0126142D02*
X0271160Y0126144D01*
X0271247Y0126150D01*
X0271334Y0126159D01*
X0271420Y0126172D01*
X0271506Y0126189D01*
X0271591Y0126210D01*
X0271674Y0126235D01*
X0271757Y0126263D01*
X0271838Y0126294D01*
X0271918Y0126329D01*
X0271996Y0126368D01*
X0272073Y0126410D01*
X0272148Y0126455D01*
X0272220Y0126504D01*
X0272291Y0126555D01*
X0272359Y0126610D01*
X0272424Y0126667D01*
X0272487Y0126728D01*
X0272548Y0126791D01*
X0272605Y0126856D01*
X0272660Y0126924D01*
X0272711Y0126995D01*
X0272760Y0127067D01*
X0272805Y0127142D01*
X0272847Y0127219D01*
X0272886Y0127297D01*
X0272921Y0127377D01*
X0272952Y0127458D01*
X0272980Y0127541D01*
X0273005Y0127624D01*
X0273026Y0127709D01*
X0273043Y0127795D01*
X0273056Y0127881D01*
X0273065Y0127968D01*
X0273071Y0128055D01*
X0273073Y0128142D01*
X0273073Y0134642D01*
X0273073Y0136142D01*
X0269073Y0136142D01*
X0253573Y0130142D02*
X0253573Y0170244D01*
X0238073Y0157323D02*
X0238073Y0150823D01*
X0238073Y0149323D01*
X0234073Y0149323D01*
X0232073Y0149323D01*
X0232073Y0131020D01*
X0234073Y0131020D01*
X0234073Y0129520D01*
X0234073Y0126020D01*
X0234071Y0125960D01*
X0234066Y0125899D01*
X0234057Y0125840D01*
X0234044Y0125781D01*
X0234028Y0125722D01*
X0234008Y0125665D01*
X0233985Y0125610D01*
X0233958Y0125555D01*
X0233929Y0125503D01*
X0233896Y0125452D01*
X0233860Y0125403D01*
X0233822Y0125357D01*
X0233780Y0125313D01*
X0233736Y0125271D01*
X0233690Y0125233D01*
X0233641Y0125197D01*
X0233590Y0125164D01*
X0233538Y0125135D01*
X0233483Y0125108D01*
X0233428Y0125085D01*
X0233371Y0125065D01*
X0233312Y0125049D01*
X0233253Y0125036D01*
X0233194Y0125027D01*
X0233133Y0125022D01*
X0233073Y0125020D01*
X0228573Y0125020D01*
X0218573Y0125020D01*
X0214073Y0125020D01*
X0214013Y0125022D01*
X0213952Y0125027D01*
X0213893Y0125036D01*
X0213834Y0125049D01*
X0213775Y0125065D01*
X0213718Y0125085D01*
X0213663Y0125108D01*
X0213608Y0125135D01*
X0213556Y0125164D01*
X0213505Y0125197D01*
X0213456Y0125233D01*
X0213410Y0125271D01*
X0213366Y0125313D01*
X0213324Y0125357D01*
X0213286Y0125403D01*
X0213250Y0125452D01*
X0213217Y0125503D01*
X0213188Y0125555D01*
X0213161Y0125610D01*
X0213138Y0125665D01*
X0213118Y0125722D01*
X0213102Y0125781D01*
X0213089Y0125840D01*
X0213080Y0125899D01*
X0213075Y0125960D01*
X0213073Y0126020D01*
X0213073Y0154323D01*
X0213075Y0154383D01*
X0213080Y0154444D01*
X0213089Y0154503D01*
X0213102Y0154562D01*
X0213118Y0154621D01*
X0213138Y0154678D01*
X0213161Y0154733D01*
X0213188Y0154788D01*
X0213217Y0154840D01*
X0213250Y0154891D01*
X0213286Y0154940D01*
X0213324Y0154986D01*
X0213366Y0155030D01*
X0213410Y0155072D01*
X0213456Y0155110D01*
X0213505Y0155146D01*
X0213556Y0155179D01*
X0213608Y0155208D01*
X0213663Y0155235D01*
X0213718Y0155258D01*
X0213775Y0155278D01*
X0213834Y0155294D01*
X0213893Y0155307D01*
X0213952Y0155316D01*
X0214013Y0155321D01*
X0214073Y0155323D01*
X0218573Y0155323D01*
X0228573Y0155323D01*
X0233073Y0155323D01*
X0233133Y0155321D01*
X0233194Y0155316D01*
X0233253Y0155307D01*
X0233312Y0155294D01*
X0233371Y0155278D01*
X0233428Y0155258D01*
X0233483Y0155235D01*
X0233538Y0155208D01*
X0233590Y0155179D01*
X0233641Y0155146D01*
X0233690Y0155110D01*
X0233736Y0155072D01*
X0233780Y0155030D01*
X0233822Y0154986D01*
X0233860Y0154940D01*
X0233896Y0154891D01*
X0233929Y0154840D01*
X0233958Y0154788D01*
X0233985Y0154733D01*
X0234008Y0154678D01*
X0234028Y0154621D01*
X0234044Y0154562D01*
X0234057Y0154503D01*
X0234066Y0154444D01*
X0234071Y0154383D01*
X0234073Y0154323D01*
X0234073Y0150823D01*
X0234073Y0149323D01*
X0228573Y0155323D02*
X0228573Y0125020D01*
X0236073Y0121020D02*
X0236160Y0121022D01*
X0236247Y0121028D01*
X0236334Y0121037D01*
X0236420Y0121050D01*
X0236506Y0121067D01*
X0236591Y0121088D01*
X0236674Y0121113D01*
X0236757Y0121141D01*
X0236838Y0121172D01*
X0236918Y0121207D01*
X0236996Y0121246D01*
X0237073Y0121288D01*
X0237148Y0121333D01*
X0237220Y0121382D01*
X0237291Y0121433D01*
X0237359Y0121488D01*
X0237424Y0121545D01*
X0237487Y0121606D01*
X0237548Y0121669D01*
X0237605Y0121734D01*
X0237660Y0121802D01*
X0237711Y0121873D01*
X0237760Y0121945D01*
X0237805Y0122020D01*
X0237847Y0122097D01*
X0237886Y0122175D01*
X0237921Y0122255D01*
X0237952Y0122336D01*
X0237980Y0122419D01*
X0238005Y0122502D01*
X0238026Y0122587D01*
X0238043Y0122673D01*
X0238056Y0122759D01*
X0238065Y0122846D01*
X0238071Y0122933D01*
X0238073Y0123020D01*
X0238073Y0129520D01*
X0238073Y0131020D01*
X0234073Y0131020D01*
X0218573Y0125020D02*
X0218573Y0155323D01*
X0211073Y0159323D02*
X0210986Y0159321D01*
X0210899Y0159315D01*
X0210812Y0159306D01*
X0210726Y0159293D01*
X0210640Y0159276D01*
X0210555Y0159255D01*
X0210472Y0159230D01*
X0210389Y0159202D01*
X0210308Y0159171D01*
X0210228Y0159136D01*
X0210150Y0159097D01*
X0210073Y0159055D01*
X0209998Y0159010D01*
X0209926Y0158961D01*
X0209855Y0158910D01*
X0209787Y0158855D01*
X0209722Y0158798D01*
X0209659Y0158737D01*
X0209598Y0158674D01*
X0209541Y0158609D01*
X0209486Y0158541D01*
X0209435Y0158470D01*
X0209386Y0158398D01*
X0209341Y0158323D01*
X0209299Y0158246D01*
X0209260Y0158168D01*
X0209225Y0158088D01*
X0209194Y0158007D01*
X0209166Y0157924D01*
X0209141Y0157841D01*
X0209120Y0157756D01*
X0209103Y0157670D01*
X0209090Y0157584D01*
X0209081Y0157497D01*
X0209075Y0157410D01*
X0209073Y0157323D01*
X0211073Y0159323D02*
X0236073Y0159323D01*
X0236160Y0159321D01*
X0236247Y0159315D01*
X0236334Y0159306D01*
X0236420Y0159293D01*
X0236506Y0159276D01*
X0236591Y0159255D01*
X0236674Y0159230D01*
X0236757Y0159202D01*
X0236838Y0159171D01*
X0236918Y0159136D01*
X0236996Y0159097D01*
X0237073Y0159055D01*
X0237148Y0159010D01*
X0237220Y0158961D01*
X0237291Y0158910D01*
X0237359Y0158855D01*
X0237424Y0158798D01*
X0237487Y0158737D01*
X0237548Y0158674D01*
X0237605Y0158609D01*
X0237660Y0158541D01*
X0237711Y0158470D01*
X0237760Y0158398D01*
X0237805Y0158323D01*
X0237847Y0158246D01*
X0237886Y0158168D01*
X0237921Y0158088D01*
X0237952Y0158007D01*
X0237980Y0157924D01*
X0238005Y0157841D01*
X0238026Y0157756D01*
X0238043Y0157670D01*
X0238056Y0157584D01*
X0238065Y0157497D01*
X0238071Y0157410D01*
X0238073Y0157323D01*
X0194073Y0131020D02*
X0194073Y0129520D01*
X0194073Y0126020D01*
X0194071Y0125960D01*
X0194066Y0125899D01*
X0194057Y0125840D01*
X0194044Y0125781D01*
X0194028Y0125722D01*
X0194008Y0125665D01*
X0193985Y0125610D01*
X0193958Y0125555D01*
X0193929Y0125503D01*
X0193896Y0125452D01*
X0193860Y0125403D01*
X0193822Y0125357D01*
X0193780Y0125313D01*
X0193736Y0125271D01*
X0193690Y0125233D01*
X0193641Y0125197D01*
X0193590Y0125164D01*
X0193538Y0125135D01*
X0193483Y0125108D01*
X0193428Y0125085D01*
X0193371Y0125065D01*
X0193312Y0125049D01*
X0193253Y0125036D01*
X0193194Y0125027D01*
X0193133Y0125022D01*
X0193073Y0125020D01*
X0188573Y0125020D01*
X0218573Y0115323D02*
X0218573Y0085020D01*
X0224573Y0080000D02*
X0223573Y0079000D01*
X0223573Y0071000D01*
X0224573Y0070000D01*
X0223573Y0069000D01*
X0223573Y0061000D01*
X0224573Y0060000D01*
X0223573Y0059000D01*
X0223573Y0051000D01*
X0224573Y0050000D01*
X0232573Y0050000D01*
X0233573Y0051000D01*
X0233573Y0059000D01*
X0232573Y0060000D01*
X0233573Y0061000D01*
X0233573Y0069000D01*
X0232573Y0070000D01*
X0233573Y0071000D01*
X0233573Y0079000D01*
X0232573Y0080000D01*
X0224573Y0080000D01*
X0228573Y0085020D02*
X0233073Y0085020D01*
X0233133Y0085022D01*
X0233194Y0085027D01*
X0233253Y0085036D01*
X0233312Y0085049D01*
X0233371Y0085065D01*
X0233428Y0085085D01*
X0233483Y0085108D01*
X0233538Y0085135D01*
X0233590Y0085164D01*
X0233641Y0085197D01*
X0233690Y0085233D01*
X0233736Y0085271D01*
X0233780Y0085313D01*
X0233822Y0085357D01*
X0233860Y0085403D01*
X0233896Y0085452D01*
X0233929Y0085503D01*
X0233958Y0085555D01*
X0233985Y0085610D01*
X0234008Y0085665D01*
X0234028Y0085722D01*
X0234044Y0085781D01*
X0234057Y0085840D01*
X0234066Y0085899D01*
X0234071Y0085960D01*
X0234073Y0086020D01*
X0234073Y0089520D01*
X0234073Y0091020D01*
X0194073Y0091020D02*
X0194073Y0089520D01*
X0194073Y0086020D01*
X0194071Y0085960D01*
X0194066Y0085899D01*
X0194057Y0085840D01*
X0194044Y0085781D01*
X0194028Y0085722D01*
X0194008Y0085665D01*
X0193985Y0085610D01*
X0193958Y0085555D01*
X0193929Y0085503D01*
X0193896Y0085452D01*
X0193860Y0085403D01*
X0193822Y0085357D01*
X0193780Y0085313D01*
X0193736Y0085271D01*
X0193690Y0085233D01*
X0193641Y0085197D01*
X0193590Y0085164D01*
X0193538Y0085135D01*
X0193483Y0085108D01*
X0193428Y0085085D01*
X0193371Y0085065D01*
X0193312Y0085049D01*
X0193253Y0085036D01*
X0193194Y0085027D01*
X0193133Y0085022D01*
X0193073Y0085020D01*
X0188573Y0085020D01*
X0124715Y0044500D02*
X0123215Y0044500D01*
X0119715Y0044500D01*
X0119655Y0044502D01*
X0119594Y0044507D01*
X0119535Y0044516D01*
X0119476Y0044529D01*
X0119417Y0044545D01*
X0119360Y0044565D01*
X0119305Y0044588D01*
X0119250Y0044615D01*
X0119198Y0044644D01*
X0119147Y0044677D01*
X0119098Y0044713D01*
X0119052Y0044751D01*
X0119008Y0044793D01*
X0118966Y0044837D01*
X0118928Y0044883D01*
X0118892Y0044932D01*
X0118859Y0044983D01*
X0118830Y0045035D01*
X0118803Y0045090D01*
X0118780Y0045145D01*
X0118760Y0045202D01*
X0118744Y0045261D01*
X0118731Y0045320D01*
X0118722Y0045379D01*
X0118717Y0045440D01*
X0118715Y0045500D01*
X0118715Y0050000D01*
X0112073Y0037000D02*
X0108573Y0037000D01*
X0099073Y0037000D01*
X0095073Y0037000D01*
X0091573Y0029000D02*
X0091573Y0028000D01*
X0090573Y0028000D01*
X0090573Y0022000D01*
X0091573Y0022000D01*
X0091573Y0021000D01*
X0095073Y0013000D02*
X0098573Y0013000D01*
X0108573Y0013000D01*
X0112073Y0013000D01*
X0115573Y0021000D02*
X0115573Y0022000D01*
X0116573Y0022000D01*
X0116573Y0028000D01*
X0115573Y0028000D01*
X0115573Y0029000D01*
X0102573Y0025000D02*
X0102575Y0025063D01*
X0102581Y0025125D01*
X0102591Y0025187D01*
X0102604Y0025249D01*
X0102622Y0025309D01*
X0102643Y0025368D01*
X0102668Y0025426D01*
X0102697Y0025482D01*
X0102729Y0025536D01*
X0102764Y0025588D01*
X0102802Y0025637D01*
X0102844Y0025685D01*
X0102888Y0025729D01*
X0102936Y0025771D01*
X0102985Y0025809D01*
X0103037Y0025844D01*
X0103091Y0025876D01*
X0103147Y0025905D01*
X0103205Y0025930D01*
X0103264Y0025951D01*
X0103324Y0025969D01*
X0103386Y0025982D01*
X0103448Y0025992D01*
X0103510Y0025998D01*
X0103573Y0026000D01*
X0103636Y0025998D01*
X0103698Y0025992D01*
X0103760Y0025982D01*
X0103822Y0025969D01*
X0103882Y0025951D01*
X0103941Y0025930D01*
X0103999Y0025905D01*
X0104055Y0025876D01*
X0104109Y0025844D01*
X0104161Y0025809D01*
X0104210Y0025771D01*
X0104258Y0025729D01*
X0104302Y0025685D01*
X0104344Y0025637D01*
X0104382Y0025588D01*
X0104417Y0025536D01*
X0104449Y0025482D01*
X0104478Y0025426D01*
X0104503Y0025368D01*
X0104524Y0025309D01*
X0104542Y0025249D01*
X0104555Y0025187D01*
X0104565Y0025125D01*
X0104571Y0025063D01*
X0104573Y0025000D01*
X0104571Y0024937D01*
X0104565Y0024875D01*
X0104555Y0024813D01*
X0104542Y0024751D01*
X0104524Y0024691D01*
X0104503Y0024632D01*
X0104478Y0024574D01*
X0104449Y0024518D01*
X0104417Y0024464D01*
X0104382Y0024412D01*
X0104344Y0024363D01*
X0104302Y0024315D01*
X0104258Y0024271D01*
X0104210Y0024229D01*
X0104161Y0024191D01*
X0104109Y0024156D01*
X0104055Y0024124D01*
X0103999Y0024095D01*
X0103941Y0024070D01*
X0103882Y0024049D01*
X0103822Y0024031D01*
X0103760Y0024018D01*
X0103698Y0024008D01*
X0103636Y0024002D01*
X0103573Y0024000D01*
X0103510Y0024002D01*
X0103448Y0024008D01*
X0103386Y0024018D01*
X0103324Y0024031D01*
X0103264Y0024049D01*
X0103205Y0024070D01*
X0103147Y0024095D01*
X0103091Y0024124D01*
X0103037Y0024156D01*
X0102985Y0024191D01*
X0102936Y0024229D01*
X0102888Y0024271D01*
X0102844Y0024315D01*
X0102802Y0024363D01*
X0102764Y0024412D01*
X0102729Y0024464D01*
X0102697Y0024518D01*
X0102668Y0024574D01*
X0102643Y0024632D01*
X0102622Y0024691D01*
X0102604Y0024751D01*
X0102591Y0024813D01*
X0102581Y0024875D01*
X0102575Y0024937D01*
X0102573Y0025000D01*
X0096573Y0025000D02*
X0096575Y0025172D01*
X0096581Y0025343D01*
X0096592Y0025515D01*
X0096607Y0025686D01*
X0096626Y0025857D01*
X0096649Y0026027D01*
X0096676Y0026197D01*
X0096708Y0026366D01*
X0096743Y0026534D01*
X0096783Y0026701D01*
X0096827Y0026867D01*
X0096874Y0027032D01*
X0096926Y0027196D01*
X0096982Y0027358D01*
X0097042Y0027519D01*
X0097106Y0027679D01*
X0097174Y0027837D01*
X0097245Y0027993D01*
X0097320Y0028147D01*
X0097400Y0028300D01*
X0097482Y0028450D01*
X0097569Y0028599D01*
X0097659Y0028745D01*
X0097753Y0028889D01*
X0097850Y0029031D01*
X0097951Y0029170D01*
X0098055Y0029307D01*
X0098162Y0029441D01*
X0098273Y0029572D01*
X0098386Y0029701D01*
X0098503Y0029827D01*
X0098623Y0029950D01*
X0098746Y0030070D01*
X0098872Y0030187D01*
X0099001Y0030300D01*
X0099132Y0030411D01*
X0099266Y0030518D01*
X0099403Y0030622D01*
X0099542Y0030723D01*
X0099684Y0030820D01*
X0099828Y0030914D01*
X0099974Y0031004D01*
X0100123Y0031091D01*
X0100273Y0031173D01*
X0100426Y0031253D01*
X0100580Y0031328D01*
X0100736Y0031399D01*
X0100894Y0031467D01*
X0101054Y0031531D01*
X0101215Y0031591D01*
X0101377Y0031647D01*
X0101541Y0031699D01*
X0101706Y0031746D01*
X0101872Y0031790D01*
X0102039Y0031830D01*
X0102207Y0031865D01*
X0102376Y0031897D01*
X0102546Y0031924D01*
X0102716Y0031947D01*
X0102887Y0031966D01*
X0103058Y0031981D01*
X0103230Y0031992D01*
X0103401Y0031998D01*
X0103573Y0032000D01*
X0103745Y0031998D01*
X0103916Y0031992D01*
X0104088Y0031981D01*
X0104259Y0031966D01*
X0104430Y0031947D01*
X0104600Y0031924D01*
X0104770Y0031897D01*
X0104939Y0031865D01*
X0105107Y0031830D01*
X0105274Y0031790D01*
X0105440Y0031746D01*
X0105605Y0031699D01*
X0105769Y0031647D01*
X0105931Y0031591D01*
X0106092Y0031531D01*
X0106252Y0031467D01*
X0106410Y0031399D01*
X0106566Y0031328D01*
X0106720Y0031253D01*
X0106873Y0031173D01*
X0107023Y0031091D01*
X0107172Y0031004D01*
X0107318Y0030914D01*
X0107462Y0030820D01*
X0107604Y0030723D01*
X0107743Y0030622D01*
X0107880Y0030518D01*
X0108014Y0030411D01*
X0108145Y0030300D01*
X0108274Y0030187D01*
X0108400Y0030070D01*
X0108523Y0029950D01*
X0108643Y0029827D01*
X0108760Y0029701D01*
X0108873Y0029572D01*
X0108984Y0029441D01*
X0109091Y0029307D01*
X0109195Y0029170D01*
X0109296Y0029031D01*
X0109393Y0028889D01*
X0109487Y0028745D01*
X0109577Y0028599D01*
X0109664Y0028450D01*
X0109746Y0028300D01*
X0109826Y0028147D01*
X0109901Y0027993D01*
X0109972Y0027837D01*
X0110040Y0027679D01*
X0110104Y0027519D01*
X0110164Y0027358D01*
X0110220Y0027196D01*
X0110272Y0027032D01*
X0110319Y0026867D01*
X0110363Y0026701D01*
X0110403Y0026534D01*
X0110438Y0026366D01*
X0110470Y0026197D01*
X0110497Y0026027D01*
X0110520Y0025857D01*
X0110539Y0025686D01*
X0110554Y0025515D01*
X0110565Y0025343D01*
X0110571Y0025172D01*
X0110573Y0025000D01*
X0110571Y0024828D01*
X0110565Y0024657D01*
X0110554Y0024485D01*
X0110539Y0024314D01*
X0110520Y0024143D01*
X0110497Y0023973D01*
X0110470Y0023803D01*
X0110438Y0023634D01*
X0110403Y0023466D01*
X0110363Y0023299D01*
X0110319Y0023133D01*
X0110272Y0022968D01*
X0110220Y0022804D01*
X0110164Y0022642D01*
X0110104Y0022481D01*
X0110040Y0022321D01*
X0109972Y0022163D01*
X0109901Y0022007D01*
X0109826Y0021853D01*
X0109746Y0021700D01*
X0109664Y0021550D01*
X0109577Y0021401D01*
X0109487Y0021255D01*
X0109393Y0021111D01*
X0109296Y0020969D01*
X0109195Y0020830D01*
X0109091Y0020693D01*
X0108984Y0020559D01*
X0108873Y0020428D01*
X0108760Y0020299D01*
X0108643Y0020173D01*
X0108523Y0020050D01*
X0108400Y0019930D01*
X0108274Y0019813D01*
X0108145Y0019700D01*
X0108014Y0019589D01*
X0107880Y0019482D01*
X0107743Y0019378D01*
X0107604Y0019277D01*
X0107462Y0019180D01*
X0107318Y0019086D01*
X0107172Y0018996D01*
X0107023Y0018909D01*
X0106873Y0018827D01*
X0106720Y0018747D01*
X0106566Y0018672D01*
X0106410Y0018601D01*
X0106252Y0018533D01*
X0106092Y0018469D01*
X0105931Y0018409D01*
X0105769Y0018353D01*
X0105605Y0018301D01*
X0105440Y0018254D01*
X0105274Y0018210D01*
X0105107Y0018170D01*
X0104939Y0018135D01*
X0104770Y0018103D01*
X0104600Y0018076D01*
X0104430Y0018053D01*
X0104259Y0018034D01*
X0104088Y0018019D01*
X0103916Y0018008D01*
X0103745Y0018002D01*
X0103573Y0018000D01*
X0103401Y0018002D01*
X0103230Y0018008D01*
X0103058Y0018019D01*
X0102887Y0018034D01*
X0102716Y0018053D01*
X0102546Y0018076D01*
X0102376Y0018103D01*
X0102207Y0018135D01*
X0102039Y0018170D01*
X0101872Y0018210D01*
X0101706Y0018254D01*
X0101541Y0018301D01*
X0101377Y0018353D01*
X0101215Y0018409D01*
X0101054Y0018469D01*
X0100894Y0018533D01*
X0100736Y0018601D01*
X0100580Y0018672D01*
X0100426Y0018747D01*
X0100273Y0018827D01*
X0100123Y0018909D01*
X0099974Y0018996D01*
X0099828Y0019086D01*
X0099684Y0019180D01*
X0099542Y0019277D01*
X0099403Y0019378D01*
X0099266Y0019482D01*
X0099132Y0019589D01*
X0099001Y0019700D01*
X0098872Y0019813D01*
X0098746Y0019930D01*
X0098623Y0020050D01*
X0098503Y0020173D01*
X0098386Y0020299D01*
X0098273Y0020428D01*
X0098162Y0020559D01*
X0098055Y0020693D01*
X0097951Y0020830D01*
X0097850Y0020969D01*
X0097753Y0021111D01*
X0097659Y0021255D01*
X0097569Y0021401D01*
X0097482Y0021550D01*
X0097400Y0021700D01*
X0097320Y0021853D01*
X0097245Y0022007D01*
X0097174Y0022163D01*
X0097106Y0022321D01*
X0097042Y0022481D01*
X0096982Y0022642D01*
X0096926Y0022804D01*
X0096874Y0022968D01*
X0096827Y0023133D01*
X0096783Y0023299D01*
X0096743Y0023466D01*
X0096708Y0023634D01*
X0096676Y0023803D01*
X0096649Y0023973D01*
X0096626Y0024143D01*
X0096607Y0024314D01*
X0096592Y0024485D01*
X0096581Y0024657D01*
X0096575Y0024828D01*
X0096573Y0025000D01*
X0118573Y0161000D02*
X0138573Y0161000D01*
X0138573Y0199000D01*
X0118573Y0199000D01*
X0118573Y0161000D01*
D13*
X0058730Y0021890D02*
X0001250Y0021890D01*
X0001250Y0057323D01*
X0058730Y0057323D01*
X0058730Y0021890D01*
X0120265Y0053501D02*
X0121016Y0052750D01*
X0122517Y0052750D01*
X0123268Y0053501D01*
X0123268Y0054251D01*
X0122517Y0055002D01*
X0121767Y0055002D01*
X0122517Y0055002D02*
X0123268Y0055753D01*
X0123268Y0056503D01*
X0122517Y0057254D01*
X0121016Y0057254D01*
X0120265Y0056503D01*
X0153865Y0055753D02*
X0155367Y0057254D01*
X0155367Y0052750D01*
X0156868Y0052750D02*
X0153865Y0052750D01*
X0181319Y0049123D02*
X0181319Y0047622D01*
X0182070Y0046871D01*
X0181319Y0049123D02*
X0182070Y0049874D01*
X0182820Y0049874D01*
X0185823Y0046871D01*
X0185823Y0049874D01*
X0185823Y0070371D02*
X0185823Y0073374D01*
X0185823Y0071873D02*
X0181319Y0071873D01*
X0182820Y0070371D01*
X0182070Y0086871D02*
X0181319Y0087622D01*
X0181319Y0089123D01*
X0182070Y0089874D01*
X0182820Y0089874D01*
X0185823Y0086871D01*
X0185823Y0089874D01*
X0185823Y0110371D02*
X0185823Y0113374D01*
X0185823Y0111873D02*
X0181319Y0111873D01*
X0182820Y0110371D01*
X0182070Y0126871D02*
X0181319Y0127622D01*
X0181319Y0129123D01*
X0182070Y0129874D01*
X0182820Y0129874D01*
X0185823Y0126871D01*
X0185823Y0129874D01*
X0185823Y0150371D02*
X0185823Y0153374D01*
X0185823Y0151873D02*
X0181319Y0151873D01*
X0182820Y0150371D01*
X0221319Y0151873D02*
X0225823Y0151873D01*
X0225823Y0153374D02*
X0225823Y0150371D01*
X0222820Y0150371D02*
X0221319Y0151873D01*
X0222070Y0129874D02*
X0221319Y0129123D01*
X0221319Y0127622D01*
X0222070Y0126871D01*
X0222070Y0129874D02*
X0222820Y0129874D01*
X0225823Y0126871D01*
X0225823Y0129874D01*
X0225823Y0113374D02*
X0225823Y0110371D01*
X0225823Y0111873D02*
X0221319Y0111873D01*
X0222820Y0110371D01*
X0222820Y0089874D02*
X0222070Y0089874D01*
X0221319Y0089123D01*
X0221319Y0087622D01*
X0222070Y0086871D01*
X0222820Y0089874D02*
X0225823Y0086871D01*
X0225823Y0089874D01*
X0221723Y0073928D02*
X0221723Y0071659D01*
X0221723Y0072793D02*
X0218320Y0072793D01*
X0219454Y0071659D01*
X0219454Y0063928D02*
X0218887Y0063928D01*
X0218320Y0063360D01*
X0218320Y0062226D01*
X0218887Y0061659D01*
X0219454Y0063928D02*
X0221723Y0061659D01*
X0221723Y0063928D01*
X0221156Y0053928D02*
X0221723Y0053360D01*
X0221723Y0052226D01*
X0221156Y0051659D01*
X0220021Y0052793D02*
X0220021Y0053360D01*
X0220589Y0053928D01*
X0221156Y0053928D01*
X0220021Y0053360D02*
X0219454Y0053928D01*
X0218887Y0053928D01*
X0218320Y0053360D01*
X0218320Y0052226D01*
X0218887Y0051659D01*
X0249176Y0107750D02*
X0252179Y0107750D01*
X0250678Y0107750D02*
X0250678Y0112254D01*
X0249176Y0110753D01*
X0257070Y0131693D02*
X0256319Y0132443D01*
X0256319Y0133944D01*
X0257070Y0134695D01*
X0257820Y0134695D01*
X0258571Y0133944D01*
X0259322Y0134695D01*
X0260072Y0134695D01*
X0260823Y0133944D01*
X0260823Y0132443D01*
X0260072Y0131693D01*
X0258571Y0133194D02*
X0258571Y0133944D01*
X0282776Y0111503D02*
X0283527Y0112254D01*
X0285028Y0112254D01*
X0285779Y0111503D01*
X0285779Y0110753D01*
X0285028Y0110002D01*
X0285779Y0109251D01*
X0285779Y0108501D01*
X0285028Y0107750D01*
X0283527Y0107750D01*
X0282776Y0108501D01*
X0284278Y0110002D02*
X0285028Y0110002D01*
X0260823Y0165293D02*
X0260823Y0168295D01*
X0260823Y0166794D02*
X0256319Y0166794D01*
X0257820Y0165293D01*
X0125823Y0165002D02*
X0125823Y0163501D01*
X0125072Y0162750D01*
X0123571Y0164251D02*
X0123571Y0165002D01*
X0124322Y0165753D01*
X0125072Y0165753D01*
X0125823Y0165002D01*
X0123571Y0165002D02*
X0122820Y0165753D01*
X0122070Y0165753D01*
X0121319Y0165002D01*
X0121319Y0163501D01*
X0122070Y0162750D01*
X0122820Y0194250D02*
X0121319Y0195751D01*
X0125823Y0195751D01*
X0125823Y0194250D02*
X0125823Y0197253D01*
X0033323Y0120874D02*
X0033323Y0117871D01*
X0033323Y0119373D02*
X0028819Y0119373D01*
X0030320Y0117871D01*
X0030320Y0097374D02*
X0029570Y0097374D01*
X0028819Y0096623D01*
X0028819Y0095122D01*
X0029570Y0094371D01*
X0030320Y0097374D02*
X0033323Y0094371D01*
X0033323Y0097374D01*
D14*
X0026073Y0085000D02*
X0018573Y0085000D01*
X0018573Y0065000D01*
X0026073Y0065000D01*
X0026073Y0085000D01*
X0043573Y0085000D01*
X0043573Y0065000D01*
X0026073Y0065000D01*
X0026073Y0132500D02*
X0018573Y0132500D01*
X0018573Y0172500D01*
X0026073Y0172500D01*
X0026073Y0132500D01*
X0043573Y0132500D01*
X0043573Y0172500D01*
X0026073Y0172500D01*
X0240699Y0068169D02*
X0240699Y0051831D01*
X0256447Y0051831D01*
X0256447Y0068169D01*
X0240699Y0068169D01*
X0266073Y0070000D02*
X0266073Y0090000D01*
X0283573Y0090000D01*
X0283573Y0070000D01*
X0266073Y0070000D01*
X0266073Y0065000D02*
X0283573Y0065000D01*
X0283573Y0045000D01*
X0266073Y0045000D01*
X0266073Y0065000D01*
X0283573Y0065000D02*
X0291073Y0065000D01*
X0291073Y0045000D01*
X0283573Y0045000D01*
X0283573Y0070000D02*
X0291073Y0070000D01*
X0291073Y0090000D01*
X0283573Y0090000D01*
D15*
X0243573Y0054000D03*
D16*
X0236073Y0042394D03*
X0258679Y0041000D03*
X0073573Y0105394D03*
X0063573Y0119606D03*
X0063573Y0150394D03*
X0073573Y0164606D03*
D17*
X0131573Y0196000D02*
X0135573Y0192000D01*
D18*
X0131073Y0194000D02*
X0131075Y0194099D01*
X0131081Y0194199D01*
X0131091Y0194298D01*
X0131105Y0194396D01*
X0131122Y0194494D01*
X0131144Y0194591D01*
X0131169Y0194687D01*
X0131198Y0194782D01*
X0131231Y0194876D01*
X0131268Y0194968D01*
X0131308Y0195059D01*
X0131352Y0195148D01*
X0131400Y0195236D01*
X0131451Y0195321D01*
X0131505Y0195404D01*
X0131562Y0195486D01*
X0131623Y0195564D01*
X0131687Y0195641D01*
X0131753Y0195714D01*
X0131823Y0195785D01*
X0131895Y0195853D01*
X0131970Y0195919D01*
X0132048Y0195981D01*
X0132128Y0196040D01*
X0132210Y0196096D01*
X0132294Y0196148D01*
X0132381Y0196197D01*
X0132469Y0196243D01*
X0132559Y0196285D01*
X0132651Y0196324D01*
X0132744Y0196359D01*
X0132838Y0196390D01*
X0132934Y0196417D01*
X0133031Y0196440D01*
X0133128Y0196460D01*
X0133226Y0196476D01*
X0133325Y0196488D01*
X0133424Y0196496D01*
X0133523Y0196500D01*
X0133623Y0196500D01*
X0133722Y0196496D01*
X0133821Y0196488D01*
X0133920Y0196476D01*
X0134018Y0196460D01*
X0134115Y0196440D01*
X0134212Y0196417D01*
X0134308Y0196390D01*
X0134402Y0196359D01*
X0134495Y0196324D01*
X0134587Y0196285D01*
X0134677Y0196243D01*
X0134765Y0196197D01*
X0134852Y0196148D01*
X0134936Y0196096D01*
X0135018Y0196040D01*
X0135098Y0195981D01*
X0135176Y0195919D01*
X0135251Y0195853D01*
X0135323Y0195785D01*
X0135393Y0195714D01*
X0135459Y0195641D01*
X0135523Y0195564D01*
X0135584Y0195486D01*
X0135641Y0195404D01*
X0135695Y0195321D01*
X0135746Y0195236D01*
X0135794Y0195148D01*
X0135838Y0195059D01*
X0135878Y0194968D01*
X0135915Y0194876D01*
X0135948Y0194782D01*
X0135977Y0194687D01*
X0136002Y0194591D01*
X0136024Y0194494D01*
X0136041Y0194396D01*
X0136055Y0194298D01*
X0136065Y0194199D01*
X0136071Y0194099D01*
X0136073Y0194000D01*
X0136071Y0193901D01*
X0136065Y0193801D01*
X0136055Y0193702D01*
X0136041Y0193604D01*
X0136024Y0193506D01*
X0136002Y0193409D01*
X0135977Y0193313D01*
X0135948Y0193218D01*
X0135915Y0193124D01*
X0135878Y0193032D01*
X0135838Y0192941D01*
X0135794Y0192852D01*
X0135746Y0192764D01*
X0135695Y0192679D01*
X0135641Y0192596D01*
X0135584Y0192514D01*
X0135523Y0192436D01*
X0135459Y0192359D01*
X0135393Y0192286D01*
X0135323Y0192215D01*
X0135251Y0192147D01*
X0135176Y0192081D01*
X0135098Y0192019D01*
X0135018Y0191960D01*
X0134936Y0191904D01*
X0134852Y0191852D01*
X0134765Y0191803D01*
X0134677Y0191757D01*
X0134587Y0191715D01*
X0134495Y0191676D01*
X0134402Y0191641D01*
X0134308Y0191610D01*
X0134212Y0191583D01*
X0134115Y0191560D01*
X0134018Y0191540D01*
X0133920Y0191524D01*
X0133821Y0191512D01*
X0133722Y0191504D01*
X0133623Y0191500D01*
X0133523Y0191500D01*
X0133424Y0191504D01*
X0133325Y0191512D01*
X0133226Y0191524D01*
X0133128Y0191540D01*
X0133031Y0191560D01*
X0132934Y0191583D01*
X0132838Y0191610D01*
X0132744Y0191641D01*
X0132651Y0191676D01*
X0132559Y0191715D01*
X0132469Y0191757D01*
X0132381Y0191803D01*
X0132294Y0191852D01*
X0132210Y0191904D01*
X0132128Y0191960D01*
X0132048Y0192019D01*
X0131970Y0192081D01*
X0131895Y0192147D01*
X0131823Y0192215D01*
X0131753Y0192286D01*
X0131687Y0192359D01*
X0131623Y0192436D01*
X0131562Y0192514D01*
X0131505Y0192596D01*
X0131451Y0192679D01*
X0131400Y0192764D01*
X0131352Y0192852D01*
X0131308Y0192941D01*
X0131268Y0193032D01*
X0131231Y0193124D01*
X0131198Y0193218D01*
X0131169Y0193313D01*
X0131144Y0193409D01*
X0131122Y0193506D01*
X0131105Y0193604D01*
X0131091Y0193702D01*
X0131081Y0193801D01*
X0131075Y0193901D01*
X0131073Y0194000D01*
X0194073Y0150823D02*
X0198073Y0150823D01*
X0198073Y0129520D02*
X0194073Y0129520D01*
X0194073Y0110823D02*
X0198073Y0110823D01*
X0198073Y0089520D02*
X0194073Y0089520D01*
X0194073Y0070823D02*
X0198073Y0070823D01*
X0198073Y0049520D02*
X0194073Y0049520D01*
X0154317Y0044500D02*
X0154317Y0040500D01*
X0123215Y0040500D02*
X0123215Y0044500D01*
X0108573Y0037000D02*
X0108573Y0036000D01*
X0099073Y0036000D01*
X0099073Y0037000D01*
X0098573Y0014000D02*
X0098573Y0013000D01*
X0098573Y0014000D02*
X0108573Y0014000D01*
X0108573Y0013000D01*
X0045573Y0097020D02*
X0041573Y0097020D01*
X0041573Y0118323D02*
X0045573Y0118323D01*
X0234073Y0110823D02*
X0238073Y0110823D01*
X0252829Y0120500D02*
X0252829Y0124500D01*
X0238073Y0129520D02*
X0234073Y0129520D01*
X0234073Y0150823D02*
X0238073Y0150823D01*
X0269073Y0165744D02*
X0273073Y0165744D01*
X0273073Y0134642D02*
X0269073Y0134642D01*
X0283931Y0124500D02*
X0283931Y0120500D01*
X0238073Y0089520D02*
X0234073Y0089520D01*
D19*
X0242943Y0163465D02*
X0221951Y0163465D01*
X0221951Y0164646D01*
X0216128Y0164646D01*
X0216128Y0163465D01*
X0200986Y0163465D01*
X0186159Y0163465D01*
X0144203Y0163465D01*
X0144203Y0196535D01*
X0166159Y0196535D01*
X0166159Y0190433D01*
X0180986Y0190433D01*
X0180986Y0196535D01*
X0206159Y0196535D01*
X0206159Y0190433D01*
X0220986Y0190433D01*
X0220986Y0196535D01*
X0242943Y0196535D01*
X0242943Y0163465D01*
X0238514Y0167106D02*
X0200986Y0167106D01*
X0200986Y0169567D02*
X0200986Y0163465D01*
X0200986Y0169567D02*
X0186159Y0169567D01*
X0186159Y0163465D01*
X0186159Y0167106D02*
X0148632Y0167106D01*
X0148632Y0192894D01*
X0166132Y0192894D01*
X0166159Y0196535D02*
X0180986Y0196535D01*
X0180994Y0192894D02*
X0206152Y0192894D01*
X0206159Y0196535D02*
X0220986Y0196535D01*
X0221014Y0192894D02*
X0238514Y0192894D01*
X0238514Y0167106D01*
M02*
