%
M48
M72
T01C0.02165
T02C0.02559
T03C0.03200
T04C0.03600
T05C0.03937
T06C0.04000
T07C0.11811
%
T01
X63573Y65000
X58573Y89917
X63573Y95000
X88573Y90000
X123573Y80000
X138573Y80000
X148573Y95000
X143573Y120000
X123573Y135283
X148573Y150000
X143186Y159613
X126790Y155000
X113573Y160000
X108573Y155000
X93573Y170000
X68573Y175000
X63573Y180583
X63573Y140000
X73573Y140000
X63573Y130000
X158960Y160387
X203045Y160528
X203573Y155000
X203573Y145000
X208573Y135000
X238573Y130000
X238573Y110248
X213573Y110000
X196073Y93500
X203573Y85000
X196073Y76500
X218573Y55000
X228573Y45000
X248573Y45000
X248573Y75000
X241073Y77500
X255073Y80000
X183573Y40000
X173573Y45000
X123573Y25000
X223573Y165000
T02
X153573Y180000
X148573Y185000
X53573Y157500
X53573Y112500
T03
X128573Y170000
X128573Y180000
X128573Y190000
T04
X228573Y75000
X228573Y65000
X228573Y55000
T05
X278573Y50000
X278573Y60000
X278573Y75000
X278573Y85000
X268573Y15000
X258573Y15000
X248573Y15000
X238573Y15000
X228573Y15000
X218573Y15000
X198573Y15000
X188573Y15000
X178573Y15000
X168573Y15000
X158573Y15000
X148573Y15000
X138573Y15000
X128573Y15000
X33573Y120000
X33573Y130000
X33573Y140000
X33573Y150000
X92573Y205000
X102573Y205000
X112573Y205000
X122573Y205000
X132573Y205000
X142573Y205000
X152573Y205000
X162573Y205000
X172573Y205000
X182573Y205000
X198573Y205000
X208573Y205000
X218573Y205000
X228573Y205000
X238573Y205000
X248573Y205000
X258573Y205000
X268573Y205000
X223573Y185000
X213573Y185000
X203573Y185000
X193573Y185000
X183573Y185000
X173573Y185000
X163573Y185000
X163573Y175000
X173573Y175000
X183573Y175000
X193573Y175000
X203573Y175000
X213573Y175000
X223573Y175000
T06
X258573Y159843
X258573Y150000
X258573Y140157
X223573Y144921
X223573Y135079
X258730Y110000
X268573Y110000
X278415Y110000
X223573Y104921
X223573Y95079
X183573Y95079
X183573Y104921
X183573Y135079
X183573Y144921
X183573Y64921
X183573Y55079
X148415Y55000
X138573Y55000
X128730Y55000
X116373Y33900
X116373Y16100
X90773Y16100
X90773Y33900
X28573Y85079
X28573Y94921
T07
X43337Y21890
X31919Y40394
X55148Y40394
M30
